<svg width="46" height="45" viewBox="0 0 46 45" fill="none" xmlns="http://www.w3.org/2000/svg">
<g id="Capa_1" clip-path="url(#clip0_1299_30287)">
<g id="Group">
<path id="Vector" d="M22.2027 25.9341C18.6972 27.5917 16.2783 31.1019 16.2786 35.1666V38.7714" stroke="#6555BC" stroke-miterlimit="10" stroke-linecap="round" stroke-linejoin="round"/>
<path id="Vector_2" d="M39.0986 18.3021C40.8941 18.4694 42.4949 17.2229 42.4839 15.6591C42.4839 14.9617 42.1728 14.3274 41.6647 13.8535" stroke="#6555BC" stroke-miterlimit="10" stroke-linecap="round" stroke-linejoin="round"/>
<path id="Vector_3" d="M11.848 13.8535C11.3399 14.3275 11.0288 14.9618 11.0288 15.6591C11.0177 17.2229 12.6186 18.4694 14.4141 18.3021" stroke="#6555BC" stroke-miterlimit="10" stroke-linecap="round" stroke-linejoin="round"/>
<path id="Vector_4" d="M41.3695 35.2302H25.6998C24.4114 35.2302 23.367 34.2085 23.367 32.9481V26.8238C23.367 25.5635 24.4114 24.5417 25.6998 24.5417H41.3695C42.6579 24.5417 43.7023 25.5635 43.7023 26.8238V32.9481C43.7023 34.2085 42.6579 35.2302 41.3695 35.2302Z" stroke="#6555BC" stroke-miterlimit="10" stroke-linecap="round" stroke-linejoin="round"/>
<path id="Vector_5" d="M7.73716 34.0154C11.6381 34.0154 14.8005 30.9218 14.8005 27.1056C14.8005 23.2894 11.6381 20.1958 7.73716 20.1958C3.83619 20.1958 0.673828 23.2894 0.673828 27.1056C0.673828 30.9218 3.83619 34.0154 7.73716 34.0154Z" stroke="#6555BC" stroke-miterlimit="10" stroke-linecap="round" stroke-linejoin="round"/>
<path id="Vector_6" d="M5.10599 26.7202L6.85965 29.0954L10.3683 25.1157" stroke="#6555BC" stroke-miterlimit="10" stroke-linecap="round" stroke-linejoin="round"/>
<path id="Vector_7" d="M15.9864 44.0434H43.7522C44.6215 44.0434 45.3262 43.3541 45.3262 42.5037V40.3112C45.3262 39.4609 44.6215 38.7715 43.7522 38.7715H10.2976C9.4284 38.7715 8.72366 39.4609 8.72366 40.3112V42.5037C8.72366 43.354 9.42831 44.0434 10.2976 44.0434H12.8418" stroke="#6555BC" stroke-miterlimit="10" stroke-linecap="round" stroke-linejoin="round"/>
<path id="Vector_8" d="M34.8918 3.04509C32.5523 1.72462 29.7581 0.956543 26.7563 0.956543C18.5222 0.956543 11.8472 6.73069 11.8472 13.8535C15.8885 13.5985 21.3909 13.093 26.7563 7.84963C32.1217 13.093 37.6241 13.5985 41.6654 13.8535C41.6654 10.3529 40.0524 7.17867 37.4351 4.85484" stroke="#6555BC" stroke-miterlimit="10" stroke-linecap="round" stroke-linejoin="round"/>
<path id="Vector_9" d="M25.1769 35.2302C24.1773 35.2302 23.3669 36.023 23.3669 37.0009C23.3669 37.9787 24.1773 38.7715 25.1769 38.7715" stroke="#6555BC" stroke-miterlimit="10" stroke-linecap="round" stroke-linejoin="round"/>
<path id="Vector_10" d="M41.8923 38.7715C42.8919 38.7715 43.7023 37.9787 43.7023 37.0009C43.7023 36.023 42.8919 35.2302 41.8923 35.2302" stroke="#6555BC" stroke-miterlimit="10" stroke-linecap="round" stroke-linejoin="round"/>
<path id="Vector_11" d="M34.2592 24.5416C37.4164 22.541 39.4671 19.3109 39.4671 15.6661C39.4671 14.979 39.3935 14.3068 39.2542 13.6545" stroke="#6555BC" stroke-miterlimit="10" stroke-linecap="round" stroke-linejoin="round"/>
<path id="Vector_12" d="M14.2585 13.6548C14.119 14.307 14.0455 14.9792 14.0455 15.6663C14.0455 20.7444 18.0254 25.0177 23.4338 26.2814" stroke="#6555BC" stroke-miterlimit="10" stroke-linecap="round" stroke-linejoin="round"/>
<g id="Group_2">
<path id="Vector_13" d="M28.8761 16.99C28.8803 15.7108 27.9332 15.5877 26.7646 15.5841C25.596 15.5805 24.6483 15.6978 24.6441 16.977C24.64 18.2563 25.5841 19.2962 26.7527 19.2998C27.9214 19.3034 28.872 18.2693 28.8761 16.99Z" stroke="#6555BC" stroke-miterlimit="10" stroke-linecap="round" stroke-linejoin="round"/>
<path id="Vector_14" d="M22.4282 16.3165C22.4303 15.6416 21.8728 15.0927 21.1828 15.0906C20.4929 15.0885 19.9318 15.6339 19.9297 16.3088" stroke="#6555BC" stroke-miterlimit="10" stroke-linecap="round" stroke-linejoin="round"/>
<path id="Vector_15" d="M31.0964 16.343C31.0985 15.6681 31.6596 15.1227 32.3495 15.1248C33.0394 15.1269 33.597 15.6757 33.5948 16.3507" stroke="#6555BC" stroke-miterlimit="10" stroke-linecap="round" stroke-linejoin="round"/>
</g>
</g>
</g>
<defs>
<clipPath id="clip0_1299_30287">
<rect width="46" height="45" fill="white"/>
</clipPath>
</defs>
</svg>
