<svg width="41" height="41" viewBox="0 0 41 41" fill="none" xmlns="http://www.w3.org/2000/svg">
<g id="hugeicons:assignments">
<g id="Group">
<path id="Vector" d="M35.875 20.5017V13.6684C35.875 9.64013 35.875 7.62771 34.6245 6.3755C33.3723 5.125 31.3599 5.125 27.3334 5.125H22.2084C18.1818 5.125 16.1677 5.125 14.9172 6.3755C13.6667 7.62771 13.6667 9.64013 13.6667 13.6684V27.335C13.6667 31.3633 13.6667 33.3774 14.9172 34.6296C15.9764 35.6888 17.5839 35.8494 20.5 35.875M20.5 11.9583H29.0417M20.5 18.7917H29.0417M6.83335 5.125H5.12502C4.67194 5.125 4.23742 5.30498 3.91705 5.62536C3.59667 5.94573 3.41669 6.38026 3.41669 6.83333V30.75L5.97919 35.875L8.54169 30.75V6.83333C8.54169 6.38026 8.3617 5.94573 8.04133 5.62536C7.72095 5.30498 7.28643 5.125 6.83335 5.125Z" stroke="#FFC200" stroke-width="1.5" stroke-linecap="round" stroke-linejoin="round"/>
<path id="Vector_2" d="M23.9167 32.4585C23.9167 32.4585 26.4792 33.3127 28.1875 35.8752C28.1875 35.8752 30.75 29.0418 37.5834 25.6252M3.41669 11.9585H8.54169" stroke="#FFC200" stroke-width="1.5" stroke-linecap="round" stroke-linejoin="round"/>
</g>
</g>
</svg>
