<svg width="44" height="44" viewBox="0 0 44 44" fill="none" xmlns="http://www.w3.org/2000/svg">
<g id="Layer_1">
<path id="Vector" d="M42.3912 30.1563C42.1944 29.4233 41.3884 29.0434 39.7968 28.6069C40.2033 27.0445 40.2806 26.1241 39.7409 25.5836C39.2012 25.0439 38.3152 25.117 36.7237 25.5337C36.2948 23.9766 35.9004 23.1395 35.163 22.9419C35.0788 22.9195 34.9946 22.9066 34.9095 22.9032V1.80469C34.9095 1.52023 34.6784 1.28906 34.3939 1.28906H5.7853C5.50085 1.28906 5.26968 1.52023 5.26968 1.80469V3.66094H2.08569C1.80124 3.66094 1.57007 3.89211 1.57007 4.17656V39.826C1.57007 40.1105 1.80124 40.3416 2.08569 40.3416H25.8517V40.3408C26.4 40.4989 27.1803 40.3786 28.3276 40.0778C28.7564 41.635 29.1509 42.472 29.8882 42.6697C30.6238 42.8665 31.3551 42.3595 32.5256 41.2027C33.5199 42.1833 34.2229 42.7127 34.8691 42.7127C34.9723 42.7127 35.0737 42.6989 35.1742 42.6723C35.9081 42.4755 36.2871 41.6694 36.7237 40.0778C38.2851 40.4843 39.2064 40.5616 39.7469 40.022C40.2866 39.4823 40.2136 38.5963 39.7968 37.0047C41.354 36.5759 42.191 36.1814 42.3887 35.4441C42.5855 34.7084 42.0784 33.9771 40.9217 32.8066C42.0587 31.6534 42.588 30.8928 42.3912 30.1563ZM6.30093 2.32031H33.8774V23.2487C33.4881 23.5013 33.0516 23.8889 32.5248 24.4097C32.0151 23.9061 31.588 23.5254 31.2091 23.2727V4.17656C31.2091 3.89211 30.9779 3.66094 30.6934 3.66094H6.30093V2.32031ZM2.60132 4.69219H30.1778V22.9015C30.0807 22.9032 29.9844 22.9161 29.8882 22.9419C29.15 23.1395 28.7564 23.9766 28.3276 25.5337C26.7369 25.1178 25.85 25.0439 25.3103 25.5836C24.7698 26.1241 24.8471 27.0445 25.2544 28.6069C23.6973 29.0357 22.8602 29.4302 22.6617 30.1684C22.4649 30.904 22.9719 31.6353 24.1287 32.8058C22.9917 33.9582 22.4623 34.7188 22.6591 35.4552C22.8559 36.1883 23.662 36.5681 25.2536 37.0047C24.9889 38.0213 24.8651 38.7647 24.9588 39.3104H2.60132V4.69219ZM41.3935 35.1759C41.3256 35.4295 40.5324 35.7534 39.0354 36.1393C38.9013 36.1737 38.787 36.2605 38.7174 36.3808C38.6478 36.5011 38.6298 36.6437 38.6676 36.777C38.8214 37.3312 39.2906 39.0191 39.0182 39.2923C38.8326 39.478 37.9844 39.362 36.4968 38.9486C36.3636 38.9116 36.2209 38.9297 36.1006 38.9984C35.9812 39.068 35.8935 39.1823 35.8591 39.3164C35.7148 39.8759 35.2756 41.5774 34.9078 41.6763C34.6569 41.7433 33.9788 41.2173 32.8934 40.1113C32.7963 40.0125 32.664 39.9566 32.5256 39.9566C32.3873 39.9566 32.2549 40.0125 32.1578 40.1113C31.7539 40.5221 30.5241 41.7725 30.1555 41.6745C29.9019 41.6066 29.578 40.8134 29.1921 39.3164C29.1577 39.1823 29.0701 39.068 28.9506 38.9984C28.8312 38.9297 28.6885 38.9108 28.5544 38.9486C28.0001 39.1024 26.3123 39.5716 26.0391 39.2992C25.8534 39.1136 25.9694 38.2654 26.3828 36.7778C26.4198 36.6446 26.4017 36.502 26.333 36.3816C26.2642 36.2613 26.1491 36.1745 26.015 36.1402C25.4555 35.9958 23.754 35.5566 23.6551 35.1888C23.5881 34.9379 24.1141 34.2598 25.2201 33.1745C25.3189 33.0773 25.3748 32.945 25.3748 32.8066C25.3748 32.6683 25.3189 32.5359 25.2201 32.4388C24.8084 32.0349 23.558 30.8069 23.6569 30.4365C23.7248 30.183 24.518 29.859 26.015 29.4731C26.1491 29.4387 26.2634 29.352 26.333 29.2316C26.4026 29.1113 26.4206 28.9687 26.3828 28.8355C25.9694 27.3479 25.8534 26.4988 26.0391 26.3141C26.3115 26.0408 27.9993 26.51 28.5544 26.6647C28.6876 26.7016 28.8303 26.6836 28.9506 26.6148C29.0709 26.5452 29.1577 26.4309 29.1921 26.2969C29.578 24.7998 29.9019 24.0066 30.1555 23.9387C30.5284 23.8391 31.7539 25.0903 32.1578 25.502C32.2549 25.6008 32.3873 25.6566 32.5256 25.6566C32.664 25.6566 32.7963 25.6008 32.8934 25.502C33.2965 25.0912 34.5245 23.8391 34.8958 23.9387C35.1493 24.0066 35.4733 24.7998 35.8591 26.2969C35.8935 26.4309 35.9812 26.5452 36.1006 26.6148C36.2201 26.6845 36.3627 26.7025 36.4968 26.6647C37.0511 26.5109 38.7389 26.0416 39.0122 26.3141C39.1978 26.4997 39.0818 27.3479 38.6684 28.8355C38.6315 28.9687 38.6495 29.1113 38.7183 29.2316C38.787 29.352 38.9022 29.4387 39.0362 29.4731C39.5957 29.6175 41.2973 30.0566 41.3961 30.4245C41.4631 30.6754 40.9372 31.3534 39.8312 32.4388C39.7323 32.5359 39.6765 32.6683 39.6765 32.8066C39.6765 32.945 39.7323 33.0773 39.8312 33.1745C40.2411 33.5775 41.4923 34.8055 41.3935 35.1759ZM37.6853 29.388C37.8864 29.5891 37.8864 29.9157 37.6853 30.1177L31.5777 36.2252C31.4772 36.3258 31.3448 36.3765 31.2134 36.3765C31.0819 36.3765 30.9495 36.3258 30.849 36.2252L27.3659 32.7422C27.1648 32.5411 27.1648 32.2145 27.3659 32.0126C27.567 31.8115 27.8936 31.8115 28.0947 32.0126L31.2125 35.1304L36.9557 29.3872C37.1576 29.187 37.4842 29.187 37.6853 29.388ZM9.58202 17.8148V20.2159C9.58202 20.5004 9.35085 20.7316 9.0664 20.7316H4.42405C4.1396 20.7316 3.90843 20.5004 3.90843 20.2159V15.5727C3.90843 15.2883 4.1396 15.0571 4.42405 15.0571H7.36569C7.65015 15.0571 7.88132 15.2883 7.88132 15.5727C7.88132 15.8572 7.65015 16.0884 7.36569 16.0884H4.93968V19.7003H8.55077V17.8148C8.55077 17.5304 8.78194 17.2992 9.0664 17.2992C9.35085 17.2992 9.58202 17.5295 9.58202 17.8148ZM9.35085 15.5487C9.5571 15.7455 9.56397 16.072 9.36718 16.2774L7.12679 18.6209C7.03054 18.7215 6.89819 18.7791 6.75983 18.7799C6.75812 18.7799 6.7564 18.7799 6.75382 18.7799C6.61718 18.7799 6.48569 18.7258 6.38944 18.6287L5.69851 17.9377C5.49741 17.7366 5.49741 17.4101 5.69851 17.2081C5.8996 17.007 6.22616 17.007 6.42812 17.2081L6.74608 17.5261L8.62124 15.5641C8.81804 15.3596 9.1446 15.3519 9.35085 15.5487ZM15.8125 16.6633L14.4856 16.5103L13.9305 15.2952C13.8462 15.1112 13.6632 14.9935 13.4612 14.9935C13.2593 14.9935 13.0762 15.1112 12.992 15.2952L12.4369 16.5103L11.11 16.6633C10.9098 16.6865 10.7413 16.824 10.6786 17.0165C10.6159 17.209 10.6717 17.4187 10.8204 17.5553L11.8044 18.4585L11.5397 19.7673C11.4993 19.965 11.5784 20.1678 11.7416 20.2864C11.8319 20.3517 11.9376 20.3852 12.045 20.3852C12.1318 20.3852 12.2194 20.3629 12.2985 20.3191L13.4621 19.6625L14.6257 20.3191C14.801 20.4179 15.0193 20.4059 15.1817 20.2873C15.345 20.1687 15.4241 19.9659 15.3837 19.7682L15.119 18.4594L16.103 17.5562C16.2516 17.4195 16.3066 17.209 16.2448 17.0173C16.182 16.824 16.0136 16.6865 15.8125 16.6633ZM14.2072 17.8965C14.074 18.0185 14.0147 18.2016 14.0508 18.3786L14.1496 18.8676L13.7156 18.6227C13.6366 18.578 13.5498 18.5565 13.4621 18.5565C13.3744 18.5565 13.2876 18.5788 13.2086 18.6227L12.7746 18.8676L12.8734 18.3786C12.9095 18.2016 12.8502 18.0185 12.717 17.8965L12.3501 17.5596L12.8451 17.5029C13.0247 17.4823 13.1802 17.3688 13.255 17.2047L13.4621 16.7509L13.6692 17.2047C13.744 17.3688 13.8995 17.4823 14.0791 17.5029L14.5741 17.5596L14.2072 17.8965ZM21.957 16.6633L20.6301 16.5103L20.075 15.2952C19.9908 15.1112 19.8077 14.9935 19.6058 14.9935C19.4038 14.9935 19.2208 15.1112 19.1366 15.2952L18.5814 16.5103L17.2545 16.6633C17.0543 16.6865 16.8858 16.824 16.8231 17.0165C16.7604 17.209 16.8162 17.4187 16.9649 17.5553L17.9489 18.4585L17.6842 19.7673C17.6438 19.965 17.7229 20.1678 17.8862 20.2864C18.0494 20.405 18.2669 20.4179 18.4422 20.3182L19.6058 19.6616L20.7694 20.3182C20.8484 20.3629 20.9352 20.3844 21.0229 20.3844C21.1294 20.3844 21.236 20.3509 21.3262 20.2855C21.4895 20.167 21.5686 19.9641 21.5282 19.7665L21.2635 18.4577L22.2475 17.5545C22.3962 17.4178 22.4512 17.2073 22.3893 17.0156C22.3274 16.824 22.1573 16.6865 21.957 16.6633ZM20.3508 17.8965C20.2176 18.0185 20.1583 18.2016 20.1944 18.3786L20.2933 18.8676L19.8593 18.6227C19.7802 18.578 19.6934 18.5565 19.6058 18.5565C19.5181 18.5565 19.4313 18.5788 19.3523 18.6227L18.9183 18.8676L19.0171 18.3786C19.0532 18.2016 18.9939 18.0185 18.8607 17.8965L18.4937 17.5596L18.9887 17.5029C19.1684 17.4823 19.3239 17.3688 19.3987 17.2047L19.6058 16.7509L19.8129 17.2047C19.8876 17.3688 20.0432 17.4823 20.2228 17.5029L20.7178 17.5596L20.3508 17.8965ZM26.2187 15.296C26.1344 15.1121 25.9514 14.9944 25.7494 14.9944C25.5475 14.9944 25.3644 15.1121 25.2802 15.296L24.7251 16.5112L23.3982 16.6641C23.198 16.6873 23.0295 16.8248 22.9668 17.0173C22.9041 17.209 22.9599 17.4195 23.1086 17.5562L24.0926 18.4594L23.8279 19.7682C23.7875 19.9659 23.8666 20.1687 24.0298 20.2873C24.1931 20.4059 24.4105 20.4188 24.5858 20.3191L25.7494 19.6625L26.913 20.3191C26.9921 20.3638 27.0798 20.3852 27.1666 20.3852C27.2731 20.3852 27.3797 20.3517 27.4699 20.2864C27.6332 20.1678 27.7123 19.965 27.6719 19.7673L27.4072 18.4585L28.3912 17.5553C28.5398 17.4187 28.5948 17.2081 28.533 17.0165C28.4711 16.8248 28.3018 16.6865 28.1016 16.6633L26.7747 16.5103L26.2187 15.296ZM26.4945 17.8965C26.3613 18.0185 26.302 18.2016 26.3381 18.3786L26.4369 18.8676L26.003 18.6227C25.8457 18.5341 25.6532 18.5341 25.4959 18.6227L25.0619 18.8676L25.1608 18.3786C25.1969 18.2016 25.1376 18.0185 25.0044 17.8965L24.6374 17.5596L25.1324 17.5029C25.312 17.4823 25.4676 17.3688 25.5423 17.2047L25.7494 16.7509L25.9566 17.2047C26.0313 17.3688 26.1869 17.4823 26.3665 17.5029L26.8615 17.5596L26.4945 17.8965ZM9.58202 25.5286V27.9297C9.58202 28.2141 9.35085 28.4453 9.0664 28.4453H4.42405C4.1396 28.4453 3.90843 28.2141 3.90843 27.9297V23.2865C3.90843 23.002 4.1396 22.7709 4.42405 22.7709H7.36569C7.65015 22.7709 7.88132 23.002 7.88132 23.2865C7.88132 23.5709 7.65015 23.8021 7.36569 23.8021H4.93968V27.4141H8.55077V25.5286C8.55077 25.2441 8.78194 25.013 9.0664 25.013C9.35085 25.013 9.58202 25.2433 9.58202 25.5286ZM6.74608 25.2416L8.62124 23.2796C8.81804 23.0734 9.1446 23.0665 9.34999 23.2633C9.55624 23.4601 9.56312 23.7866 9.36632 23.992L7.12593 26.3355C7.02968 26.4361 6.89733 26.4937 6.75897 26.4945C6.75726 26.4945 6.75554 26.4945 6.75296 26.4945C6.61632 26.4945 6.48483 26.4404 6.38858 26.3433L5.69765 25.6523C5.49655 25.4513 5.49655 25.1247 5.69765 24.9227C5.89874 24.7216 6.2253 24.7216 6.4264 24.9227L6.74608 25.2416ZM15.8125 24.377L14.4856 24.2241L13.9305 23.0089C13.8462 22.825 13.6632 22.7073 13.4612 22.7073C13.2593 22.7073 13.0762 22.825 12.992 23.0089L12.4369 24.2241L11.11 24.377C10.9098 24.4002 10.7413 24.5377 10.6786 24.7302C10.6159 24.9227 10.6717 25.1324 10.8204 25.2691L11.8044 26.1723L11.5397 27.4811C11.4993 27.6787 11.5784 27.8816 11.7416 28.0002C11.8319 28.0655 11.9376 28.099 12.045 28.099C12.1318 28.099 12.2194 28.0766 12.2985 28.0328L13.4621 27.3762L14.6257 28.0328C14.801 28.1316 15.0193 28.1196 15.1817 28.001C15.345 27.8824 15.4241 27.6796 15.3837 27.482L15.119 26.1731L16.103 25.2699C16.2516 25.1333 16.3066 24.9227 16.2448 24.7311C16.1829 24.5395 16.0136 24.4002 15.8125 24.377ZM14.2072 25.6094C14.074 25.7314 14.0147 25.9145 14.0508 26.0915L14.1496 26.5805L13.7156 26.3355C13.6366 26.2909 13.5498 26.2694 13.4621 26.2694C13.3744 26.2694 13.2876 26.2917 13.2086 26.3355L12.7746 26.5805L12.8734 26.0915C12.9095 25.9145 12.8502 25.7314 12.717 25.6094L12.3501 25.2725L12.8451 25.2158C13.0247 25.1952 13.1802 25.0817 13.255 24.9176L13.4621 24.4638L13.6692 24.9176C13.744 25.0817 13.8995 25.1952 14.0791 25.2158L14.5741 25.2725L14.2072 25.6094ZM21.957 24.377L20.6301 24.2241L20.075 23.0089C19.9908 22.825 19.8077 22.7073 19.6058 22.7073C19.4038 22.7073 19.2208 22.825 19.1366 23.0089L18.5814 24.2241L17.2545 24.377C17.0543 24.4002 16.8858 24.5377 16.8231 24.7302C16.7604 24.9227 16.8162 25.1324 16.9649 25.2691L17.9489 26.1723L17.6842 27.4811C17.6438 27.6787 17.7229 27.8816 17.8862 28.0002C18.0494 28.1188 18.2669 28.1316 18.4422 28.032L19.6058 27.3754L20.7694 28.032C20.8484 28.0766 20.9352 28.0981 21.0229 28.0981C21.1294 28.0981 21.236 28.0646 21.3262 27.9993C21.4895 27.8807 21.5686 27.6779 21.5282 27.4802L21.2635 26.1714L22.2475 25.2682C22.3962 25.1316 22.4512 24.921 22.3893 24.7294C22.3274 24.5377 22.1573 24.4002 21.957 24.377ZM20.3508 25.6094C20.2176 25.7314 20.1583 25.9145 20.1944 26.0915L20.2933 26.5805L19.8593 26.3355C19.7802 26.2909 19.6934 26.2694 19.6058 26.2694C19.5181 26.2694 19.4313 26.2917 19.3523 26.3355L18.9183 26.5805L19.0171 26.0915C19.0532 25.9145 18.9939 25.7314 18.8607 25.6094L18.4937 25.2725L18.9887 25.2158C19.1684 25.1952 19.3239 25.0826 19.3987 24.9176L19.6058 24.4638L19.8129 24.9176C19.8876 25.0817 20.0432 25.1952 20.2228 25.2158L20.7178 25.2725L20.3508 25.6094ZM9.58202 33.2415V35.6426C9.58202 35.927 9.35085 36.1582 9.0664 36.1582H4.42405C4.1396 36.1582 3.90843 35.927 3.90843 35.6426V30.9994C3.90843 30.7149 4.1396 30.4837 4.42405 30.4837H7.36569C7.65015 30.4837 7.88132 30.7149 7.88132 30.9994C7.88132 31.2838 7.65015 31.515 7.36569 31.515H4.93968V35.127H8.55077V33.2415C8.55077 32.957 8.78194 32.7259 9.0664 32.7259C9.35085 32.7259 9.58202 32.957 9.58202 33.2415ZM6.74608 32.9553L8.62124 30.9934C8.81804 30.7871 9.1446 30.7802 9.34999 30.977C9.55624 31.1738 9.56312 31.5004 9.36632 31.7058L7.12679 34.0484C7.03054 34.149 6.89819 34.2066 6.75983 34.2074C6.75812 34.2074 6.7564 34.2074 6.75382 34.2074C6.61718 34.2074 6.48569 34.1533 6.38944 34.0562L5.69851 33.3652C5.49741 33.1641 5.49741 32.8376 5.69851 32.6356C5.8996 32.4345 6.22616 32.4345 6.42726 32.6356L6.74608 32.9553ZM15.8125 32.0908L14.4856 31.9378L13.9305 30.7227C13.8462 30.5387 13.6632 30.421 13.4612 30.421C13.2593 30.421 13.0762 30.5387 12.992 30.7227L12.4369 31.9378L11.11 32.0908C10.9098 32.114 10.7413 32.2515 10.6786 32.444C10.6159 32.6365 10.6717 32.8462 10.8204 32.9828L11.8044 33.886L11.5397 35.1948C11.4993 35.3925 11.5784 35.5953 11.7416 35.7139C11.8319 35.7792 11.9376 35.8127 12.045 35.8127C12.1318 35.8127 12.2194 35.7904 12.2985 35.7466L13.4621 35.09L14.6257 35.7466C14.801 35.8454 15.0193 35.8334 15.1817 35.7148C15.345 35.5962 15.4241 35.3934 15.3837 35.1957L15.119 33.8869L16.103 32.9837C16.2516 32.847 16.3066 32.6365 16.2448 32.4448C16.182 32.2515 16.0136 32.114 15.8125 32.0908ZM14.2072 33.3231C14.074 33.4452 14.0147 33.6282 14.0508 33.8052L14.1496 34.2942L13.7156 34.0493C13.6366 34.0046 13.5498 33.9831 13.4621 33.9831C13.3744 33.9831 13.2876 34.0055 13.2086 34.0493L12.7746 34.2942L12.8734 33.8052C12.9095 33.6282 12.8502 33.4452 12.717 33.3231L12.3501 32.9862L12.8451 32.9295C13.0247 32.9089 13.1802 32.7955 13.255 32.6313L13.4621 32.1776L13.6692 32.6313C13.744 32.7955 13.8995 32.9089 14.0791 32.9295L14.5741 32.9862L14.2072 33.3231ZM4.80304 12.7007H27.5258C27.8102 12.7007 28.0414 12.4695 28.0414 12.1851V6.95148C28.0414 6.66703 27.8102 6.43586 27.5258 6.43586H4.80304C4.51858 6.43586 4.28741 6.66703 4.28741 6.95148V12.1842C4.28741 12.4695 4.51772 12.7007 4.80304 12.7007ZM5.31866 7.46711H27.0101V11.6686H5.31866V7.46711Z" fill="#6555BC"/>
</g>
</svg>
