<svg width="51" height="47" viewBox="0 0 51 47" fill="none" xmlns="http://www.w3.org/2000/svg">
<g id="famicons:book-outline">
<path id="Vector" d="M25.5 14.6875C27.0938 8.88962 33.1132 5.92917 46.2188 5.87501C46.4283 5.87428 46.6359 5.91178 46.8296 5.98533C47.0233 6.05888 47.1993 6.16704 47.3475 6.30357C47.4956 6.4401 47.613 6.60231 47.6928 6.78083C47.7726 6.95936 47.8133 7.15068 47.8125 7.34376V33.7813C47.8125 34.1708 47.6446 34.5444 47.3457 34.8198C47.0468 35.0953 46.6415 35.25 46.2188 35.25C33.4688 35.25 28.5431 37.6193 25.5 41.125M25.5 14.6875C23.9063 8.88962 17.8869 5.92917 4.78126 5.87501C4.57175 5.87428 4.36415 5.91178 4.17043 5.98533C3.97671 6.05888 3.8007 6.16704 3.65255 6.30357C3.5044 6.4401 3.38703 6.60231 3.30722 6.78083C3.22741 6.95936 3.18672 7.15068 3.18751 7.34376V33.6041C3.18751 34.511 3.79712 35.25 4.78126 35.25C17.5313 35.25 22.4749 37.6367 25.5 41.125M25.5 14.6875V41.125" stroke="#403685" stroke-width="1.88" stroke-linecap="round" stroke-linejoin="round"/>
</g>
</svg>
