<svg width="156" height="135" viewBox="0 0 156 135" fill="none" xmlns="http://www.w3.org/2000/svg">
<g id="Frame 1000004762">
<rect width="156" height="135" fill="#FFF6D5"/>
<g id="Group 1">
<g id="Clip path group">
<mask id="mask0_2078_3418" style="mask-type:luminance" maskUnits="userSpaceOnUse" x="0" y="91" width="32" height="44">
<g id="86fe27f392">
<path id="Vector" d="M0 91.1367H31.5151V135H0V91.1367Z" fill="white"/>
</g>
</mask>
<g mask="url(#mask0_2078_3418)">
<g id="Group">
<path id="Vector_2" d="M31.5121 91.1396C31.5121 115.298 17.4169 134.912 0.0568542 134.912C0.0568542 110.753 14.1509 91.1396 31.5121 91.1396Z" fill="#6555BC"/>
</g>
</g>
</g>
<path id="Vector_3" d="M93.9726 44.3267C76.392 44.3267 62.1181 24.4649 62.1181 0H93.9726V44.3267Z" fill="#25206B"/>
<g id="Clip path group_2">
<mask id="mask1_2078_3418" style="mask-type:luminance" maskUnits="userSpaceOnUse" x="124" y="0" width="32" height="45">
<g id="75fdc561d4">
<path id="Vector_4" d="M124.142 0H156V44.6187H124.142V0Z" fill="white"/>
</g>
</mask>
<g mask="url(#mask1_2078_3418)">
<g id="Group_2">
<path id="Vector_5" d="M156.081 44.3267H124.227V0H156.081V44.3267Z" fill="#6555BC"/>
</g>
</g>
</g>
<path id="Vector_6" d="M155.729 22.1633L140.153 43.838L124.578 22.1633L140.153 0.488525L155.729 22.1633Z" fill="#25206B"/>
<path id="Vector_7" d="M147.083 22.1634L140.153 31.8046L133.225 22.1634L140.153 12.5208L147.083 22.1634Z" fill="#806ED8"/>
<g id="Clip path group_3">
<mask id="mask2_2078_3418" style="mask-type:luminance" maskUnits="userSpaceOnUse" x="124" y="43" width="32" height="46">
<g id="94e290c862">
<path id="Vector_8" d="M124.142 43.8557H156V88.8557H124.142V43.8557Z" fill="white"/>
</g>
</mask>
<g mask="url(#mask2_2078_3418)">
<g id="Group_3">
<path id="Vector_9" d="M124.227 44.2341H156.081V88.5623C143.641 71.2508 136.667 61.5456 124.227 44.2341Z" fill="#806ED8"/>
</g>
</g>
</g>
<path id="Vector_10" d="M61.8944 44.0632H93.7479V88.3899C81.3077 71.0784 74.3335 61.3732 61.8944 44.0632Z" fill="#FFC200"/>
<g id="Clip path group_4">
<mask id="mask3_2078_3418" style="mask-type:luminance" maskUnits="userSpaceOnUse" x="125" y="90" width="32" height="45">
<g id="0ca767a6e8">
<path id="Vector_11" d="M156.858 134.619H125V90H156.858V134.619Z" fill="white"/>
</g>
</mask>
<g mask="url(#mask3_2078_3418)">
<g id="Group_4">
<path id="Vector_12" d="M156.773 90.1936V134.52H124.919C124.919 110.057 139.193 90.1936 156.773 90.1936Z" fill="#25206B"/>
</g>
</g>
</g>
<path id="Vector_13" d="M93.173 44.3267C93.173 19.8618 107.446 0 125.026 0C125.026 24.4649 110.754 44.3267 93.173 44.3267Z" fill="#6555BC"/>
<path id="Vector_14" d="M125.026 88.5625C107.446 88.5625 93.173 68.6993 93.173 44.2344C110.754 44.2344 125.026 64.0977 125.026 88.5625Z" fill="#6555BC"/>
<path id="Vector_15" d="M70.3513 85.1362L64.8308 77.4525L70.3513 69.7703L75.8729 77.4525L70.3513 85.1362Z" fill="#25206B"/>
<path id="Vector_16" d="M93.9726 132.518H62.1181V88.1917H93.9726V132.518Z" fill="#806ED8"/>
<path id="Vector_17" d="M62.9178 88.5625H31.0644V44.2344H62.9178V88.5625Z" fill="#25206B"/>
<path id="Vector_18" d="M46.9911 44.2344C46.9911 56.475 54.1227 66.3992 62.9189 66.3992C54.1227 66.3992 46.9911 76.3219 46.9911 88.5625C46.9911 76.3219 39.8606 66.3992 31.0644 66.3992C39.8606 66.3992 46.9911 56.475 46.9911 44.2344Z" fill="#806ED8"/>
<g id="Clip path group_5">
<mask id="mask4_2078_3418" style="mask-type:luminance" maskUnits="userSpaceOnUse" x="0" y="0" width="33" height="45">
<g id="54ca4b5214">
<path id="Vector_19" d="M0.0931702 0H32.0633V44.6187H0.0931702V0Z" fill="white"/>
</g>
</mask>
<g mask="url(#mask4_2078_3418)">
<g id="Group_5">
<path id="Vector_20" d="M0.0106812 0C17.5913 0 31.8641 19.8618 31.8641 44.3267H0.0106812V0Z" fill="#25206B"/>
</g>
</g>
</g>
<path id="Vector_21" d="M58.8747 37.1227H36.2296V35.4751H58.8747V37.1227Z" fill="#6555BC"/>
<path id="Vector_22" d="M58.8747 32.9679H36.2296V31.3203H58.8747V32.9679Z" fill="#6555BC"/>
<path id="Vector_23" d="M58.8747 28.8146H36.2296V27.167H58.8747V28.8146Z" fill="#6555BC"/>
<path id="Vector_24" d="M58.8747 24.6615H36.2296V23.0139H58.8747V24.6615Z" fill="#6555BC"/>
<path id="Vector_25" d="M58.8747 20.5099H36.2296V18.8608H58.8747V20.5099Z" fill="#6555BC"/>
<path id="Vector_26" d="M58.8747 16.3566H36.2296V14.709H58.8747V16.3566Z" fill="#6555BC"/>
<path id="Vector_27" d="M58.8747 12.2035H36.2296V10.5559H58.8747V12.2035Z" fill="#6555BC"/>
<path id="Vector_28" d="M58.8747 8.05017H36.2296V6.40259H58.8747V8.05017Z" fill="#6555BC"/>
<path id="Vector_29" d="M120.454 125.695H119.271V94.1843H120.454V125.695Z" fill="#FFC200"/>
<path id="Vector_30" d="M117.47 125.695H116.286V94.1843H117.47V125.695Z" fill="#FFC200"/>
<path id="Vector_31" d="M114.485 125.695H113.301V94.1843H114.485V125.695Z" fill="#FFC200"/>
<path id="Vector_32" d="M111.501 125.695H110.317V94.1843H111.501V125.695Z" fill="#FFC200"/>
<path id="Vector_33" d="M108.516 125.695H107.332V94.1843H108.516V125.695Z" fill="#FFC200"/>
<path id="Vector_34" d="M105.532 125.695H104.348V94.1843H105.532V125.695Z" fill="#FFC200"/>
<path id="Vector_35" d="M102.547 125.695H101.363V94.1843H102.547V125.695Z" fill="#FFC200"/>
<path id="Vector_36" d="M99.5639 125.695H98.3789V94.1843H99.5639V125.695Z" fill="#FFC200"/>
</g>
</g>
</svg>
