<svg width="24" height="24" viewBox="0 0 24 24" fill="none" xmlns="http://www.w3.org/2000/svg">
<g id="Layer_1">
<path id="Vector" fill-rule="evenodd" clip-rule="evenodd" d="M19.7693 9.29188C19.6089 9.13149 19.398 9.03166 19.1723 9.0094C18.9466 8.98713 18.7202 9.04382 18.5316 9.16979C18.343 9.29576 18.2039 9.48322 18.1381 9.70023C18.0722 9.91724 18.0836 10.1504 18.1704 10.3599C18.2572 10.5694 18.4139 10.7424 18.6139 10.8493C18.8139 10.9562 19.0448 10.9905 19.2672 10.9462C19.4897 10.902 19.6899 10.782 19.8337 10.6067C19.9776 10.4314 20.0562 10.2116 20.0562 9.98484C20.0564 9.85612 20.0312 9.72864 19.9819 9.60972C19.9327 9.49081 19.8604 9.38279 19.7693 9.29188ZM19.0763 8.50771C19.418 8.50769 19.7492 8.62615 20.0134 8.84293C20.2775 9.05971 20.4584 9.36137 20.5251 9.69654C20.5917 10.0317 20.5402 10.3796 20.3791 10.681C20.218 10.9824 19.9574 11.2186 19.6417 11.3494C19.326 11.4802 18.9747 11.4975 18.6477 11.3983C18.3206 11.2991 18.0381 11.0896 17.8483 10.8055C17.6584 10.5213 17.5729 10.1802 17.6064 9.84006C17.6399 9.49997 17.7903 9.18202 18.0319 8.94037C18.1689 8.80299 18.3317 8.69405 18.5109 8.6198C18.6901 8.54555 18.8823 8.50746 19.0763 8.50771ZM18.9682 6.63201H18.52C18.4009 6.6324 18.2869 6.67986 18.2027 6.76403C18.1186 6.84819 18.0711 6.96223 18.0707 7.08126V7.31915C18.0417 7.32996 18.0134 7.34112 17.9858 7.35262C17.9581 7.36412 17.9303 7.37621 17.9024 7.3889L17.7342 7.22066C17.6497 7.13695 17.5355 7.08998 17.4166 7.08998C17.2976 7.08998 17.1834 7.13695 17.0989 7.22066L16.3122 8.00737C16.2285 8.09188 16.1815 8.20604 16.1815 8.32502C16.1815 8.44399 16.2285 8.55815 16.3122 8.64266L16.4804 8.8109C16.4677 8.83884 16.4556 8.86665 16.4441 8.89434C16.4326 8.92202 16.4215 8.95031 16.4107 8.97918H16.1728C16.0539 8.97982 15.94 9.02736 15.8559 9.11147C15.7717 9.19558 15.7242 9.30947 15.7235 9.42843V9.75726H13.7093C13.6577 9.75718 13.6074 9.7732 13.5654 9.8031L10.5088 11.5679V10.0059C10.5088 9.97326 10.5024 9.94095 10.4899 9.91081C10.4774 9.88067 10.4591 9.85328 10.436 9.83021C10.413 9.80714 10.3856 9.78884 10.3554 9.77636C10.3253 9.76387 10.293 9.75745 10.2603 9.75745H8.59043C8.46976 9.75693 8.35419 9.70876 8.26887 9.62344C8.18356 9.53811 8.1354 9.42253 8.1349 9.30187V2.10191C8.13542 1.98126 8.18357 1.86569 8.26889 1.78038C8.35421 1.69506 8.46977 1.6469 8.59043 1.64638H18.5126C18.6333 1.64689 18.7488 1.69504 18.8342 1.78036C18.9195 1.86568 18.9677 1.98125 18.9682 2.10191V6.63215V6.63201ZM18.5677 7.12888H19.5849V7.49624C19.5848 7.5532 19.6044 7.60843 19.6402 7.6527C19.6761 7.69696 19.726 7.72756 19.7817 7.73938C19.845 7.75929 19.9098 7.78304 19.9762 7.81063C20.0504 7.84138 20.1196 7.87393 20.1837 7.90827C20.2306 7.93324 20.2842 7.94251 20.3367 7.9347C20.3892 7.92689 20.4378 7.90243 20.4753 7.86491L20.7358 7.60565L21.4551 8.32495L21.1952 8.58482C21.155 8.62503 21.1298 8.67782 21.1238 8.73436C21.1178 8.79091 21.1314 8.84779 21.1624 8.89551C21.193 8.95432 21.2223 9.01727 21.2501 9.08437C21.2806 9.15793 21.3065 9.2296 21.3278 9.29938C21.3432 9.35019 21.3745 9.3947 21.4172 9.42634C21.4598 9.45798 21.5115 9.47508 21.5646 9.47512L21.9319 9.47606V10.4932H21.5646C21.5076 10.4932 21.4524 10.5128 21.4081 10.5487C21.3638 10.5846 21.3332 10.6346 21.3214 10.6904C21.3015 10.7535 21.2778 10.8183 21.2502 10.8847C21.2195 10.959 21.1869 11.0282 21.1526 11.0924C21.1276 11.1392 21.1183 11.1928 21.1261 11.2453C21.1339 11.2977 21.1584 11.3463 21.1959 11.3839L21.4552 11.6444L20.7359 12.3637L20.476 12.1038C20.4358 12.0636 20.383 12.0384 20.3265 12.0324C20.2699 12.0264 20.213 12.0401 20.1653 12.071C20.1065 12.1016 20.0436 12.1309 19.9765 12.1587C19.9029 12.1892 19.8313 12.2151 19.7614 12.2364C19.7106 12.2518 19.6661 12.2831 19.6345 12.3258C19.6028 12.3684 19.5857 12.4201 19.5857 12.4732L19.5848 12.8405H18.5676V12.4733C18.5676 12.4164 18.5481 12.3611 18.5122 12.3169C18.4764 12.2726 18.4264 12.242 18.3707 12.2302C18.3075 12.2103 18.2427 12.1865 18.1763 12.1589C18.1021 12.1282 18.0329 12.0956 17.9687 12.0613C17.9219 12.0363 17.8683 12.0271 17.8158 12.0349C17.7633 12.0427 17.7147 12.0671 17.6771 12.1046L17.4167 12.3639L16.6974 11.6446L16.9573 11.3848C16.9975 11.3445 17.0227 11.2918 17.0286 11.2352C17.0346 11.1787 17.021 11.1218 16.9901 11.0741C16.9594 11.0152 16.9302 10.9523 16.9023 10.8852C16.8718 10.8116 16.846 10.7399 16.8247 10.6701C16.8093 10.6193 16.7779 10.5748 16.7353 10.5432C16.6926 10.5116 16.641 10.4945 16.5879 10.4945L16.2206 10.4935V9.47629H16.5879C16.6448 9.47632 16.7001 9.45677 16.7443 9.42093C16.7886 9.38509 16.8192 9.33513 16.831 9.27942C16.8509 9.2162 16.8747 9.15137 16.9023 9.08493C16.9331 9.01071 16.9656 8.94154 16.9999 8.87741C17.0249 8.83058 17.0341 8.77697 17.0263 8.72448C17.0185 8.67199 16.9941 8.62339 16.9565 8.58585L16.6973 8.32537L17.4166 7.60607L17.6764 7.86595C17.7167 7.90615 17.7695 7.93135 17.826 7.93732C17.8826 7.94329 17.9395 7.92968 17.9872 7.89876C18.046 7.86807 18.1089 7.83881 18.176 7.81096C18.2496 7.78049 18.3213 7.75462 18.391 7.73334C18.4418 7.71793 18.4863 7.6866 18.518 7.64395C18.5496 7.60131 18.5667 7.54962 18.5667 7.49652L18.5677 7.12916V7.12888ZM15.7235 10.2541H13.7735L10.3834 12.2114C10.3458 12.233 10.3031 12.2442 10.2598 12.2441C10.2164 12.244 10.1739 12.2325 10.1364 12.2108C10.0988 12.1891 10.0677 12.1579 10.046 12.1204C10.0243 12.0829 10.0128 12.0403 10.0127 11.9969L10.0116 10.2541H8.59043C8.33798 10.2536 8.09603 10.153 7.91752 9.97451C7.73902 9.79599 7.63848 9.55404 7.63793 9.30159V2.10191C7.6385 1.84947 7.73903 1.60753 7.91754 1.42902C8.09604 1.25052 8.33798 1.14998 8.59043 1.14941H18.5126C18.7651 1.14997 19.007 1.2505 19.1855 1.42901C19.364 1.60751 19.4646 1.84946 19.4651 2.10191V6.63215H19.6325C19.7516 6.63256 19.8656 6.68002 19.9498 6.76418C20.0339 6.84834 20.0814 6.96238 20.0818 7.0814V7.31929C20.1107 7.3301 20.139 7.34124 20.1666 7.35271C20.1943 7.36418 20.2221 7.37629 20.2501 7.38904C20.3069 7.33218 20.3785 7.25071 20.4391 7.20224C20.5248 7.1269 20.636 7.08693 20.75 7.09041C20.8641 7.09389 20.9726 7.14057 21.0536 7.22099L21.8403 8.0077C21.924 8.09222 21.971 8.20638 21.971 8.32534C21.971 8.44431 21.924 8.55847 21.8403 8.64299L21.6721 8.81123C21.6848 8.8391 21.6969 8.86688 21.7084 8.89457C21.7198 8.92226 21.731 8.95057 21.7418 8.97951H21.9797C22.0987 8.9801 22.2126 9.02762 22.2967 9.11174C22.3808 9.19587 22.4284 9.30979 22.429 9.42876V10.5413C22.4284 10.6603 22.3809 10.7742 22.2967 10.8583C22.2126 10.9425 22.0987 10.99 21.9797 10.9906H21.7418C21.731 11.0195 21.7199 11.0477 21.7084 11.0753C21.697 11.103 21.6849 11.1308 21.6721 11.1589C21.7289 11.2156 21.8096 11.2866 21.8582 11.347C21.9339 11.4326 21.9742 11.5439 21.9708 11.6581C21.9674 11.7723 21.9205 11.881 21.8398 11.9619C21.6091 12.1929 21.2719 12.5747 21.0336 12.767C20.948 12.8427 20.8367 12.8829 20.7225 12.8795C20.6083 12.8761 20.4997 12.8293 20.4187 12.7486L20.25 12.5807C20.2221 12.5934 20.1944 12.6055 20.1667 12.6169C20.1391 12.6284 20.1107 12.6395 20.0817 12.6504V12.8883C20.0811 13.0072 20.0336 13.1211 19.9495 13.2053C19.8653 13.2894 19.7514 13.3369 19.6325 13.3376H18.52C18.401 13.337 18.2871 13.2894 18.2029 13.2053C18.1188 13.1212 18.0713 13.0072 18.0707 12.8883V12.6504C18.0418 12.6396 18.0135 12.6285 17.9859 12.617C17.9583 12.6055 17.9305 12.5934 17.9024 12.5807L17.7342 12.7489C17.6499 12.8327 17.5357 12.8797 17.4167 12.8797C17.2978 12.8796 17.1837 12.8324 17.0994 12.7484L16.3122 11.9624C16.2705 11.9207 16.2375 11.8712 16.2149 11.8167C16.1924 11.7622 16.1808 11.7038 16.1809 11.6449C16.1809 11.5859 16.1926 11.5276 16.2152 11.4731C16.2378 11.4187 16.271 11.3692 16.3127 11.3276L16.4804 11.1588C16.4677 11.1309 16.4556 11.1031 16.4441 11.0754C16.4327 11.0478 16.4215 11.0195 16.4107 10.9905H16.1728C16.0539 10.9899 15.9399 10.9424 15.8558 10.8583C15.7717 10.7742 15.7241 10.6602 15.7235 10.5412V10.2545V10.2541ZM11.8083 3.84337H17.3482C17.3808 3.84337 17.4131 3.83694 17.4433 3.82446C17.4734 3.81197 17.5008 3.79367 17.5239 3.7706C17.5469 3.74753 17.5652 3.72014 17.5777 3.69C17.5902 3.65986 17.5966 3.62756 17.5966 3.59493C17.5966 3.5623 17.5902 3.53 17.5777 3.49986C17.5652 3.46972 17.5469 3.44233 17.5239 3.41926C17.5008 3.39619 17.4734 3.37789 17.4433 3.3654C17.4131 3.35292 17.3808 3.34649 17.3482 3.34649H11.8083C11.7756 3.34649 11.7433 3.35292 11.7132 3.3654C11.683 3.37789 11.6557 3.39619 11.6326 3.41926C11.6095 3.44233 11.5912 3.46972 11.5787 3.49986C11.5662 3.53 11.5598 3.5623 11.5598 3.59493C11.5598 3.62756 11.5662 3.65986 11.5787 3.69C11.5912 3.72014 11.6095 3.74753 11.6326 3.7706C11.6557 3.79367 11.683 3.81197 11.7132 3.82446C11.7433 3.83694 11.7756 3.84337 11.8083 3.84337ZM9.61718 3.84337H10.7448C10.7774 3.84337 10.8097 3.83694 10.8398 3.82446C10.87 3.81197 10.8974 3.79367 10.9204 3.7706C10.9435 3.74753 10.9618 3.72014 10.9743 3.69C10.9868 3.65986 10.9932 3.62756 10.9932 3.59493C10.9932 3.5623 10.9868 3.53 10.9743 3.49986C10.9618 3.46972 10.9435 3.44233 10.9204 3.41926C10.8974 3.39619 10.87 3.37789 10.8398 3.3654C10.8097 3.35292 10.7774 3.34649 10.7448 3.34649H9.61718C9.58455 3.34649 9.55225 3.35292 9.5221 3.3654C9.49196 3.37789 9.46458 3.39619 9.44151 3.41926C9.41844 3.44233 9.40014 3.46972 9.38765 3.49986C9.37517 3.53 9.36874 3.5623 9.36874 3.59493C9.36874 3.62756 9.37517 3.65986 9.38765 3.69C9.40014 3.72014 9.41844 3.74753 9.44151 3.7706C9.46458 3.79367 9.49196 3.81197 9.5221 3.82446C9.55225 3.83694 9.58455 3.84337 9.61718 3.84337ZM9.61718 5.88674H17.3482C17.4141 5.88674 17.4773 5.86057 17.5239 5.81398C17.5704 5.76739 17.5966 5.7042 17.5966 5.63831C17.5966 5.57242 17.5704 5.50922 17.5239 5.46263C17.4773 5.41604 17.4141 5.38987 17.3482 5.38987H9.61718C9.55129 5.38987 9.4881 5.41604 9.44151 5.46263C9.39492 5.50922 9.36874 5.57242 9.36874 5.63831C9.36874 5.7042 9.39492 5.76739 9.44151 5.81398C9.4881 5.86057 9.55129 5.88674 9.61718 5.88674ZM9.61718 7.93007H15.5239C15.5898 7.93007 15.653 7.9039 15.6996 7.85731C15.7462 7.81071 15.7724 7.74752 15.7724 7.68163C15.7724 7.61574 15.7462 7.55255 15.6996 7.50596C15.653 7.45937 15.5898 7.4332 15.5239 7.4332H9.61718C9.55129 7.4332 9.4881 7.45937 9.44151 7.50596C9.39492 7.55255 9.36874 7.61574 9.36874 7.68163C9.36874 7.74752 9.39492 7.81071 9.44151 7.85731C9.4881 7.9039 9.55129 7.93007 9.61718 7.93007ZM5.34987 16.1634L7.88412 20.1684L8.25101 19.9544C8.30062 19.9232 8.35974 19.9106 8.41779 19.919L13.0473 20.5877C13.2807 20.6236 13.5187 20.6168 13.7496 20.5678C13.9866 20.5242 14.2108 20.4282 14.4059 20.2868C16.466 19.0975 18.523 17.8895 20.591 16.7157C20.77 16.6136 20.9013 16.4448 20.9564 16.2463C21.0115 16.0477 20.9858 15.8355 20.885 15.6557C20.836 15.5689 20.7702 15.4927 20.6915 15.4315C20.6128 15.3703 20.5227 15.3253 20.4265 15.2992C20.2219 15.2439 20.0039 15.2679 19.8163 15.3666L16.0429 17.3216C16.1018 17.8701 15.7845 18.3509 15.2894 18.5977C15.1488 18.6695 14.9951 18.7124 14.8376 18.7236C14.6801 18.7349 14.5219 18.7144 14.3725 18.6633L10.6476 17.4158C10.586 17.3944 10.5353 17.3496 10.5066 17.291C10.4778 17.2325 10.4733 17.165 10.494 17.1032C10.5147 17.0413 10.5589 16.9902 10.6171 16.9607C10.6753 16.9313 10.7427 16.926 10.8048 16.946L14.5298 18.1934C14.6176 18.2232 14.7105 18.2349 14.803 18.228C14.8955 18.2211 14.9856 18.1957 15.068 18.1533C15.2634 18.0493 15.4212 17.8867 15.5192 17.6882C15.5788 17.4939 15.5604 17.284 15.468 17.1029C15.3756 16.9219 15.2163 16.7839 15.0239 16.7182L9.92458 15.0103C9.51439 14.8663 9.06704 14.8686 8.65835 15.0168L5.34987 16.1634ZM5.5144 22.7346L1.60919 16.5631C1.57419 16.5075 1.56271 16.4402 1.57727 16.3761C1.59184 16.3121 1.63126 16.2564 1.68687 16.2214L4.11968 14.6819C4.14722 14.6645 4.1779 14.6528 4.20997 14.6473C4.24205 14.6418 4.27489 14.6427 4.30663 14.6499C4.33836 14.6571 4.36836 14.6705 4.39491 14.6893C4.42147 14.7081 4.44406 14.732 4.4614 14.7595L5.0779 15.7339L8.49705 14.5489C9.00869 14.3646 9.56814 14.3616 10.0817 14.5405L15.181 16.2482C15.4841 16.3495 15.7378 16.5615 15.8914 16.8417L19.5889 14.9259C19.8873 14.7701 20.2335 14.7329 20.5582 14.8216C20.7172 14.8649 20.866 14.9392 20.9961 15.0404C21.1261 15.1416 21.2347 15.2676 21.3157 15.4111C21.3982 15.5575 21.451 15.7188 21.471 15.8856C21.491 16.0525 21.4778 16.2216 21.4322 16.3834C21.3867 16.5451 21.3096 16.6963 21.2055 16.8282C21.1014 16.9601 20.9722 17.0701 20.8255 17.152L14.6627 20.7098C14.1672 21.0401 13.5655 21.1718 12.9773 21.0789L8.43283 20.4224L8.14943 20.5877L8.36669 20.9311C8.38403 20.9586 8.39578 20.9893 8.40126 21.0214C8.40675 21.0534 8.40586 21.0863 8.39865 21.118C8.39144 21.1497 8.37806 21.1797 8.35925 21.2063C8.34045 21.2328 8.3166 21.2554 8.28907 21.2728L5.85626 22.8123C5.80065 22.8473 5.73342 22.8588 5.66935 22.8442C5.60527 22.8297 5.5496 22.7902 5.51458 22.7346H5.5144ZM2.16096 16.5079L4.17523 15.2334L7.81544 20.9862L5.80094 22.2608L2.16096 16.5079Z" fill="#FFC200"/>
</g>
</svg>
