<svg width="24" height="25" viewBox="0 0 24 25" fill="none" xmlns="http://www.w3.org/2000/svg">
<g id="ei:check">
<path id="Vector" d="M12 20.6598C7.488 20.6598 3.84 17.0118 3.84 12.4998C3.84 7.98784 7.488 4.33984 12 4.33984C16.512 4.33984 20.16 7.98784 20.16 12.4998C20.16 17.0118 16.512 20.6598 12 20.6598ZM12 5.29984C8.016 5.29984 4.8 8.51584 4.8 12.4998C4.8 16.4838 8.016 19.6998 12 19.6998C15.984 19.6998 19.2 16.4838 19.2 12.4998C19.2 8.51584 15.984 5.29984 12 5.29984Z" fill="#6555BC"/>
<path id="Vector_2" d="M11.04 16.0522L6.86401 11.8762L7.53601 11.2042L11.04 14.7082L16.464 9.28418L17.136 9.95618L11.04 16.0522Z" fill="#6555BC"/>
</g>
</svg>
