<svg width="10" height="10" viewBox="0 0 10 10" fill="none" xmlns="http://www.w3.org/2000/svg">
<g id="Frame" clip-path="url(#clip0_1511_3796)">
<g id="Layer_3">
<g id="XMLID_27_">
<path id="Vector" d="M6.20013 6.0158C6.04628 6.00042 5.90782 6.03119 5.76936 6.07734C5.64628 5.80042 5.36936 5.60042 5.06167 5.56965C4.90782 5.55426 4.76936 5.58503 4.6309 5.63119C4.50782 5.35426 4.2309 5.15426 3.9232 5.12349C3.80013 5.10811 3.69244 5.12349 3.56936 5.15426V3.20042C3.56936 2.73888 3.21551 2.33888 2.78474 2.30811C2.53859 2.27734 2.29243 2.36965 2.10782 2.53888C1.9232 2.70811 1.81551 2.93888 1.81551 3.18503V5.95426L1.64628 5.72349C1.5232 5.50811 1.30782 5.38503 1.07705 5.35426C0.846281 5.32349 0.615512 5.36965 0.430896 5.50811C0.0462811 5.80042 -0.0460266 6.33888 0.246281 6.73888L1.4309 8.36965C1.60013 8.6158 1.7232 8.87734 1.78474 9.16965C1.87705 9.6158 2.27705 9.92349 2.7232 9.92349H6.0309C6.56936 9.92349 7.00013 9.49272 7.00013 8.95426V6.90811C7.00013 6.44657 6.64628 6.04657 6.20013 6.0158ZM6.38474 8.95426C6.38474 9.15426 6.2309 9.30811 6.0309 9.30811H2.7232C2.55397 9.30811 2.41551 9.20042 2.38474 9.03119C2.30782 8.66195 2.15397 8.30811 1.9232 8.00042L0.738589 6.36965C0.646281 6.24657 0.67705 6.07734 0.784743 6.00042C0.830896 5.96965 0.87705 5.95426 0.938589 5.95426H0.984743C1.06167 5.96965 1.1232 6.00042 1.15397 6.06195L1.87705 7.06195C1.95397 7.16965 2.09243 7.2158 2.21551 7.16965C2.33859 7.12349 2.4309 7.0158 2.4309 6.87734V3.16965C2.4309 3.09272 2.46167 3.03119 2.5232 2.96965C2.58474 2.92349 2.64628 2.89272 2.7232 2.90811C2.86167 2.92349 2.95397 3.04657 2.95397 3.20042V7.13888C2.95397 7.30811 3.09244 7.44657 3.26167 7.44657C3.4309 7.44657 3.56936 7.30811 3.56936 7.13888V6.00042C3.56936 5.92349 3.60013 5.86195 3.66167 5.80042C3.7232 5.75426 3.78474 5.72349 3.86167 5.73888C3.98474 5.75426 4.09244 5.87734 4.09244 6.0158V6.43119V7.13888C4.09244 7.30811 4.2309 7.44657 4.40013 7.44657C4.56936 7.44657 4.70782 7.30811 4.70782 7.13888V6.43119C4.70782 6.35426 4.73859 6.29272 4.80013 6.23119C4.86167 6.18503 4.9232 6.15426 5.00013 6.16965C5.1232 6.18503 5.2309 6.30811 5.2309 6.46195V6.87734V7.13888C5.2309 7.30811 5.36936 7.44657 5.53859 7.44657C5.70782 7.44657 5.84628 7.30811 5.84628 7.13888V6.87734C5.84628 6.80042 5.87705 6.73888 5.93859 6.67734C6.00013 6.63119 6.06167 6.60042 6.13859 6.6158C6.27705 6.63119 6.36936 6.75426 6.36936 6.90811V8.95426H6.38474Z" fill="#007100"/>
<path id="Vector_2" d="M9.83095 2.69253L9.09249 1.95407C8.96941 1.83099 8.7848 1.83099 8.66172 1.95407C8.53864 2.07715 8.53864 2.26176 8.66172 2.38484L8.8771 2.60023H7.40018V1.1233L7.61556 1.33869C7.73864 1.46176 7.92326 1.46176 8.04633 1.33869C8.16941 1.21561 8.16941 1.03099 8.04633 0.907918L7.30787 0.169456C7.24633 0.107918 7.16941 0.0771484 7.09249 0.0771484C7.01556 0.0771484 6.93864 0.107918 6.8771 0.169456L6.13864 0.907918C6.01556 1.03099 6.01556 1.21561 6.13864 1.33869C6.20018 1.40023 6.2771 1.43099 6.35403 1.43099C6.43095 1.43099 6.50787 1.40023 6.56941 1.33869L6.7848 1.1233V2.60023H5.30787L5.52326 2.38484C5.64633 2.26176 5.64633 2.07715 5.52326 1.95407C5.40018 1.83099 5.21556 1.83099 5.09249 1.95407L4.35403 2.69253C4.29249 2.75407 4.26172 2.83099 4.26172 2.90792C4.26172 2.98484 4.29249 3.06176 4.35403 3.1233L5.09249 3.86176C5.15403 3.9233 5.23095 3.95407 5.30787 3.95407C5.3848 3.95407 5.46172 3.9233 5.52326 3.86176C5.64633 3.73869 5.64633 3.55407 5.52326 3.43099L5.30787 3.21561H6.7848V4.69253L6.56941 4.47715C6.44633 4.35407 6.26172 4.35407 6.13864 4.47715C6.01556 4.60022 6.01556 4.78484 6.13864 4.90792L6.8771 5.64638C6.93864 5.70792 7.01556 5.73869 7.09249 5.73869C7.16941 5.73869 7.24633 5.70792 7.30787 5.64638L8.04633 4.90792C8.16941 4.78484 8.16941 4.60022 8.04633 4.47715C7.92326 4.35407 7.73864 4.35407 7.61556 4.47715L7.40018 4.69253V3.21561H8.8771L8.66172 3.43099C8.53864 3.55407 8.53864 3.73869 8.66172 3.86176C8.72326 3.9233 8.80018 3.95407 8.8771 3.95407C8.95403 3.95407 9.03095 3.9233 9.09249 3.86176L9.83095 3.1233C9.89249 3.06176 9.92326 2.98484 9.92326 2.90792C9.92326 2.83099 9.89249 2.75407 9.83095 2.69253Z" fill="#007100"/>
</g>
</g>
</g>
<defs>
<clipPath id="clip0_1511_3796">
<rect width="10" height="10" fill="white"/>
</clipPath>
</defs>
</svg>
