<svg width="117" height="116" viewBox="0 0 117 116" fill="none" xmlns="http://www.w3.org/2000/svg">
<g id="svg8">
<rect x="0.5" width="116" height="116" rx="58" fill="#FFC517" fill-opacity="0.39"/>
<g id="layer1">
<g id="g4582">
<g id="g5935">
<g id="Group">
<path id="path5860" d="M70.1296 20.7634C66.009 21.4847 58.8533 26.5311 48.6952 30.2353C33.9199 35.6231 23.4377 35.0845 23.4377 35.0845C18.3074 34.9019 15.6419 35.2234 15.502 39.0465C15.3621 42.8696 22.6215 69.8395 27.5192 83.8727C32.4169 97.9058 30.2377 99.7712 37.4105 101.11C43.6722 102.278 67.8639 98.9929 80.0665 93.9321C83.6686 92.9551 88.6241 90.0059 90.249 86.8125C91.3604 84.6284 89.0323 76.6671 87.2664 72.6603C80.6462 57.6329 75.8349 29.3661 73.8643 22.993C73.2485 21.0014 72.0026 20.4356 70.1296 20.7634Z" fill="#171D8F"/>
<path id="path5825" d="M79.6726 15.0093C75.4953 15.2321 67.7868 19.3853 57.2584 21.8465C41.9442 25.4265 31.602 23.6366 31.602 23.6366C26.5304 22.841 23.8456 22.8411 23.2489 26.6199C22.6523 30.3987 26.6301 58.0438 29.8123 72.5625C32.9945 87.0811 30.6076 88.6721 37.5686 90.8598C43.6453 92.7697 68.0563 92.4047 80.7771 88.8414C80.9932 88.6188 81.1595 88.4144 81.4231 88.175C81.9638 87.684 82.4784 87.1803 82.9682 86.6679C83.458 86.1555 83.9229 85.6343 84.3641 85.1075C84.8053 84.5806 85.2225 84.0482 85.6173 83.5139C86.0121 82.9796 86.3844 82.4433 86.7352 81.9084C87.4367 80.8386 88.0524 79.7748 88.5914 78.7444C89.1303 77.714 89.5926 76.7173 89.9873 75.7819C90.3819 74.8465 90.7092 73.9726 90.9779 73.1877C91.1696 72.6274 91.2988 72.1766 91.4343 71.7173C91.124 70.7117 90.8391 69.7926 90.4722 68.5848C85.6989 52.8728 84.3069 24.2332 83.1136 17.67C82.7406 15.619 81.5714 14.9081 79.6726 15.0093Z" fill="#FFC517"/>
<path id="path5901" d="M28.3262 65.1455C28.8275 67.8271 29.3289 70.3569 29.8123 72.5624C32.9944 87.081 30.6076 88.6719 37.5686 90.8596C43.6453 92.7694 68.0562 92.4048 80.777 88.8414C80.9931 88.6189 81.1596 88.4144 81.4233 88.175C81.964 87.684 82.4783 87.1802 82.9681 86.6678C83.4579 86.1554 83.9229 85.6341 84.3641 85.1072C84.8052 84.5804 85.2225 84.0482 85.6173 83.5139C86.0121 82.9795 86.3844 82.4433 86.7352 81.9084C87.4367 80.8387 88.0523 79.7747 88.5913 78.7443C88.6684 78.5968 88.7406 78.4517 88.8146 78.3056C81.7055 81.9859 71.6731 85.2463 58.6773 84.9463C41.9515 84.5602 32.9462 73.9881 28.3262 65.1455Z" fill="#FFC200"/>
<path id="path5828" d="M91.4345 71.7173C91.4345 71.7173 84.5058 76.5401 82.4175 77.7334C80.3292 78.9267 80.7772 88.8414 80.7772 88.8414C80.7772 88.8414 89.4133 83.6008 91.4345 71.7173Z" fill="#7738C7"/>
</g>
<path id="path5840" d="M34.0097 30.8191C34.0097 30.8191 44.9852 31.6173 53.566 29.6218C62.1468 27.6263 66.2143 25.2381 67.0125 26.1361C67.8107 27.0341 69.5069 31.2247 67.8107 32.1227C66.1145 33.0207 61.7477 35.4089 49.8742 36.5064C38.0008 37.604 36.3046 38.0031 33.6106 36.8057C30.9166 35.6084 31.0164 30.8191 34.0097 30.8191Z" fill="#7738C7"/>
<path id="path5842" d="M37.2565 44.6135C37.2565 44.6135 45.6839 42.5067 46.4213 43.9815C47.1587 45.4563 48.9495 51.9875 47.0533 52.5142C45.1572 53.0409 40.1008 53.6729 38.5206 53.5676C36.9405 53.4622 35.1497 45.1402 37.2565 44.6135Z" fill="white"/>
<path id="path5844" d="M50.7958 43.2777C51.3281 43.2777 64.3702 39.8176 68.9837 39.1078C73.5972 38.398 76.7911 36.5349 76.8798 38.3093C76.9686 40.0837 74.1295 40.7935 71.113 41.2371C68.0964 41.6807 53.6349 44.8747 51.9492 45.3183C50.2635 45.7619 48.4891 44.0762 50.7958 43.2777Z" fill="#FF4B3D"/>
<path id="path5846" d="M52.1269 49.3108C52.6592 49.3108 57.3614 47.8913 61.9749 47.1815C66.5884 46.4718 69.7824 44.6086 69.8711 46.383C69.9598 48.1575 67.1208 48.8672 64.1042 49.3108C61.0877 49.7545 54.9659 50.9078 53.2802 51.3514C51.5945 51.795 49.8201 50.1093 52.1269 49.3108Z" fill="white"/>
<path id="path5848" d="M40.5485 59.5803C40.5485 59.5803 48.9759 57.4735 49.7133 58.9483C50.4507 60.4231 52.2415 66.9543 50.3453 67.481C48.4492 68.0077 43.3928 68.6397 41.8126 68.5344C40.2325 68.429 38.4417 60.107 40.5485 59.5803Z" fill="white"/>
<path id="path5850" d="M54.0883 58.244C54.6206 58.244 67.6626 54.7839 72.2761 54.0741C76.8896 53.3643 80.0836 51.5012 80.1723 53.2756C80.261 55.05 77.422 55.7598 74.4054 56.2034C71.3889 56.647 56.9274 59.841 55.2417 60.2846C53.556 60.7282 51.7815 59.0425 54.0883 58.244Z" fill="#FF4B3D"/>
<path id="path5852" d="M55.4189 64.2776C55.9512 64.2776 60.6534 62.8581 65.2669 62.1483C69.8804 61.4386 73.0744 59.5754 73.1631 61.3498C73.2518 63.1243 70.4127 63.834 67.3962 64.2776C64.3797 64.7213 58.2579 65.8746 56.5722 66.3182C54.8865 66.7618 53.1121 65.0761 55.4189 64.2776Z" fill="white"/>
<path id="path5854" d="M43.6418 74.447C43.6418 74.447 52.0691 72.3402 52.8065 73.815C53.5439 75.2898 55.3347 81.821 53.4386 82.3477C51.5424 82.8744 46.486 83.5064 44.9059 83.4011C43.3258 83.2957 41.5349 74.9737 43.6418 74.447Z" fill="white"/>
<path id="path5856" d="M57.1816 73.1112C57.7139 73.1112 70.7559 69.6511 75.3694 68.9413C79.9829 68.2315 83.1769 66.3684 83.2656 68.1428C83.3543 69.9172 80.5152 70.627 77.4987 71.0706C74.4822 71.5142 60.0206 74.7082 58.3349 75.1518C56.6492 75.5954 54.8748 73.9097 57.1816 73.1112Z" fill="#FF4B3D"/>
<path id="path5858" d="M58.5121 79.1443C59.0445 79.1443 63.7467 77.7248 68.3602 77.015C72.9737 76.3053 76.1676 74.4421 76.2564 76.2165C76.3451 77.991 73.506 78.7007 70.4895 79.1443C67.473 79.588 61.3512 80.7413 59.6655 81.1849C57.9798 81.6285 56.2054 79.9428 58.5121 79.1443Z" fill="white"/>
<path id="path5877" d="M88.4486 15.0093C86.6899 15.0092 84.9483 15.3556 83.3234 16.0286C81.6985 16.7017 80.2221 17.6881 78.9784 18.9318C77.7348 20.1754 76.7483 21.6518 76.0752 23.2766C75.4021 24.9015 75.0557 26.6431 75.0557 28.4018C75.0556 30.1606 75.402 31.9022 76.0751 33.5272C76.7481 35.1521 77.7346 36.6285 78.9783 37.8722C80.222 39.1158 81.6984 40.1024 83.3233 40.7754C84.9483 41.4485 86.6898 41.7948 88.4486 41.7948C88.5466 41.7946 88.6445 41.7933 88.7425 41.791C88.7317 43.432 88.2434 45.782 85.9436 47.6346C82.0023 50.8096 90.8155 47.2514 93.2788 43.8028C94.1611 42.5675 94.5966 41.3069 94.7978 40.1941C96.9271 39.0476 98.7063 37.3459 99.9464 35.2697C101.186 33.1935 101.841 30.8202 101.841 28.4018C101.841 24.8499 100.43 21.4435 97.9186 18.9319C95.407 16.4203 92.0006 15.0093 88.4486 15.0093Z" fill="#7738C7"/>
<path id="path5602" d="M84.1533 26.7709C84.1533 26.7709 82.6775 22.6998 86.596 20.2571C90.5144 17.8144 96.3158 21.682 95.1454 26.262C93.9749 30.8421 90.5144 29.977 89.4458 32.9285C88.3771 35.8801 87.4102 35.0659 87.1557 33.8446C86.9013 32.6232 88.1735 29.519 91.8376 27.6869C95.5016 25.8549 91.5322 20.7151 88.6315 22.6998C85.7308 24.6845 87.9972 25.6934 87.2575 26.9745C86.4257 28.4153 84.5095 28.0432 84.1533 26.7709Z" fill="white"/>
<path id="path6167" d="M76.7686 35.1206C77.947 37.1346 79.6322 38.8051 81.6564 39.966C83.6807 41.1268 85.9735 41.7376 88.307 41.7375C88.4048 41.7373 88.5025 41.7359 88.6002 41.7335C88.5895 43.3715 88.1021 45.7173 85.8065 47.5665C81.8724 50.7356 90.6695 47.1842 93.1283 43.7418C94.0091 42.5088 94.4437 41.2506 94.6445 40.1398C96.5153 39.1324 98.119 37.6937 99.3227 35.9428C97.4045 36.4806 95.1139 36.9332 92.3761 37.2491C83.8061 38.238 79.2193 36.8128 76.7686 35.1206Z" fill="#171D8F"/>
<path id="path5604" d="M88.7275 37.6248C88.7275 38.2993 87.9828 38.6842 87.3083 38.6842C86.6337 38.6842 86.0869 38.1374 86.0869 37.4629C86.0869 36.7883 86.6337 36.0796 87.3083 36.0796C87.9828 36.0796 88.7275 36.9503 88.7275 37.6248Z" fill="white"/>
</g>
</g>
</g>
</g>
</svg>
