<svg width="203" height="203" viewBox="0 0 203 203" fill="none" xmlns="http://www.w3.org/2000/svg">
<g id="svg8">
<g id="layer1">
<g id="g4582">
<g id="g6438">
<path id="rect6260" d="M59.1575 80.5733C47.2392 80.5269 35.469 81.0229 23.8841 82.199C17.1943 82.8782 12.4654 87.6502 11.7465 94.3358C9.85235 111.951 8.94336 129.402 11.7465 146.234C12.851 152.867 17.2095 157.557 23.8841 158.372C33.6531 159.564 43.4531 160.281 53.2865 160.507C53.0489 167.356 51.164 182.684 39.2651 187.669C23.7794 194.156 41.9859 195.411 55.1696 187.25C65.0287 181.147 71.7251 166.974 74.477 160.211C81.4069 159.856 88.3529 159.252 95.3178 158.372C101.989 157.528 106.071 152.814 107.455 146.234C110.841 130.144 109.526 112.374 107.455 94.3358C106.689 87.6555 102.02 82.7444 95.3178 82.199C83.1419 81.2082 71.0758 80.6196 59.1575 80.5733Z" fill="#7738C7"/>
<path id="path6403" d="M29.116 97.0563C29.116 97.0563 25.977 96.8471 25.0353 102.079C24.0936 107.31 23.7797 111.391 26.7094 112.751C29.6392 114.111 86.4548 115.053 89.1752 112.542C91.8957 110.031 91.791 98.4166 86.1409 98.6258C80.4907 98.8351 29.116 97.0563 29.116 97.0563Z" fill="#171D8F"/>
<path id="path6257" d="M132.907 9.89648C125.042 9.89641 117.254 11.4455 109.988 14.4552C102.721 17.465 96.1191 21.8765 90.5576 27.4379C84.9962 32.9993 80.5846 39.6016 77.5747 46.8679C74.5649 54.1342 73.0157 61.9222 73.0157 69.7873C73.0157 84.1084 78.1474 97.9555 87.4805 108.818C96.8135 119.68 109.73 126.839 123.888 128.995C143.966 150.593 183.764 147.629 185.785 143.081C188.047 137.992 183.24 142.516 167.97 133.467C164.214 131.242 161.487 127.629 159.506 123.448C169.503 118.492 177.917 110.843 183.799 101.362C189.681 91.8806 192.798 80.9448 192.798 69.7873C192.798 53.9033 186.488 38.6698 175.256 27.4382C164.025 16.2065 148.791 9.89654 132.907 9.89648Z" fill="#FFC517"/>
<path id="path26249" d="M124.904 48.1508C124.904 48.1508 116.596 61.7064 107.705 51.2117C98.8135 40.7171 134.233 9.52466 150.704 34.8867C167.174 60.2488 139.189 66.2671 136.565 80.5515C133.941 94.8359 142.104 98.4798 131.464 98.3341C120.823 98.1883 123.657 76.2116 136.338 64.4051C149.019 52.5986 141.667 31.3885 124.904 48.1508Z" fill="white"/>
<path id="path7851" d="M77.0464 91.3862C80.8505 101.225 87.1856 109.884 95.4108 116.488C103.636 123.092 113.46 127.407 123.888 128.996C143.966 150.594 183.764 147.629 185.785 143.082C188.047 137.992 183.24 142.516 167.97 133.468C164.214 131.242 161.487 127.629 159.506 123.448C172.455 117.029 182.646 106.145 188.199 92.802C181.359 95.7877 173.117 98.6781 163.163 101.345C119.439 113.061 91.4158 101.234 77.0464 91.3862Z" fill="#FFAC17"/>
<path id="path26251" d="M140.192 109.08C140.192 110.364 139.366 111.596 137.896 112.505C136.426 113.413 134.433 113.924 132.354 113.924C130.275 113.924 128.282 113.413 126.812 112.505C125.342 111.596 124.516 110.364 124.516 109.08C124.516 108.443 124.719 107.813 125.113 107.226C125.507 106.638 126.084 106.104 126.812 105.654C127.54 105.204 128.404 104.848 129.355 104.604C130.305 104.361 131.325 104.235 132.354 104.235C134.433 104.235 136.426 104.746 137.896 105.654C139.366 106.563 140.192 107.795 140.192 109.08Z" fill="white"/>
<path id="path6405" d="M30.1274 122.473C30.1274 122.473 27.4639 123.805 27.3159 128.688C27.1679 133.571 31.4591 132.387 40.7814 132.683C50.1037 132.979 92.72 135.051 95.2355 131.795C97.7511 128.54 97.8991 124.544 87.8369 124.544C77.7747 124.544 34.7145 120.549 30.1274 122.473Z" fill="white"/>
<path id="path6407" d="M30.1274 140.673C34.8625 140.377 71.2639 139.489 72.2997 142.449C73.3355 145.408 73.4835 148.664 66.2328 147.776C58.9821 146.888 33.9747 146.888 30.7193 146.444C27.4639 146 27.1679 140.969 30.1274 140.673Z" fill="white"/>
<g id="Group">
<path id="path6415" d="M46.0851 23.1886C46.0851 23.1886 37.0115 29.7357 34.0864 20.5084C31.1612 11.281 67.0159 1.34782 70.8277 22.2858C74.6395 43.2238 54.8345 39.5366 49.2544 48.0997C43.6742 56.6628 43.5944 60.5359 36.7249 57.5536C29.8554 54.5712 37.6599 41.0705 49.0981 36.8458C60.5362 32.6211 61.5182 16.8536 46.0851 23.1886Z" fill="#FF4B3D"/>
<path id="path6417" d="M39.1045 71.0133C37.7099 74.3499 33.5584 75.7335 30.2381 74.3458C26.9178 72.958 25.6132 68.5292 27.0805 65.9878C28.1926 64.0616 31.3162 60.4735 35.8286 62.3595C40.1734 64.1754 39.9621 68.9612 39.1045 71.0133Z" fill="#FF4B3D"/>
<path id="path6423" d="M122.565 152.7C122.565 152.7 123.698 163.831 114.244 161.751C104.79 159.67 114.115 123.653 134.154 130.821C154.193 137.988 141.097 153.296 145.723 162.411C150.349 171.525 153.663 173.53 147.646 177.988C141.628 182.446 133.838 168.937 135.899 156.919C137.959 144.901 124.795 136.167 122.565 152.7Z" fill="#FF4B3D"/>
<path id="path6425" d="M160.492 182.657C162.684 185.533 161.807 189.82 158.945 192.002C156.083 194.184 151.595 193.099 150.128 190.558C149.016 188.631 147.47 184.132 151.36 181.167C155.105 178.313 159.144 180.888 160.492 182.657Z" fill="#FF4B3D"/>
</g>
<path id="path7856" d="M11.8731 146.745C13.178 152.953 17.4418 157.302 23.84 158.083C33.5912 159.272 43.3737 159.989 53.1892 160.214C52.952 167.051 51.0708 182.351 39.1935 187.327C23.736 193.802 41.9091 195.055 55.0689 186.908C64.91 180.816 71.5941 166.669 74.341 159.919C79.4144 159.659 84.4967 159.264 89.5885 158.726C89.5532 158.569 89.5189 158.4 89.4818 158.26C87.2824 149.962 71.1866 157.36 46.6928 155.761C27.8171 154.528 16.2164 149.152 11.8731 146.745Z" fill="#171D8F"/>
</g>
</g>
</g>
</g>
</svg>
