<svg width="24" height="24" viewBox="0 0 24 24" fill="none" xmlns="http://www.w3.org/2000/svg">
<g id="Layer_1" clip-path="url(#clip0_3153_2983)">
<path id="Vector" d="M3.74161 21.0788C3.74161 21.1658 3.70704 21.2493 3.6455 21.3108C3.58397 21.3724 3.50051 21.4069 3.41348 21.4069H2.52056C2.43354 21.4069 2.35008 21.3724 2.28854 21.3108C2.22701 21.2493 2.19244 21.1658 2.19244 21.0788C2.19244 20.9918 2.22701 20.9083 2.28854 20.8468C2.35008 20.7852 2.43354 20.7507 2.52056 20.7507H3.41339C3.45649 20.7507 3.49917 20.7591 3.53899 20.7756C3.57881 20.7921 3.61499 20.8163 3.64547 20.8467C3.67595 20.8772 3.70013 20.9134 3.71662 20.9532C3.73312 20.993 3.74161 21.0357 3.74161 21.0788ZM3.41348 18.8227H2.52056C2.43354 18.8227 2.35008 18.8573 2.28854 18.9188C2.22701 18.9803 2.19244 19.0638 2.19244 19.1508C2.19244 19.2379 2.22701 19.3213 2.28854 19.3828C2.35008 19.4444 2.43354 19.479 2.52056 19.479H3.41339C3.50041 19.479 3.58387 19.4444 3.64541 19.3828C3.70694 19.3213 3.74152 19.2379 3.74152 19.1508C3.74152 19.0638 3.70694 18.9803 3.64541 18.9188C3.58387 18.8573 3.50041 18.8227 3.41339 18.8227H3.41348ZM13.4356 13.0403H4.70489C4.61787 13.0403 4.53441 13.0749 4.47287 13.1364C4.41134 13.1979 4.37677 13.2814 4.37677 13.3684C4.37677 13.4554 4.41134 13.5389 4.47287 13.6004C4.53441 13.662 4.61787 13.6965 4.70489 13.6965H13.4356C13.5226 13.6965 13.6061 13.662 13.6676 13.6004C13.7291 13.5389 13.7637 13.4554 13.7637 13.3684C13.7637 13.2814 13.7291 13.1979 13.6676 13.1364C13.6061 13.0749 13.5226 13.0403 13.4356 13.0403ZM14.549 11.1124H4.70489C4.61787 11.1124 4.53441 11.147 4.47287 11.2085C4.41134 11.2701 4.37677 11.3535 4.37677 11.4405C4.37677 11.5276 4.41134 11.611 4.47287 11.6726C4.53441 11.7341 4.61787 11.7687 4.70489 11.7687H14.549C14.636 11.7687 14.7195 11.7341 14.781 11.6726C14.8425 11.611 14.8771 11.5276 14.8771 11.4405C14.8771 11.3535 14.8425 11.2701 14.781 11.2085C14.7195 11.147 14.636 11.1124 14.549 11.1124ZM3.41339 16.8961H2.52056C2.43354 16.8961 2.35008 16.9307 2.28854 16.9922C2.22701 17.0538 2.19244 17.1372 2.19244 17.2243C2.19244 17.3113 2.22701 17.3948 2.28854 17.4563C2.35008 17.5178 2.43354 17.5524 2.52056 17.5524H3.41339C3.50041 17.5524 3.58387 17.5178 3.64541 17.4563C3.70694 17.3948 3.74152 17.3113 3.74152 17.2243C3.74152 17.1372 3.70694 17.0538 3.64541 16.9922C3.58387 16.9307 3.50041 16.8961 3.41339 16.8961ZM3.41339 13.0403H2.52056C2.43354 13.0403 2.35008 13.0749 2.28854 13.1364C2.22701 13.1979 2.19244 13.2814 2.19244 13.3684C2.19244 13.4554 2.22701 13.5389 2.28854 13.6004C2.35008 13.662 2.43354 13.6965 2.52056 13.6965H3.41339C3.50041 13.6965 3.58387 13.662 3.64541 13.6004C3.70694 13.5389 3.74152 13.4554 3.74152 13.3684C3.74152 13.2814 3.70694 13.1979 3.64541 13.1364C3.58387 13.0749 3.50041 13.0403 3.41339 13.0403ZM11.3203 16.8961H4.70489C4.61787 16.8961 4.53441 16.9307 4.47287 16.9922C4.41134 17.0538 4.37677 17.1372 4.37677 17.2243C4.37677 17.3113 4.41134 17.3948 4.47287 17.4563C4.53441 17.5178 4.61787 17.5524 4.70489 17.5524H11.3203C11.4073 17.5524 11.4908 17.5178 11.5523 17.4563C11.6139 17.3948 11.6484 17.3113 11.6484 17.2243C11.6484 17.1372 11.6139 17.0538 11.5523 16.9922C11.4908 16.9307 11.4073 16.8961 11.3203 16.8961ZM12.6516 15.2964C12.6516 15.2094 12.617 15.1259 12.5555 15.0644C12.4939 15.0028 12.4105 14.9683 12.3234 14.9683H4.70489C4.61787 14.9683 4.53441 15.0028 4.47287 15.0644C4.41134 15.1259 4.37677 15.2094 4.37677 15.2964C4.37677 15.3834 4.41134 15.4669 4.47287 15.5284C4.53441 15.5899 4.61787 15.6245 4.70489 15.6245H12.3234C12.4105 15.6245 12.4939 15.5899 12.5555 15.5284C12.617 15.4669 12.6516 15.3834 12.6516 15.2964ZM11.194 18.8227H4.70489C4.61787 18.8227 4.53441 18.8573 4.47287 18.9188C4.41134 18.9803 4.37677 19.0638 4.37677 19.1508C4.37677 19.2379 4.41134 19.3213 4.47287 19.3828C4.53441 19.4444 4.61787 19.479 4.70489 19.479H11.1941C11.2811 19.479 11.3646 19.4444 11.4261 19.3828C11.4876 19.3213 11.5222 19.2379 11.5222 19.1508C11.5222 19.0638 11.4876 18.9803 11.4261 18.9188C11.3646 18.8573 11.2811 18.8227 11.1941 18.8227H11.194ZM3.41339 14.9682H2.52056C2.43354 14.9682 2.35008 15.0028 2.28854 15.0643C2.22701 15.1259 2.19244 15.2093 2.19244 15.2963C2.19244 15.3834 2.22701 15.4668 2.28854 15.5284C2.35008 15.5899 2.43354 15.6245 2.52056 15.6245H3.41339C3.50041 15.6245 3.58387 15.5899 3.64541 15.5284C3.70694 15.4668 3.74152 15.3834 3.74152 15.2963C3.74152 15.2093 3.70694 15.1259 3.64541 15.0643C3.58387 15.0028 3.50041 14.9682 3.41339 14.9682ZM3.41339 11.1124H2.52056C2.43354 11.1124 2.35008 11.147 2.28854 11.2085C2.22701 11.2701 2.19244 11.3535 2.19244 11.4405C2.19244 11.5276 2.22701 11.611 2.28854 11.6726C2.35008 11.7341 2.43354 11.7687 2.52056 11.7687H3.41339C3.50041 11.7687 3.58387 11.7341 3.64541 11.6726C3.70694 11.611 3.74152 11.5276 3.74152 11.4405C3.74152 11.3535 3.70694 11.2701 3.64541 11.2085C3.58387 11.147 3.50041 11.1124 3.41339 11.1124ZM11.0665 20.7506H4.70489C4.61787 20.7506 4.53441 20.7852 4.47287 20.8467C4.41134 20.9083 4.37677 20.9917 4.37677 21.0788C4.37677 21.1658 4.41134 21.2492 4.47287 21.3108C4.53441 21.3723 4.61787 21.4069 4.70489 21.4069H11.0665C11.1536 21.4069 11.237 21.3723 11.2985 21.3108C11.3601 21.2492 11.3947 21.1658 11.3947 21.0788C11.3947 20.9917 11.3601 20.9083 11.2985 20.8467C11.237 20.7852 11.1536 20.7506 11.0665 20.7506ZM23.7365 6.01519L23.0235 7.25016C23.0212 7.25484 23.0191 7.25953 23.0165 7.26394C23.0145 7.26731 23.0121 7.27027 23.01 7.27355L18.1577 15.6787V22.8898C18.1574 23.1593 18.0502 23.4176 17.8596 23.6082C17.6691 23.7987 17.4107 23.9059 17.1412 23.9062H1.0178C0.748133 23.9061 0.489538 23.799 0.298734 23.6084C0.10793 23.4179 0.000496463 23.1594 0 22.8898L0 1.11023C0.000484086 0.840567 0.107913 0.582103 0.29872 0.391542C0.489527 0.200982 0.748129 0.0938861 1.0178 0.09375H17.1412C17.4107 0.0940602 17.6691 0.201253 17.8596 0.391814C18.0502 0.582375 18.1574 0.840741 18.1577 1.11023V7.80211L20.3262 4.04587C20.588 3.59444 21.018 3.26514 21.522 3.13005C22.0261 2.99496 22.5632 3.06511 23.0156 3.32512H23.016C23.4673 3.58719 23.7964 4.0173 23.9314 4.52138C24.0664 5.02545 23.9963 5.56248 23.7364 6.015L23.7365 6.01519ZM17.5013 16.8156L16.0675 19.2991C16.0424 19.3426 16.0076 19.3798 15.9658 19.4078L12.8793 21.4725C12.8284 21.5065 12.7689 21.5257 12.7076 21.5277C12.6464 21.5297 12.5858 21.5146 12.5327 21.4839C12.4797 21.4533 12.4362 21.4084 12.4073 21.3543C12.3785 21.3003 12.3653 21.2392 12.3694 21.1781L12.6138 17.4725C12.6172 17.4223 12.632 17.3735 12.6571 17.33L17.5013 8.93906V1.11023C17.5012 1.01473 17.4633 0.923157 17.3958 0.855615C17.3283 0.788073 17.2367 0.750087 17.1412 0.75H1.0178C0.922086 0.749838 0.83023 0.787698 0.76243 0.855252C0.694629 0.922806 0.656436 1.01452 0.65625 1.11023V22.8898C0.656436 22.9855 0.694629 23.0772 0.76243 23.1447C0.83023 23.2123 0.922086 23.2502 1.0178 23.25H17.1412C17.2367 23.2499 17.3282 23.212 17.3957 23.1445C17.4632 23.077 17.5012 22.9854 17.5013 22.89V16.8156ZM13.0681 20.5562L15.1625 19.1553L13.2341 18.0412L13.0681 20.5562ZM22.2833 7.21941L20.0099 5.90691L18.1202 9.18009C18.1171 9.18605 18.1136 9.19177 18.1102 9.19748L13.3899 17.3734L15.6634 18.6867L22.2833 7.21941ZM23.2975 4.69144C23.2309 4.44044 23.0913 4.21487 22.8963 4.04337C22.7013 3.87187 22.4597 3.76216 22.2023 3.72816C21.9448 3.69416 21.6831 3.73741 21.4503 3.85241C21.2174 3.96741 21.024 4.14898 20.8945 4.37409L20.3379 5.33822L22.6113 6.65072L23.1681 5.68636C23.2544 5.53737 23.3103 5.37273 23.3325 5.20197C23.3547 5.03122 23.3429 4.85775 23.2975 4.69162V4.69144ZM3.37219 4.48505C3.37222 4.41714 3.39331 4.35091 3.43257 4.2955C3.47183 4.24008 3.52732 4.19822 3.59137 4.17567L8.96986 2.28211C9.04038 2.25728 9.11726 2.25728 9.18778 2.28211L14.5676 4.17548C14.6278 4.19671 14.6804 4.23502 14.7192 4.28573C14.7579 4.33644 14.781 4.39735 14.7857 4.46099C14.7904 4.52464 14.7764 4.58826 14.7454 4.64407C14.7145 4.69987 14.6679 4.74545 14.6115 4.7752V6.59892C14.6115 6.68595 14.5769 6.76941 14.5153 6.83094C14.4538 6.89248 14.3704 6.92705 14.2833 6.92705C14.1963 6.92705 14.1128 6.89248 14.0513 6.83094C13.9898 6.76941 13.9552 6.68595 13.9552 6.59892V5.01019L12.8405 5.40248V8.04717C12.8405 9.30811 10.3765 9.64467 8.92064 9.64467C8.01014 9.64467 7.16958 9.52884 6.55378 9.31861C5.53191 8.96981 5.31755 8.43464 5.31755 8.04717V5.4022L3.59137 4.79461C3.52729 4.77205 3.47178 4.73016 3.43252 4.67471C3.39326 4.61926 3.37218 4.55299 3.37219 4.48505ZM12.1839 5.63348L9.18778 6.68794C9.11726 6.71276 9.04038 6.71276 8.96986 6.68794L5.9738 5.63325V8.04731C5.9738 8.37787 6.46997 8.59659 6.7657 8.69761C7.31498 8.88511 8.08027 8.98823 8.9205 8.98823C10.7883 8.98823 12.1839 8.49136 12.1839 8.04717V5.63348ZM4.68862 4.48505L5.73862 4.85475C5.74997 4.85806 5.76113 4.86199 5.77205 4.86652L9.07856 6.03047L12.382 4.86797C12.3949 4.86245 12.4081 4.85775 12.4216 4.85391L13.4698 4.485L9.07856 2.93953L4.68862 4.48505Z" fill="#403685"/>
</g>
<defs>
<clipPath id="clip0_3153_2983">
<rect width="24" height="24" fill="white"/>
</clipPath>
</defs>
</svg>
