<svg width="41" height="40" viewBox="0 0 41 40" fill="none" xmlns="http://www.w3.org/2000/svg">
<g id="icons" clip-path="url(#clip0_1299_30244)">
<path id="Vector" d="M21.8667 18.6667H19.1333C17.8652 18.6683 16.6495 19.1605 15.7528 20.0353C14.8561 20.9102 14.3516 22.0962 14.35 23.3334V26.6667C14.3505 27.0864 14.4861 27.4952 14.7375 27.8356C14.989 28.1761 15.3437 28.4309 15.7515 28.5641C15.8505 29.3446 16.1496 30.0882 16.6213 30.7259C17.093 31.3637 17.722 31.8751 18.45 32.2127V32.7267C17.4957 32.8849 16.6294 33.3671 16.0042 34.0881C15.379 34.809 15.0351 35.7224 15.0333 36.6667V38.0001C15.0333 38.5305 15.2493 39.0392 15.6338 39.4143C16.0182 39.7894 16.5396 40.0001 17.0833 40.0001H23.9167C24.4604 40.0001 24.9818 39.7894 25.3662 39.4143C25.7507 39.0392 25.9667 38.5305 25.9667 38.0001V36.6667C25.9649 35.7224 25.621 34.809 24.9958 34.0881C24.3706 33.3671 23.5043 32.8849 22.55 32.7267V32.2127C23.278 31.8751 23.907 31.3637 24.3787 30.7259C24.8504 30.0882 25.1495 29.3446 25.2485 28.5641C25.6563 28.4309 26.011 28.1761 26.2625 27.8356C26.5139 27.4952 26.6495 27.0864 26.65 26.6667V23.3334C26.6484 22.0962 26.1439 20.9102 25.2472 20.0353C24.3505 19.1605 23.1348 18.6683 21.8667 18.6667ZM24.6 36.6667V38.0001C24.6 38.1769 24.528 38.3465 24.3999 38.4715C24.2717 38.5965 24.0979 38.6667 23.9167 38.6667H17.0833C16.9021 38.6667 16.7283 38.5965 16.6001 38.4715C16.472 38.3465 16.4 38.1769 16.4 38.0001V36.6667C16.4006 36.0522 16.6185 35.4567 17.0168 34.9806C17.4152 34.5045 17.9696 34.1771 18.5867 34.0534C18.686 34.3113 18.8418 34.5449 19.0431 34.7381C19.2321 34.9283 19.4586 35.0791 19.709 35.1815C19.9594 35.2838 20.2285 35.3355 20.5 35.3334C20.9131 35.3324 21.3162 35.2096 21.6565 34.9812C21.9968 34.7528 22.2585 34.4294 22.4072 34.0534C23.0254 34.1757 23.5813 34.5027 23.9809 34.9789C24.3805 35.4551 24.5992 36.0513 24.6 36.6667ZM21.1833 33.3334C21.1833 33.5102 21.1113 33.6798 20.9832 33.8048C20.855 33.9298 20.6812 34.0001 20.5 34.0001C20.4088 34.0003 20.3185 33.9822 20.2347 33.947C20.1509 33.9118 20.0754 33.8602 20.0128 33.7954C19.95 33.7352 19.9002 33.6633 19.8665 33.5839C19.8328 33.5045 19.8159 33.4193 19.8167 33.3334V32.6141C20.2694 32.6843 20.7306 32.6843 21.1833 32.6141V33.3334ZM25.2833 26.6667C25.2833 26.8436 25.2113 27.0131 25.0832 27.1382C24.955 27.2632 24.7812 27.3334 24.6 27.3334C24.4188 27.3334 24.245 27.4037 24.1168 27.5287C23.9887 27.6537 23.9167 27.8233 23.9167 28.0001C23.9167 28.8841 23.5567 29.732 22.9159 30.3571C22.2752 30.9822 21.4062 31.3334 20.5 31.3334C19.5938 31.3334 18.7248 30.9822 18.0841 30.3571C17.4433 29.732 17.0833 28.8841 17.0833 28.0001C17.0833 27.8233 17.0113 27.6537 16.8832 27.5287C16.755 27.4037 16.5812 27.3334 16.4 27.3334C16.2188 27.3334 16.045 27.2632 15.9168 27.1382C15.7887 27.0131 15.7167 26.8436 15.7167 26.6667V25.6667C15.7167 25.5783 15.7527 25.4936 15.8167 25.431C15.8808 25.3685 15.9677 25.3334 16.0583 25.3334C16.1489 25.3334 16.2359 25.3685 16.2999 25.431C16.364 25.4936 16.4 25.5783 16.4 25.6667C16.4 25.8436 16.472 26.0131 16.6001 26.1382C16.7283 26.2632 16.9021 26.3334 17.0833 26.3334C17.2646 26.3334 17.4384 26.2632 17.5665 26.1382C17.6947 26.0131 17.7667 25.8436 17.7667 25.6667C17.7679 25.3901 17.8712 25.1231 18.0578 24.9147C18.2281 24.7067 18.4717 24.568 18.7411 24.5254C19.3439 24.4409 19.9344 24.287 20.5 24.0667C21.0647 24.2868 21.6542 24.4406 22.2562 24.5247C22.5294 24.5752 22.7762 24.7167 22.9544 24.925C23.1326 25.1333 23.2312 25.3954 23.2333 25.6667C23.2333 25.8436 23.3053 26.0131 23.4335 26.1382C23.5616 26.2632 23.7354 26.3334 23.9167 26.3334C24.0979 26.3334 24.2717 26.2632 24.3999 26.1382C24.528 26.0131 24.6 25.8436 24.6 25.6667C24.6 25.5783 24.636 25.4936 24.7001 25.431C24.7641 25.3685 24.8511 25.3334 24.9417 25.3334C25.0323 25.3334 25.1192 25.3685 25.1833 25.431C25.2473 25.4936 25.2833 25.5783 25.2833 25.6667V26.6667ZM25.2833 24.0341C24.8847 23.9542 24.47 24.0162 24.1142 24.2087C23.7249 23.6765 23.1351 23.3169 22.4742 23.2087C21.8987 23.1365 21.3378 22.9792 20.8109 22.7421C20.7154 22.6956 20.6101 22.6714 20.5034 22.6714C20.3967 22.6714 20.2914 22.6956 20.1959 22.7421C19.6692 22.979 19.1086 23.1364 18.5334 23.2087C17.9361 23.2997 17.3944 23.6032 17.0129 24.0607C16.9699 24.1094 16.9303 24.1587 16.8913 24.2101C16.5341 24.0158 16.1172 23.9533 15.7167 24.0341V23.3334C15.7178 22.4497 16.0781 21.6025 16.7186 20.9776C17.3591 20.3527 18.2275 20.0011 19.1333 20.0001H21.8667C22.7725 20.0011 23.6409 20.3527 24.2814 20.9776C24.9219 21.6025 25.2822 22.4497 25.2833 23.3334V24.0341Z" fill="#6555BC"/>
<path id="Vector_2" d="M8.84233 21.7113C8.91116 21.328 8.89316 20.9346 8.78961 20.5588C8.68605 20.183 8.49944 19.8339 8.24288 19.5359C7.98632 19.2379 7.66602 18.9984 7.30447 18.834C6.94292 18.6696 6.54887 18.5845 6.15 18.5845C5.75112 18.5845 5.35708 18.6696 4.99553 18.834C4.63398 18.9984 4.31368 19.2379 4.05712 19.5359C3.80056 19.8339 3.61395 20.183 3.51039 20.5588C3.40683 20.9346 3.38884 21.328 3.45767 21.7113C2.43914 22.1047 1.5651 22.7873 0.948647 23.6708C0.332199 24.5543 0.00172688 25.5979 -9.53674e-07 26.6666L-9.53674e-07 28C0.000506597 28.4196 0.136055 28.8284 0.387518 29.1688C0.638981 29.5093 0.993663 29.7641 1.40152 29.8973C1.50045 30.6778 1.79961 31.4214 2.2713 32.0591C2.74298 32.6969 3.37195 33.2083 4.1 33.546V34.06C3.1457 34.2181 2.27941 34.7003 1.65421 35.4213C1.02901 36.1422 0.685129 37.0556 0.683332 38C0.683332 38.5304 0.899314 39.0391 1.28376 39.4142C1.66821 39.7892 2.18964 40 2.73333 40H9.56667C10.1104 40 10.6318 39.7892 11.0162 39.4142C11.4007 39.0391 11.6167 38.5304 11.6167 38C11.6149 37.0556 11.271 36.1422 10.6458 35.4213C10.0206 34.7003 9.1543 34.2181 8.2 34.06V33.546C8.92804 33.2083 9.55702 32.6969 10.0287 32.0591C10.5004 31.4214 10.7995 30.6778 10.8985 29.8973C11.3063 29.7641 11.661 29.5093 11.9125 29.1688C12.1639 28.8284 12.2995 28.4196 12.3 28V26.6666C12.2983 25.5979 11.9678 24.5543 11.3514 23.6708C10.7349 22.7873 9.86086 22.1047 8.84233 21.7113ZM4.78333 21.3333C4.78333 20.9797 4.92732 20.6405 5.18362 20.3905C5.43992 20.1404 5.78754 20 6.15 20C6.51246 20 6.86008 20.1404 7.11638 20.3905C7.37268 20.6405 7.51667 20.9797 7.51667 21.3333C7.51667 21.3486 7.51257 21.3633 7.51188 21.3786C7.28686 21.35 7.06025 21.3349 6.83333 21.3333H5.46667C5.23975 21.3349 5.01314 21.35 4.78812 21.3786C4.78743 21.3633 4.78333 21.3486 4.78333 21.3333ZM5.46667 22.6666H6.83333C7.68227 22.6681 8.50984 22.9264 9.20204 23.4059C9.89423 23.8854 10.417 24.5625 10.6983 25.3439C10.662 25.3439 10.6299 25.3333 10.5917 25.3333C10.274 25.3328 9.96266 25.4194 9.69308 25.5833C9.16225 24.8701 8.40636 24.3465 7.54127 24.0926C7.26033 24.0249 6.96455 24.0466 6.69715 24.1545C6.42975 24.2625 6.20474 24.451 6.05502 24.6926C5.72663 25.134 5.30565 25.502 4.8201 25.7723C4.33454 26.0425 3.79555 26.2088 3.239 26.26C3.09768 25.9817 2.87949 25.7475 2.60904 25.5838C2.33858 25.4201 2.02662 25.3333 1.70833 25.3333C1.67212 25.3333 1.64 25.3413 1.60173 25.3439C1.88301 24.5625 2.40576 23.8854 3.09796 23.4059C3.79015 22.9264 4.61773 22.6681 5.46667 22.6666ZM10.25 38C10.25 38.1768 10.178 38.3463 10.0499 38.4714C9.92171 38.5964 9.7479 38.6666 9.56667 38.6666H2.73333C2.5521 38.6666 2.37829 38.5964 2.25014 38.4714C2.12199 38.3463 2.05 38.1768 2.05 38C2.0508 37.3849 2.26915 36.789 2.66817 36.3129C3.06719 35.8368 3.62242 35.5096 4.24008 35.3866C4.33943 35.6445 4.4952 35.8781 4.69655 36.0713C4.88509 36.2611 5.11106 36.4117 5.36086 36.514C5.61065 36.6163 5.87909 36.6682 6.15 36.6666C6.56307 36.6656 6.96618 36.5428 7.3065 36.3144C7.64682 36.086 7.90848 35.7626 8.05718 35.3866C8.67541 35.5089 9.23134 35.8359 9.63092 36.3121C10.0305 36.7883 10.2492 37.3845 10.25 38ZM6.83333 34.6666C6.83333 34.8434 6.76134 35.013 6.63319 35.138C6.50504 35.263 6.33123 35.3333 6.15 35.3333C6.05876 35.3335 5.96846 35.3154 5.88466 35.2802C5.80086 35.245 5.72535 35.1934 5.66278 35.1286C5.59995 35.0684 5.5502 34.9965 5.51651 34.9171C5.48281 34.8377 5.46586 34.7525 5.46667 34.6666V33.9473C5.69286 33.9807 5.92123 33.9983 6.15 34C6.37877 33.9983 6.60713 33.9807 6.83333 33.9473V34.6666ZM10.9333 28C10.9333 28.1768 10.8613 28.3463 10.7332 28.4714C10.605 28.5964 10.4312 28.6666 10.25 28.6666C10.0688 28.6666 9.89496 28.7369 9.76681 28.8619C9.63866 28.9869 9.56667 29.1565 9.56667 29.3333C9.56667 30.2173 9.2067 31.0652 8.56595 31.6903C7.9252 32.3154 7.05616 32.6666 6.15 32.6666C5.24384 32.6666 4.3748 32.3154 3.73405 31.6903C3.0933 31.0652 2.73333 30.2173 2.73333 29.3333C2.73333 29.1565 2.66134 28.9869 2.53319 28.8619C2.40504 28.7369 2.23123 28.6666 2.05 28.6666C1.86877 28.6666 1.69496 28.5964 1.56681 28.4714C1.43866 28.3463 1.36667 28.1768 1.36667 28V27C1.36667 26.9115 1.40266 26.8268 1.46674 26.7642C1.53081 26.7017 1.61772 26.6666 1.70833 26.6666C1.79895 26.6666 1.88585 26.7017 1.94993 26.7642C2.014 26.8268 2.05 26.9115 2.05 27C2.05004 27.093 2.07007 27.1851 2.10879 27.2702C2.14751 27.3553 2.20407 27.4315 2.27482 27.494C2.34555 27.5568 2.42891 27.6046 2.51962 27.6344C2.61032 27.6641 2.70637 27.6751 2.80167 27.6666C5.535 27.4 6.73698 26.138 7.1914 25.3846C7.58739 25.4982 7.94875 25.7049 8.24375 25.9865C8.53875 26.2682 8.75837 26.6162 8.88333 27C8.88333 27.1768 8.95533 27.3463 9.08348 27.4714C9.21163 27.5964 9.38543 27.6666 9.56667 27.6666C9.7479 27.6666 9.92171 27.5964 10.0499 27.4714C10.178 27.3463 10.25 27.1768 10.25 27C10.25 26.9115 10.286 26.8268 10.3501 26.7642C10.4141 26.7017 10.501 26.6666 10.5917 26.6666C10.6823 26.6666 10.7692 26.7017 10.8333 26.7642C10.8973 26.8268 10.9333 26.9115 10.9333 27V28Z" fill="#6555BC"/>
<path id="Vector_3" d="M37.5423 21.7113C37.6112 21.328 37.5932 20.9346 37.4896 20.5588C37.3861 20.183 37.1994 19.8339 36.9429 19.5359C36.6863 19.2379 36.366 18.9984 36.0045 18.834C35.6429 18.6696 35.2489 18.5845 34.85 18.5845C34.4511 18.5845 34.0571 18.6696 33.6955 18.834C33.334 18.9984 33.0137 19.2379 32.7571 19.5359C32.5006 19.8339 32.314 20.183 32.2104 20.5588C32.1068 20.9346 32.0888 21.328 32.1577 21.7113C31.1391 22.1047 30.2651 22.7873 29.6487 23.6708C29.0322 24.5543 28.7017 25.5979 28.7 26.6666V28C28.7005 28.4196 28.8361 28.8284 29.0875 29.1688C29.339 29.5093 29.6937 29.7641 30.1015 29.8973C30.2005 30.6778 30.4996 31.4214 30.9713 32.0591C31.443 32.6969 32.072 33.2083 32.8 33.546V34.06C31.8457 34.2181 30.9794 34.7003 30.3542 35.4213C29.729 36.1422 29.3851 37.0556 29.3833 38C29.3833 38.5304 29.5993 39.0391 29.9838 39.4142C30.3682 39.7892 30.8896 40 31.4333 40H38.2667C38.8104 40 39.3318 39.7892 39.7162 39.4142C40.1007 39.0391 40.3167 38.5304 40.3167 38C40.3149 37.0556 39.971 36.1422 39.3458 35.4213C38.7206 34.7003 37.8543 34.2181 36.9 34.06V33.546C37.628 33.2083 38.257 32.6969 38.7287 32.0591C39.2004 31.4214 39.4995 30.6778 39.5985 29.8973C40.0063 29.7641 40.361 29.5093 40.6125 29.1688C40.8639 28.8284 40.9995 28.4196 41 28V26.6666C40.9983 25.5979 40.6678 24.5543 40.0514 23.6708C39.4349 22.7873 38.5609 22.1047 37.5423 21.7113ZM33.4833 21.3333C33.4833 20.9797 33.6273 20.6405 33.8836 20.3905C34.1399 20.1404 34.4875 20 34.85 20C35.2125 20 35.5601 20.1404 35.8164 20.3905C36.0727 20.6405 36.2167 20.9797 36.2167 21.3333C36.2167 21.3486 36.2126 21.3633 36.2119 21.3786C35.9869 21.35 35.7603 21.3349 35.5333 21.3333H34.1667C33.9397 21.3349 33.7131 21.35 33.4881 21.3786C33.4874 21.3633 33.4833 21.3486 33.4833 21.3333ZM34.1667 22.6666H35.5333C36.3823 22.6681 37.2098 22.9264 37.902 23.4059C38.5942 23.8854 39.117 24.5625 39.3983 25.3439C39.3621 25.3439 39.3299 25.3333 39.2917 25.3333C38.974 25.3328 38.6627 25.4194 38.3931 25.5833C37.8623 24.8701 37.1064 24.3465 36.2413 24.0926C35.9603 24.0247 35.6645 24.0462 35.397 24.1542C35.1296 24.2622 34.9046 24.4509 34.755 24.6926C34.4266 25.134 34.0057 25.502 33.5201 25.7723C33.0345 26.0425 32.4956 26.2088 31.939 26.26C31.7977 25.9817 31.5795 25.7475 31.309 25.5838C31.0386 25.4201 30.7266 25.3333 30.4083 25.3333C30.3721 25.3333 30.34 25.3413 30.3017 25.3439C30.583 24.5625 31.1058 23.8854 31.798 23.4059C32.4902 22.9264 33.3177 22.6681 34.1667 22.6666ZM38.95 38C38.95 38.1768 38.878 38.3463 38.7499 38.4714C38.6217 38.5964 38.4479 38.6666 38.2667 38.6666H31.4333C31.2521 38.6666 31.0783 38.5964 30.9501 38.4714C30.822 38.3463 30.75 38.1768 30.75 38C30.7506 37.3854 30.9685 36.7899 31.3668 36.3138C31.7652 35.8377 32.3196 35.5103 32.9367 35.3866C33.036 35.6445 33.1918 35.8781 33.3931 36.0713C33.5821 36.2615 33.8086 36.4123 34.059 36.5147C34.3094 36.617 34.5785 36.6687 34.85 36.6666C35.2631 36.6656 35.6662 36.5428 36.0065 36.3144C36.3468 36.086 36.6085 35.7626 36.7572 35.3866C37.3754 35.5089 37.9313 35.8359 38.3309 36.3121C38.7305 36.7883 38.9492 37.3845 38.95 38ZM35.5333 34.6666C35.5333 34.8434 35.4613 35.013 35.3332 35.138C35.205 35.263 35.0312 35.3333 34.85 35.3333C34.7588 35.3335 34.6685 35.3154 34.5847 35.2802C34.5009 35.245 34.4254 35.1934 34.3628 35.1286C34.3 35.0684 34.2502 34.9965 34.2165 34.9171C34.1828 34.8377 34.1659 34.7525 34.1667 34.6666V33.9473C34.6194 34.0175 35.0806 34.0175 35.5333 33.9473V34.6666ZM39.6333 28C39.6333 28.1768 39.5613 28.3463 39.4332 28.4714C39.305 28.5964 39.1312 28.6666 38.95 28.6666C38.7688 28.6666 38.595 28.7369 38.4668 28.8619C38.3387 28.9869 38.2667 29.1565 38.2667 29.3333C38.2667 30.2173 37.9067 31.0652 37.2659 31.6903C36.6252 32.3154 35.7562 32.6666 34.85 32.6666C33.9438 32.6666 33.0748 32.3154 32.4341 31.6903C31.7933 31.0652 31.4333 30.2173 31.4333 29.3333C31.4333 29.1565 31.3613 28.9869 31.2332 28.8619C31.105 28.7369 30.9312 28.6666 30.75 28.6666C30.5688 28.6666 30.395 28.5964 30.2668 28.4714C30.1387 28.3463 30.0667 28.1768 30.0667 28V27C30.0667 26.9115 30.1027 26.8268 30.1667 26.7642C30.2308 26.7017 30.3177 26.6666 30.4083 26.6666C30.4989 26.6666 30.5859 26.7017 30.6499 26.7642C30.714 26.8268 30.75 26.9115 30.75 27C30.75 27.093 30.7701 27.1851 30.8088 27.2702C30.8475 27.3553 30.9041 27.4315 30.9748 27.494C31.0458 27.5562 31.1293 27.6034 31.22 27.6326C31.3107 27.6617 31.4066 27.6722 31.5017 27.6633C34.235 27.3966 35.437 26.1346 35.8914 25.3813C36.2878 25.4952 36.6494 25.7024 36.9444 25.9846C37.2394 26.2669 37.4588 26.6155 37.5833 27C37.5833 27.1768 37.6553 27.3463 37.7835 27.4714C37.9116 27.5964 38.0854 27.6666 38.2667 27.6666C38.4479 27.6666 38.6217 27.5964 38.7499 27.4714C38.878 27.3463 38.95 27.1768 38.95 27C38.95 26.9115 38.986 26.8268 39.0501 26.7642C39.1141 26.7017 39.2011 26.6666 39.2917 26.6666C39.3823 26.6666 39.4692 26.7017 39.5333 26.7642C39.5973 26.8268 39.6333 26.9115 39.6333 27V28Z" fill="#6555BC"/>
<path id="Vector_4" d="M39.8766 3.35197L20.7392 0.0206343C20.581 -0.00752915 20.419 -0.00752915 20.2608 0.0206343L1.12203 3.35397C0.803601 3.4065 0.514528 3.56736 0.306073 3.80801C0.0976182 4.04866 -0.0167494 4.35356 -0.0167494 4.66863C-0.0167494 4.98371 0.0976182 5.28861 0.306073 5.52926C0.514528 5.76991 0.803601 5.93076 1.12203 5.9833L4.1 6.4993V11.456C3.70168 11.5934 3.35659 11.8475 3.11196 12.1835C2.86732 12.5195 2.73508 12.9211 2.73333 13.3333V15.3333C2.73333 15.6869 2.87732 16.0261 3.13362 16.2761C3.38992 16.5262 3.73754 16.6666 4.1 16.6666H5.46667C5.82913 16.6666 6.17674 16.5262 6.43304 16.2761C6.68934 16.0261 6.83333 15.6869 6.83333 15.3333V13.3333C6.83158 12.9211 6.69934 12.5195 6.45471 12.1835C6.21007 11.8475 5.86499 11.5934 5.46667 11.456V6.7373L8.2 7.2133V13.3333C8.2 14.1153 9.08833 16.6666 20.5 16.6666C31.9117 16.6666 32.8 14.1153 32.8 13.3333V7.21263L39.8766 5.9813C40.195 5.92876 40.4841 5.76791 40.6926 5.52726C40.901 5.28661 41.0154 4.98171 41.0154 4.66663C41.0154 4.35156 40.901 4.04666 40.6926 3.80601C40.4841 3.56536 40.195 3.4045 39.8766 3.35197ZM5.46667 15.3333H4.1V13.3333C4.1 13.1565 4.17199 12.9869 4.30014 12.8619C4.42829 12.7369 4.6021 12.6666 4.78333 12.6666C4.96456 12.6666 5.13837 12.7369 5.26652 12.8619C5.39467 12.9869 5.46667 13.1565 5.46667 13.3333V15.3333ZM31.4333 13.2706C31.3424 13.4706 30.2313 15.3333 20.5 15.3333C10.7686 15.3333 9.65755 13.4726 9.56667 13.2706V7.45063L20.2608 9.31263C20.3398 9.32609 20.4198 9.333 20.5 9.3333C20.5795 9.33307 20.6588 9.32615 20.7371 9.31263L31.4333 7.45063V13.2706ZM39.6368 4.66663L20.5 7.99997L1.36667 4.66663L20.5 1.3333L39.6484 4.66663C39.6445 4.66741 39.6406 4.66741 39.6368 4.66663Z" fill="#6555BC"/>
</g>
<defs>
<clipPath id="clip0_1299_30244">
<rect width="41" height="40" fill="white"/>
</clipPath>
</defs>
</svg>
