<svg width="10" height="10" viewBox="0 0 10 10" fill="none" xmlns="http://www.w3.org/2000/svg">
<g id="Layer_1">
<g id="Group">
<g id="Group_2">
<path id="Vector" d="M9.79976 8.65873H0.199761C0.113954 8.65873 0.0449219 8.58905 0.0449219 8.50389V1.49615C0.0449219 1.41034 0.114599 1.34131 0.199761 1.34131H9.79976C9.88557 1.34131 9.9546 1.41099 9.9546 1.49615V8.50389C9.9546 8.5897 9.88557 8.65873 9.79976 8.65873ZM0.354599 8.34905H9.64492V1.65099H0.354599V8.34905Z" fill="#FFC200"/>
</g>
<g id="Group_3">
<g id="Group_4">
<g id="Group_5">
<g id="Group_6">
<path id="Vector_2" d="M6.60371 7.2547H3.60113C3.51532 7.2547 3.44629 7.18503 3.44629 7.09986V6.35406C3.44629 6.26825 3.51597 6.19922 3.60113 6.19922H6.60371C6.68951 6.19922 6.75855 6.2689 6.75855 6.35406V7.09986C6.75855 7.18567 6.68951 7.2547 6.60371 7.2547ZM3.75597 6.94503H6.44887V6.5089H3.75597V6.94503Z" fill="#FFC200"/>
</g>
<g id="Group_7">
<path id="Vector_3" d="M3.60093 7.25479C3.5777 7.25479 3.55383 7.24963 3.53254 7.23866L2.77835 6.86576C2.72544 6.83931 2.69189 6.78576 2.69189 6.72705C2.69189 6.66834 2.72544 6.61414 2.77835 6.58834L3.53254 6.21544C3.58028 6.19156 3.6377 6.19414 3.68286 6.22253C3.72802 6.25092 3.75577 6.3006 3.75577 6.35414V7.09995C3.75577 7.1535 3.72802 7.20318 3.68286 7.23156C3.6577 7.24705 3.62931 7.25479 3.60093 7.25479ZM3.19641 6.72705L3.44609 6.85092V6.60382L3.19641 6.72705Z" fill="#FFC200"/>
</g>
<g id="Group_8">
<path id="Vector_4" d="M6.89389 7.2547H6.60357C6.51776 7.2547 6.44873 7.18503 6.44873 7.09986V6.35406C6.44873 6.26825 6.51841 6.19922 6.60357 6.19922H6.89389C7.12163 6.19922 7.3068 6.38438 7.3068 6.61212V6.8418C7.3068 7.06954 7.12163 7.2547 6.89389 7.2547ZM6.75841 6.94503H6.89389C6.95067 6.94503 6.99712 6.89857 6.99712 6.8418V6.61212C6.99712 6.55535 6.95067 6.5089 6.89389 6.5089H6.75841V6.94503Z" fill="#FFC200"/>
</g>
</g>
</g>
<g id="Group_9">
<g id="Group_10">
<g id="Group_11">
<path id="Vector_5" d="M6.27985 3.63292H1.76373C1.67792 3.63292 1.60889 3.56324 1.60889 3.47808C1.60889 3.39292 1.67856 3.32324 1.76373 3.32324H6.27985C6.36566 3.32324 6.43469 3.39292 6.43469 3.47808C6.43469 3.56324 6.36502 3.63292 6.27985 3.63292Z" fill="#FFC200"/>
</g>
<g id="Group_12">
<path id="Vector_6" d="M6.27985 4.56212H1.76373C1.67792 4.56212 1.60889 4.49244 1.60889 4.40728C1.60889 4.32212 1.67856 4.25244 1.76373 4.25244H6.27985C6.36566 4.25244 6.43469 4.32212 6.43469 4.40728C6.43469 4.49244 6.36502 4.56212 6.27985 4.56212Z" fill="#FFC200"/>
</g>
</g>
<g id="Group_13">
<g id="Group_14">
<path id="Vector_7" d="M7.78521 4.43528C7.6994 4.43528 7.63037 4.36561 7.63037 4.28044V3.80302C7.63037 3.71722 7.70005 3.64819 7.78521 3.64819C7.94908 3.64819 8.08198 3.51528 8.08198 3.35141C8.08198 3.18754 7.94908 3.05464 7.78521 3.05464C7.66972 3.05464 7.56392 3.12238 7.51553 3.22754C7.48005 3.30496 7.38779 3.33915 7.31037 3.30367C7.23295 3.26819 7.19876 3.17593 7.23424 3.09851C7.33295 2.88432 7.54908 2.74561 7.78521 2.74561C8.1194 2.74561 8.39166 3.01786 8.39166 3.35206C8.39166 3.6327 8.1994 3.87012 7.94005 3.93851V4.28109C7.94005 4.36561 7.87037 4.43528 7.78521 4.43528Z" fill="#FFC200"/>
</g>
<g id="Group_15">
<path id="Vector_8" d="M7.78531 4.98517C7.89434 4.98517 7.98273 4.89678 7.98273 4.78775C7.98273 4.67872 7.89434 4.59033 7.78531 4.59033C7.67628 4.59033 7.58789 4.67872 7.58789 4.78775C7.58789 4.89678 7.67628 4.98517 7.78531 4.98517Z" fill="#FFC200"/>
</g>
</g>
</g>
</g>
</g>
</g>
</svg>
