<svg width="32" height="32" viewBox="0 0 32 32" fill="none" xmlns="http://www.w3.org/2000/svg">
<g id="Layer_1">
<path id="Vector" d="M23.3332 18.5138C23.3332 17.8797 22.9291 17.3384 22.3649 17.1334V15.7947H29.1594C30.45 15.7947 31.5 14.7448 31.5 13.4542V3.65111C31.5 2.36055 30.45 1.31055 29.1594 1.31055H14.5705C13.2799 1.31055 12.2298 2.36048 12.2298 3.65111V8.78792H8.53766C9.41897 8.09417 10.007 6.85905 10.007 5.45311C10.007 3.47123 8.81641 2.23998 6.89979 2.23998C4.9831 2.23998 3.79247 3.47117 3.79247 5.45311C3.79247 6.85905 4.3806 8.09417 5.26185 8.78792H4.03935C2.35854 8.78792 0.538974 9.88536 0.530037 11.6584L0.499974 17.6472C0.496224 18.3882 0.789725 19.0934 1.32647 19.6329C1.7951 20.1038 2.4191 20.4075 3.08172 20.4956V30.1895C3.08172 30.4657 3.3056 30.6895 3.58172 30.6895C3.85785 30.6895 4.08172 30.4657 4.08172 30.1895V11.6576C4.08172 11.3815 3.85785 11.1576 3.58172 11.1576C3.3056 11.1576 3.08172 11.3815 3.08172 11.6576V19.4828C2.6856 19.4042 2.31772 19.2113 2.03535 18.9275C1.68772 18.5781 1.4976 18.1252 1.49997 17.6523L1.52997 11.6634C1.5361 10.4397 2.99122 9.78798 4.03929 9.78798H14.8042C14.9157 9.78798 15.0241 9.75067 15.112 9.68198L17.5911 7.74467C17.7937 7.58642 18.0873 7.62248 18.2455 7.82511C18.4038 8.02773 18.3677 8.3213 18.165 8.47961L15.4847 10.5742C15.4734 10.583 15.4625 10.5923 15.452 10.602C15.3648 10.683 15.2513 10.7277 15.1323 10.7277H11.6217C11.4727 10.7277 11.3313 10.7942 11.2363 10.909L9.8456 12.5911C9.77166 12.6805 9.7311 12.7929 9.73097 12.9089L9.70304 30.1887C9.7026 30.4649 9.9261 30.6891 10.2022 30.6895H10.203C10.4788 30.6895 10.7025 30.4662 10.703 30.1904L10.7307 13.09L11.857 11.7277H12.2297V13.4543C12.2297 14.7449 13.2797 15.7948 14.5704 15.7948H21.3648V17.1334C20.8007 17.3384 20.3965 17.8798 20.3965 18.5139C20.3965 19.3235 21.0552 19.9821 21.8648 19.9821C22.6744 19.9821 23.3332 19.3234 23.3332 18.5138ZM4.79254 5.45317C4.79254 3.52755 6.11285 3.24005 6.89985 3.24005C7.68685 3.24005 9.0071 3.52755 9.0071 5.45317C9.0071 7.06698 8.06179 8.37986 6.89985 8.37986C5.73791 8.37986 4.79254 7.06692 4.79254 5.45317ZM13.2298 13.4542V11.7276H15.1323C15.497 11.7276 15.8452 11.5937 16.1157 11.3502L18.7808 9.26755C19.2535 8.89836 19.4376 8.29492 19.2981 7.74786L23.25 4.67067C23.4678 4.50105 23.5069 4.18686 23.3373 3.96898C23.1676 3.75111 22.8534 3.71205 22.6356 3.88167L18.7325 6.9208C18.2174 6.55167 17.4997 6.54705 16.9755 6.95661L14.632 8.78792H13.2297V3.65111C13.2297 2.91192 13.8312 2.31055 14.5704 2.31055H29.1593C29.8985 2.31055 30.4999 2.91192 30.4999 3.65111V13.4542C30.4999 14.1934 29.8985 14.7947 29.1593 14.7947H14.5705C13.8312 14.7947 13.2298 14.1934 13.2298 13.4542ZM21.8649 18.982C21.6067 18.982 21.3967 18.772 21.3967 18.5138C21.3967 18.2558 21.6064 18.046 21.8643 18.0456H21.8649C21.8649 18.0456 21.8653 18.0456 21.8655 18.0456C22.1234 18.0459 22.3332 18.2558 22.3332 18.5138C22.3332 18.772 22.1231 18.982 21.8649 18.982ZM7.29829 20.5296V30.1895C7.29829 30.4657 7.07441 30.6895 6.79829 30.6895C6.52216 30.6895 6.29829 30.4657 6.29829 30.1895V20.5296C6.29829 20.2535 6.52216 20.0296 6.79829 20.0296C7.07441 20.0296 7.29829 20.2535 7.29829 20.5296ZM31.4972 30.1363C31.3195 28.4764 30.2451 27.118 28.7849 26.517C29.2736 26.0627 29.5801 25.4149 29.5801 24.6965C29.5801 23.3254 28.4646 22.2099 27.0935 22.2099C25.7224 22.2099 24.6068 23.3254 24.6068 24.6965C24.6068 25.4149 24.9134 26.0627 25.4021 26.517C23.9418 27.118 22.8674 28.4764 22.6897 30.1363C22.6746 30.2774 22.7202 30.4182 22.815 30.5237C22.9098 30.6292 23.045 30.6895 23.1868 30.6895H31C31.1418 30.6895 31.277 30.6292 31.3719 30.5237C31.4667 30.4182 31.5122 30.2774 31.4972 30.1363ZM25.6068 24.6965C25.6068 23.8768 26.2737 23.2099 27.0934 23.2099C27.9132 23.2099 28.58 23.8768 28.58 24.6965C28.58 25.5162 27.9132 26.1831 27.0934 26.1831C26.2737 26.1831 25.6068 25.5162 25.6068 24.6965ZM23.7892 29.6895C24.1932 28.2275 25.5276 27.183 27.0935 27.183C28.6592 27.183 29.9937 28.2275 30.3977 29.6895H23.7892ZM19.0966 26.517C19.5853 26.0626 19.8918 25.4148 19.8918 24.6964C19.8918 23.3253 18.7764 22.2099 17.4052 22.2099C16.0341 22.2099 14.9186 23.3254 14.9186 24.6964C14.9186 25.4148 15.2252 26.0626 15.7138 26.517C14.2535 27.118 13.1792 28.4763 13.0015 30.1362C12.9863 30.2773 13.0319 30.4182 13.1267 30.5237C13.2215 30.6292 13.3567 30.6894 13.4986 30.6894H21.3117C21.4536 30.6894 21.5888 30.6292 21.6836 30.5237C21.7784 30.4182 21.824 30.2774 21.8088 30.1362C21.6313 28.4763 20.5569 27.118 19.0966 26.517ZM15.9186 24.6965C15.9186 23.8768 16.5855 23.2099 17.4052 23.2099C18.2249 23.2099 18.8918 23.8768 18.8918 24.6965C18.8918 25.5162 18.225 26.1831 17.4052 26.1831C16.5855 26.1831 15.9186 25.5162 15.9186 24.6965ZM14.101 29.6895C14.505 28.2275 15.8394 27.183 17.4052 27.183C18.971 27.183 20.3055 28.2275 20.7095 29.6895H14.101ZM28.1034 13.4635H15.5437C15.2676 13.4635 15.0437 13.2396 15.0437 12.9635C15.0437 12.6874 15.2676 12.4635 15.5437 12.4635H28.1034C28.3795 12.4635 28.6034 12.6874 28.6034 12.9635C28.6034 13.2396 28.3796 13.4635 28.1034 13.4635ZM19.3088 10.023C19.3088 9.74686 19.5327 9.52298 19.8088 9.52298H28.1448C28.4209 9.52298 28.6448 9.74686 28.6448 10.023C28.6448 10.2991 28.4209 10.523 28.1448 10.523H19.8088C19.5326 10.523 19.3088 10.2991 19.3088 10.023ZM21.6872 7.08242C21.6872 6.8063 21.9111 6.58242 22.1872 6.58242H28.186C28.4622 6.58242 28.686 6.8063 28.686 7.08242C28.686 7.35855 28.4622 7.58242 28.186 7.58242H22.1872C21.9111 7.58242 21.6872 7.35861 21.6872 7.08242ZM24.5562 4.14192C24.5562 3.8658 24.78 3.64192 25.0562 3.64192H28.1035C28.3796 3.64192 28.6035 3.8658 28.6035 4.14192C28.6035 4.41805 28.3796 4.64192 28.1035 4.64192H25.0562C24.78 4.64192 24.5562 4.41805 24.5562 4.14192ZM20.7669 4.14192C20.7669 4.41805 20.543 4.64192 20.2669 4.64192H15.5438C15.2677 4.64192 15.0438 4.41805 15.0438 4.14192C15.0438 3.8658 15.2677 3.64192 15.5438 3.64192H20.2669C20.543 3.64192 20.7669 3.8658 20.7669 4.14192Z" fill="#1B98E0"/>
</g>
</svg>
