<svg width="10" height="10" viewBox="0 0 10 10" fill="none" xmlns="http://www.w3.org/2000/svg">
<g id="Capa_1" clip-path="url(#clip0_1511_3826)">
<g id="Group">
<g id="Puzzle_00000040574610505766148370000017689451235209513381_">
<path id="Vector" d="M9.79762 7.37198H8.12468C8.22409 7.7314 8.28272 8.08002 8.28272 8.26885C8.28272 8.76434 7.88115 9.16591 7.38566 9.16591C6.89037 9.16591 6.4888 8.76434 6.4888 8.26885C6.4888 8.08002 6.54723 7.7314 6.64684 7.37198H5.00684V5.71865C5.36625 5.81826 5.71507 5.87689 5.9037 5.87689C6.39919 5.87689 6.80076 5.47532 6.80076 4.97983C6.80076 4.48453 6.39919 4.08297 5.9037 4.08297C5.71507 4.08297 5.36625 4.1414 5.00684 4.241V2.58787H6.64684C6.54723 2.22846 6.4888 1.87963 6.4888 1.691C6.4888 1.19551 6.89037 0.793945 7.38566 0.793945C7.88115 0.793945 8.28272 1.19551 8.28272 1.691C8.28272 1.87963 8.22409 2.22846 8.12468 2.58787H9.79762V7.37198Z" fill="#FFC200"/>
<path id="Vector_2" d="M9.79782 7.37225H8.12468C8.22429 7.73166 8.28291 8.08029 8.28291 8.26911C8.28291 8.7646 7.88135 9.16617 7.38586 9.16617C6.89056 9.16617 6.48899 8.7646 6.48899 8.26911C6.48899 8.08029 6.54742 7.73166 6.64703 7.37225H5.00684V6.53617C7.31527 6.53617 9.2539 5.26715 9.79782 3.55127V7.37225Z" fill="#DFAA00"/>
<path id="Vector_3" d="M6.79462 4.97983C6.79462 5.47532 6.39305 5.87689 5.89756 5.87689C5.70893 5.87689 5.36011 5.81826 5.0007 5.71865V7.37198H3.34756C3.44717 7.7314 3.5056 8.08002 3.5056 8.26885C3.5056 8.76434 3.10403 9.16591 2.60874 9.16591C2.11325 9.16591 1.71168 8.76434 1.71168 8.26885C1.71168 8.08002 1.77031 7.7314 1.86972 7.37198H0.196777V2.58787H1.86972C1.77031 2.22846 1.71168 1.87963 1.71168 1.691C1.71168 1.19551 2.11325 0.793945 2.60874 0.793945C3.10403 0.793945 3.5056 1.19551 3.5056 1.691C3.5056 1.87963 3.44717 2.22846 3.34756 2.58787H5.0007V4.241C5.36011 4.1414 5.70893 4.08297 5.89756 4.08297C6.39305 4.08297 6.79462 4.48453 6.79462 4.97983Z" fill="#6555BC" fill-opacity="0.72"/>
<path id="Vector_4" d="M5.00021 6.53603V7.37211H3.34707C3.44668 7.73152 3.50511 8.08015 3.50511 8.26897C3.50511 8.76446 3.10354 9.16603 2.60825 9.16603C2.11276 9.16603 1.71119 8.76446 1.71119 8.26897C1.71119 8.08015 1.76982 7.73152 1.86923 7.37211H0.196289V3.48682C0.711191 5.23348 2.66609 6.53368 5.00021 6.53603Z" fill="#6555BC"/>
</g>
</g>
<g id="Group_2">
<circle id="Ellipse" cx="2.60819" cy="6.19608" r="0.196078" fill="white"/>
<g id="Puzzle_2_">
<path id="Vector_5" d="M2.01025 4.4022C2.01025 4.07192 2.27798 3.8042 2.60825 3.8042C2.93853 3.8042 3.20625 4.07192 3.20625 4.4022C3.20625 4.66169 3.04098 4.88257 2.80996 4.96534C2.68906 5.00865 2.60825 5.12332 2.60825 5.25173V5.2992" stroke="white" stroke-width="0.5" stroke-miterlimit="10" stroke-linecap="round" stroke-linejoin="round"/>
<path id="Vector_6" d="M5 7.39197H6.65314C6.55357 7.75142 6.49498 8.1002 6.49498 8.28897C6.49498 8.78436 6.89657 9.18596 7.39198 9.18596C7.88739 9.18596 8.28898 8.78436 8.28898 8.28897C8.28898 8.1002 8.23039 7.75142 8.13082 7.39197H9.80392V2.60796H8.13084C8.23041 2.24853 8.289 1.89975 8.289 1.71096C8.289 1.21557 7.88741 0.813965 7.392 0.813965C6.89659 0.813965 6.495 1.21555 6.495 1.71096C6.495 1.89973 6.55359 2.24851 6.65316 2.60796H5" stroke="#052A75" stroke-width="0.5" stroke-miterlimit="10" stroke-linecap="round" stroke-linejoin="round"/>
<path id="Vector_7" d="M6.79421 4.99996C6.79421 4.50457 6.3926 4.10296 5.89721 4.10296C5.70845 4.10296 5.35966 4.16155 5.00021 4.26112V2.60796H3.34705C3.44662 2.24853 3.50521 1.89975 3.50521 1.71096C3.50521 1.21557 3.1036 0.813965 2.60821 0.813965C2.11282 0.813965 1.71121 1.21557 1.71121 1.71096C1.71121 1.89973 1.7698 2.24851 1.86937 2.60796H0.196289V7.39194H1.86937C1.7698 7.7514 1.71121 8.10018 1.71121 8.28894C1.71121 8.78434 2.1128 9.18594 2.60821 9.18594C3.10362 9.18594 3.50521 8.78434 3.50521 8.28894C3.50521 8.10018 3.44662 7.7514 3.34705 7.39194H5.00021V5.73881C5.35966 5.83838 5.70845 5.89696 5.89721 5.89696C6.3926 5.89696 6.79421 5.49536 6.79421 4.99996Z" stroke="#052A75" stroke-width="0.5" stroke-miterlimit="10" stroke-linecap="round" stroke-linejoin="round"/>
</g>
</g>
</g>
<defs>
<clipPath id="clip0_1511_3826">
<rect width="10" height="10" fill="white"/>
</clipPath>
</defs>
</svg>
