<svg width="10" height="10" viewBox="0 0 10 10" fill="none" xmlns="http://www.w3.org/2000/svg">
<g id="Layer_1" clip-path="url(#clip0_1511_3763)">
<path id="Vector" d="M5.00042 5.4075C4.89917 5.4075 4.7975 5.37167 4.71667 5.30042L3.8925 4.57417H2.08292V1.04167C2.08292 0.467083 2.55042 0 3.12458 0H6.87458C7.44875 0 7.91625 0.467083 7.91625 1.04167V4.57417H6.12208L5.28083 5.30167C5.20125 5.37208 5.10083 5.4075 5 5.4075H5.00042ZM2.5 4.1575H4.05042L4.9925 4.98792L5.9675 4.1575H7.5V1.04167C7.5 0.697083 7.21958 0.416667 6.875 0.416667H3.125C2.78042 0.416667 2.5 0.697083 2.5 1.04167V4.1575ZM5.05542 3.15458L6.66625 1.56167L6.37333 1.26542L4.76292 2.85833C4.6825 2.9375 4.55167 2.93792 4.47167 2.85958L3.56 1.96417L3.26792 2.26125L4.18 3.15708C4.30083 3.275 4.45833 3.33375 4.61667 3.33375C4.77583 3.33375 4.93458 3.27417 5.05542 3.15458ZM2.35833 6.9925L2.66333 7.88375H1.92L2.22208 7C2.23167 6.98042 2.26875 6.9575 2.29167 6.9575C2.31542 6.9575 2.35083 6.9775 2.35833 6.9925ZM3.45708 8.81L2.78917 6.82167C2.67 6.55208 2.50375 6.495 2.29167 6.495C2.07958 6.495 1.91292 6.55208 1.79083 6.83L1.12625 8.80958H1.60333L1.76167 8.34667H2.82167L2.98 8.80958L3.45708 8.81ZM2.29167 10.0004C1.02792 10.0004 0 8.97208 0 7.70875C0 6.44542 1.02792 5.41708 2.29167 5.41708C3.55542 5.41708 4.58333 6.44542 4.58333 7.70875C4.58333 8.97208 3.55542 10.0004 2.29167 10.0004ZM2.29167 5.83375C1.25792 5.83375 0.416667 6.675 0.416667 7.70875C0.416667 8.7425 1.25792 9.58375 2.29167 9.58375C3.32542 9.58375 4.16667 8.7425 4.16667 7.70875C4.16667 6.675 3.32542 5.83375 2.29167 5.83375ZM7.70833 10.0004C6.44458 10.0004 5.41667 8.97208 5.41667 7.70875C5.41667 6.44542 6.44458 5.41708 7.70833 5.41708C8.97208 5.41708 10 6.44542 10 7.70875C10 8.97208 8.97208 10.0004 7.70833 10.0004ZM7.70833 5.83375C6.67458 5.83375 5.83333 6.675 5.83333 7.70875C5.83333 8.7425 6.67458 9.58375 7.70833 9.58375C8.74208 9.58375 9.58333 8.7425 9.58333 7.70875C9.58333 6.675 8.74208 5.83375 7.70833 5.83375ZM8.54458 7.55375C8.60167 7.45292 8.63417 7.33667 8.63417 7.21292C8.63417 6.83 8.3225 6.51833 7.93958 6.51833H7.27833C7.005 6.51833 6.7825 6.74083 6.7825 7.01417V8.33708C6.7825 8.61042 7.005 8.83292 7.27833 8.83292H8.17125C8.55417 8.83292 8.86583 8.52125 8.86583 8.13833C8.86583 7.89292 8.7375 7.67667 8.545 7.55333L8.54458 7.55375ZM7.24542 7.01458C7.24542 6.99667 7.26 6.98167 7.27833 6.98167H7.93958C8.0675 6.98167 8.17125 7.08583 8.17125 7.21333C8.17125 7.34083 8.0675 7.445 7.93958 7.445H7.245V7.015L7.24542 7.01458ZM8.17125 8.37042H7.27833C7.26 8.37042 7.24542 8.35542 7.24542 8.3375V7.9075H8.17125C8.29917 7.9075 8.40292 8.01167 8.40292 8.13917C8.40292 8.26667 8.29917 8.37042 8.17125 8.37042Z" fill="#6555BC"/>
</g>
<defs>
<clipPath id="clip0_1511_3763">
<rect width="10" height="10" fill="white"/>
</clipPath>
</defs>
</svg>
