<svg width="32" height="32" viewBox="0 0 32 32" fill="none" xmlns="http://www.w3.org/2000/svg">
<g id="Simplification" clip-path="url(#clip0_408_181)">
<path id="Vector" d="M11.0625 0.250161C11.1033 0.263223 11.144 0.276285 11.186 0.289743C12.7781 0.819902 14.072 2.02234 14.8457 3.49479C15.3935 4.6538 15.5092 5.77179 15.5269 7.03788C15.5298 7.15492 15.5298 7.15492 15.5327 7.27433C15.534 7.34472 15.5352 7.41511 15.5365 7.48763C15.5658 7.7128 15.6409 7.86509 15.75 8.06266C15.8751 8.54377 15.7982 9.01182 15.5625 9.44547C15.2817 9.86209 14.8472 10.1086 14.375 10.2502C14.3651 10.3302 14.3552 10.4103 14.345 10.4928C14.1436 12.0243 13.5839 13.2651 12.4148 14.3112C12.2415 14.4442 12.0654 14.534 11.8711 14.633C11.6932 14.7276 11.6932 14.7276 11.5625 14.8752C11.4853 15.1936 11.482 15.487 11.5 15.8127C11.5534 15.8293 11.6069 15.846 11.6619 15.8632C11.9496 15.9637 12.2182 16.0968 12.4925 16.2289C12.6682 16.3044 12.8095 16.3618 13 16.3752C13.1036 16.2906 13.2065 16.2049 13.3045 16.1139C13.9359 15.574 14.7894 15.2677 15.6165 15.2304C15.6996 15.2265 15.6996 15.2265 15.7843 15.2225C15.8413 15.22 15.8983 15.2175 15.9571 15.215C16.0153 15.2123 16.0735 15.2096 16.1334 15.2068C16.2765 15.2002 16.4195 15.1939 16.5625 15.1877C16.5507 15.098 16.5507 15.098 16.5386 15.0065C16.4395 14.2288 16.3874 13.4505 16.3411 12.6681C16.3327 12.5291 16.3243 12.39 16.316 12.2509C16.2986 11.9608 16.2814 11.6706 16.2644 11.3804C16.2429 11.0132 16.2204 10.6461 16.1976 10.279C16.18 9.992 16.163 9.70499 16.1463 9.41796C16.1383 9.28282 16.1301 9.14769 16.1215 9.01259C15.9875 6.87267 15.9454 4.46506 17.4234 2.74626C17.7851 2.3565 18.2072 2.12928 18.69 1.91642C18.901 1.79811 19.0176 1.66993 19.1719 1.48454C19.9213 0.634115 21.0594 0.109118 22.1875 0.000161424C23.4356 -0.050488 24.6086 -0.0606226 25.75 0.500161C25.8162 0.532388 25.8823 0.564615 25.9505 0.597818C26.4445 0.85097 26.8801 1.15332 27.3125 1.50016C27.3567 1.53392 27.4008 1.56768 27.4463 1.60246C28.5436 2.48784 29.4304 4.08875 29.5801 5.4755C29.5885 5.69058 29.5813 5.83561 29.4883 6.03141C29.3422 6.15235 29.2519 6.17864 29.0625 6.18766C28.8605 6.13957 28.7753 6.09815 28.6541 5.92814C28.5501 5.72596 28.501 5.53788 28.4492 5.31657C28.0627 3.77984 27.0952 2.50728 25.7516 1.67555C24.5927 0.985951 22.9982 0.831414 21.6953 1.16032C20.9134 1.39664 20.1529 1.80297 19.7071 2.50797C19.5368 2.75221 19.3527 2.82624 19.0781 2.93376C18.3225 3.23363 17.9278 3.69725 17.6055 4.42375C17.1675 5.48366 17.0952 6.64997 17.1438 7.78459C17.1467 7.85551 17.1495 7.92643 17.1524 7.9995C17.1986 9.08449 17.2672 10.1684 17.333 11.2524C17.3475 11.4907 17.3617 11.729 17.3759 11.9673C17.3898 12.1998 17.4037 12.4323 17.4177 12.6648C17.4243 12.7744 17.4309 12.884 17.4375 12.9936C17.4576 13.3291 17.4783 13.6647 17.5 14.0002C17.5027 14.0424 17.5054 14.0846 17.5082 14.1281C17.5158 14.2439 17.5238 14.3597 17.5319 14.4755C17.5385 14.5717 17.5385 14.5717 17.5453 14.6699C17.5473 14.8103 17.5473 14.8103 17.625 14.8752C17.7133 14.881 17.8018 14.8825 17.8903 14.8823C17.9466 14.8823 18.0029 14.8822 18.0609 14.8822C18.1221 14.8819 18.1833 14.8816 18.2464 14.8813C18.3087 14.8812 18.371 14.8811 18.4353 14.881C18.6352 14.8806 18.8352 14.8799 19.0352 14.8791C19.1704 14.8788 19.3056 14.8785 19.4408 14.8782C19.7731 14.8775 20.1053 14.8765 20.4375 14.8752C20.3875 14.8424 20.3374 14.8097 20.2858 14.7759C19.0345 13.951 18.1599 12.8884 17.7818 11.4164C17.6873 10.9215 17.6766 10.4379 17.6748 9.93522C17.6745 9.85774 17.6741 9.78027 17.6737 9.70044C17.6732 9.53729 17.6728 9.37413 17.6725 9.21098C17.6721 9.04415 17.6714 8.87737 17.6699 8.71055C17.668 8.46903 17.6674 8.22753 17.667 7.986C17.6662 7.91158 17.6655 7.83716 17.6647 7.76048C17.6664 7.10704 17.6664 7.10704 17.875 6.81266C18.1184 6.63014 18.3565 6.54644 18.6465 6.45641C19.3569 6.23537 19.8326 5.86853 20.3731 5.36393C20.6034 5.15751 20.7922 5.16608 21.0921 5.17082C21.4883 5.21307 21.6952 5.51234 21.9361 5.79582C23.1582 7.16658 24.9656 7.91693 26.7691 8.08878C26.8163 8.09356 26.8635 8.09834 26.9121 8.10326C27.0047 8.1124 27.0973 8.12059 27.19 8.12765C27.5582 8.16351 27.8029 8.28912 28.0508 8.56266C28.4618 9.25482 28.2284 10.6812 28.0625 11.4377C27.6664 12.9758 26.7305 14.0619 25.375 14.8752C26.3238 14.8752 27.2725 14.8752 28.25 14.8752C28.2895 14.1922 28.2895 14.1922 28.3299 13.4955C28.3467 13.2058 28.3635 12.9162 28.3803 12.6265C28.4069 12.1675 28.4336 11.7084 28.4601 11.2494C28.4815 10.879 28.503 10.5086 28.5245 10.1382C28.5327 9.99737 28.5408 9.85657 28.549 9.71577C28.5674 9.39687 28.5861 9.07801 28.6059 8.7592C28.6179 8.56406 28.6282 8.36909 28.6356 8.17372C28.6391 8.10123 28.6426 8.02875 28.6462 7.95406C28.6483 7.89498 28.6504 7.83589 28.6525 7.77501C28.6988 7.57686 28.7788 7.49926 28.9375 7.37516C29.1822 7.34021 29.3149 7.33561 29.5235 7.47282C29.7745 7.84934 29.6838 8.35783 29.6592 8.78849C29.6555 8.85993 29.6517 8.93136 29.6479 9.00496C29.6355 9.23907 29.6225 9.47313 29.6094 9.70719C29.6006 9.86946 29.5917 10.0317 29.5829 10.194C29.5647 10.5271 29.5462 10.8603 29.5275 11.1934C29.5053 11.5893 29.4843 11.9853 29.4638 12.3813C29.4488 12.6672 29.4332 12.953 29.4173 13.2389C29.41 13.373 29.4029 13.5072 29.3961 13.6414C29.3866 13.8282 29.376 14.0149 29.3653 14.2016C29.3627 14.2555 29.3602 14.3095 29.3576 14.3651C29.328 14.845 29.2368 15.3454 28.875 15.6877C28.4824 15.9562 28.1207 15.9714 27.6563 15.9621C27.589 15.9617 27.5217 15.9614 27.4524 15.961C27.2391 15.9596 27.0258 15.9565 26.8125 15.9533C26.6673 15.952 26.522 15.9509 26.3767 15.9499C26.022 15.9471 25.6673 15.9429 25.3125 15.9377C25.3125 15.9789 25.3125 16.0202 25.3125 16.0627C25.3835 16.0702 25.4545 16.0778 25.5277 16.0855C25.815 16.1216 26.0903 16.1868 26.3704 16.2592C26.4222 16.2724 26.4739 16.2856 26.5272 16.2992C26.6362 16.327 26.745 16.355 26.8539 16.3832C27.0183 16.4256 27.1829 16.4674 27.3476 16.5091C28.5606 16.8191 29.7878 17.1676 30.4922 18.2931C30.9142 19.0982 31.003 19.9529 31.0991 20.842C31.1131 20.9661 31.1272 21.0903 31.1413 21.2144C31.1786 21.5438 31.2149 21.8733 31.2511 22.2029C31.2886 22.5437 31.3268 22.8844 31.365 23.2251C31.4103 23.6306 31.4556 24.0361 31.5004 24.4417C31.5822 25.1817 31.666 25.9214 31.7532 26.6608C31.7794 26.8858 31.8056 27.1109 31.8317 27.3359C31.8472 27.4687 31.863 27.6014 31.879 27.7341C31.9576 28.3854 32.013 29.0293 32.0171 29.6857C32.0177 29.7423 32.0182 29.799 32.0187 29.8573C32.0146 30.4952 31.8142 30.9911 31.3682 31.4574C30.9203 31.8563 30.4657 32.0191 29.866 32.0183C29.8163 32.0187 29.7667 32.0192 29.7155 32.0196C29.5524 32.0208 29.3893 32.021 29.2261 32.0212C29.1123 32.0216 28.9986 32.022 28.8848 32.0224C28.6468 32.0232 28.4088 32.0234 28.1708 32.0233C27.8658 32.0233 27.5608 32.025 27.2558 32.0272C27.021 32.0286 26.7863 32.0288 26.5516 32.0287C26.4391 32.0289 26.3266 32.0294 26.2141 32.0304C26.057 32.0316 25.9 32.0313 25.7429 32.0305C25.6965 32.0312 25.65 32.0319 25.6022 32.0327C25.3888 32.03 25.2701 32.015 25.0962 31.8869C24.9553 31.6866 24.9659 31.5515 25 31.3127C25.1387 31.131 25.22 31.0727 25.4375 31.0002C25.5901 30.9949 25.7408 30.9929 25.8933 30.9941C25.9595 30.9942 25.9595 30.9942 26.0271 30.9943C26.1678 30.9947 26.3085 30.9955 26.4492 30.9963C26.5447 30.9966 26.6402 30.9969 26.7357 30.9971C26.9697 30.9978 27.2036 30.9989 27.4375 31.0002C27.4346 30.9591 27.4317 30.9181 27.4287 30.8758C27.326 29.4222 27.2463 27.9674 27.1696 26.5122C27.152 26.1783 27.1339 25.8444 27.1158 25.5105C27.1016 25.2486 27.0878 24.9866 27.074 24.7246C27.0674 24.6016 27.0608 24.4785 27.0541 24.3555C27.0358 24.0203 27.0193 23.6852 27.0063 23.3498C27.002 23.2392 26.9973 23.1287 26.9923 23.0182C26.9853 22.8539 26.9806 22.6896 26.9765 22.5252C26.9729 22.4512 26.9729 22.4512 26.9693 22.3757C26.9657 22.1318 26.9763 22.0256 27.1458 21.8443C27.3491 21.7295 27.4576 21.711 27.6875 21.7502C27.8314 21.8669 27.9174 21.9599 28 22.1252C28.015 22.2882 28.0264 22.45 28.0352 22.6134C28.0379 22.6567 28.0406 22.7001 28.0434 22.7447C28.0671 23.1631 28.0651 23.5812 28.0625 24.0002C28.141 23.9916 28.141 23.9916 28.221 23.983C28.4171 23.9618 28.6133 23.9408 28.8094 23.9201C28.8939 23.9111 28.9784 23.902 29.0629 23.8928C29.1852 23.8795 29.3074 23.8666 29.4297 23.8537C29.503 23.8458 29.5763 23.838 29.6519 23.8299C29.8946 23.8112 30.1317 23.8099 30.375 23.8127C30.2912 23.1048 30.207 22.397 30.1223 21.6892C30.0829 21.36 30.0443 21.0307 30.0066 20.7013C29.9914 20.5718 29.9762 20.4422 29.961 20.3127C29.9548 20.2566 29.9487 20.2006 29.9423 20.1429C29.8619 19.4718 29.695 18.8445 29.1778 18.3788C28.7198 18.0346 28.1828 17.8143 27.625 17.6877C27.6302 17.7689 27.6353 17.8501 27.6406 17.9338C27.6382 18.7875 27.3718 19.6843 26.7813 20.3127C26.3992 20.6645 25.9952 20.7764 25.4815 20.767C24.4942 20.6686 23.6702 20.135 22.9375 19.5002C22.9109 19.5214 22.8842 19.5427 22.8567 19.5646C22.2218 20.0568 21.5723 20.429 20.8125 20.6877C20.8226 20.7669 20.8226 20.7669 20.8328 20.8478C20.896 21.4462 20.8662 21.7945 20.4883 22.2658C20.2756 22.4952 20.0481 22.6517 19.75 22.7502C19.6882 22.7502 19.6263 22.7502 19.5625 22.7502C19.5586 22.7851 19.5546 22.8201 19.5506 22.8561C19.424 23.6851 18.9922 24.3814 18.375 24.9377C18.2711 25.0053 18.1657 25.0706 18.0586 25.133C17.8913 25.2331 17.8256 25.2731 17.7637 25.4601C17.7479 25.6012 17.7422 25.7336 17.75 25.8752C17.8489 25.8843 17.8489 25.8843 17.9497 25.8937C18.3264 25.9411 18.6887 26.0425 19.0547 26.1408C19.1247 26.1588 19.1947 26.1767 19.2669 26.1952C20.1022 26.4184 20.7571 26.725 21.2102 27.4842C21.5198 28.0997 21.5478 28.8713 21.621 29.5495C21.637 29.6975 21.6536 29.8454 21.6703 29.9933C21.6809 30.0882 21.6914 30.1831 21.7019 30.278C21.7068 30.3218 21.7117 30.3656 21.7167 30.4108C21.738 30.6093 21.75 30.8001 21.75 31.0002C21.7957 30.9995 21.8414 30.9989 21.8885 30.9982C22.0962 30.9956 22.304 30.994 22.5117 30.9923C22.5836 30.9913 22.6556 30.9903 22.7296 30.9892C22.7991 30.9888 22.8686 30.9884 22.9402 30.988C23.004 30.9873 23.0679 30.9866 23.1336 30.986C23.3927 31.0065 23.5657 31.0658 23.75 31.2502C23.8107 31.4371 23.8188 31.54 23.7656 31.7306C23.6875 31.8752 23.6875 31.8752 23.5 32.0002C23.3792 32.016 23.3792 32.016 23.2395 32.0162C23.1861 32.0166 23.1328 32.017 23.0778 32.0175C23.0192 32.0173 22.9606 32.0171 22.9002 32.0169C22.838 32.0172 22.7757 32.0174 22.7115 32.0177C22.502 32.0185 22.2924 32.0184 22.0828 32.0183C21.9329 32.0187 21.7831 32.0191 21.6332 32.0196C21.2678 32.0206 20.9024 32.021 20.537 32.021C20.2401 32.0211 19.9431 32.0214 19.6462 32.0218C18.8047 32.0229 17.9631 32.0234 17.1216 32.0233C17.0762 32.0233 17.0309 32.0233 16.9841 32.0233C16.916 32.0233 16.916 32.0233 16.8464 32.0233C16.1098 32.0233 15.3732 32.0245 14.6366 32.0262C13.8806 32.028 13.1247 32.0289 12.3687 32.0288C11.9441 32.0287 11.5195 32.0291 11.095 32.0304C10.6958 32.0317 10.2967 32.0316 9.89749 32.0307C9.75075 32.0306 9.60401 32.0309 9.45728 32.0316C9.25742 32.0326 9.05763 32.032 8.85778 32.0311C8.79929 32.0317 8.74081 32.0323 8.68056 32.033C8.29078 32.0288 8.29078 32.0288 8.08899 31.8869C7.9578 31.6853 7.96645 31.5477 8.00002 31.3127C8.13869 31.131 8.21999 31.0727 8.43752 31.0002C8.57571 30.9949 8.71404 30.9935 8.85232 30.9941C8.93349 30.9943 9.01466 30.9945 9.09829 30.9947C9.18403 30.9952 9.26976 30.9957 9.35549 30.9963C9.44196 30.9966 9.52843 30.9969 9.61489 30.9971C9.82661 30.9978 10.0383 30.9989 10.25 31.0002C10.2532 30.9489 10.2563 30.8976 10.2596 30.8447C10.2952 30.3048 10.3474 29.7691 10.4138 29.2321C10.4299 29.1006 10.445 28.969 10.4602 28.8373C10.5552 28.0458 10.7501 27.3504 11.375 26.8127C11.9444 26.3965 12.5961 26.2111 13.2735 26.047C13.3401 26.0303 13.4067 26.0135 13.4754 25.9963C13.7434 25.9302 13.9725 25.8752 14.25 25.8752C14.2611 25.6755 14.2509 25.5032 14.1875 25.3127C14.0607 25.1955 13.9283 25.1181 13.7793 25.0312C13.1119 24.6267 12.6879 23.8459 12.461 23.1169C12.4375 23.0002 12.4375 23.0002 12.4375 22.7502C12.3602 22.7463 12.3602 22.7463 12.2813 22.7423C11.8384 22.6316 11.5087 22.3029 11.25 21.9377C11.0867 21.5877 11.0554 21.2111 11.1768 20.8434C11.266 20.6365 11.3397 20.473 11.5 20.3127C11.5291 20.1431 11.5291 20.1431 11.5396 19.945C11.5448 19.8721 11.55 19.7992 11.5554 19.724C11.5604 19.6476 11.5653 19.5711 11.5703 19.4923C11.5757 19.4154 11.5811 19.3385 11.5867 19.2592C11.6 19.0687 11.6127 18.8782 11.625 18.6877C11.5888 18.7351 11.5525 18.7826 11.5152 18.8315C11.4663 18.8936 11.4175 18.9557 11.3672 19.0197C11.3194 19.0813 11.2715 19.143 11.2222 19.2065C11.0257 19.4141 10.8378 19.5345 10.5547 19.5876C10.2185 19.5834 9.95915 19.5163 9.70828 19.2748C9.6808 19.2461 9.65333 19.2173 9.62502 19.1877C9.62444 19.2564 9.62386 19.3251 9.62325 19.396C9.62076 19.6513 9.61665 19.9066 9.61205 20.1619C9.61029 20.2724 9.60897 20.3828 9.60809 20.4933C9.60675 20.6522 9.60383 20.811 9.60061 20.9699C9.60053 21.0192 9.60046 21.0685 9.60038 21.1193C9.59442 21.3432 9.58228 21.4742 9.44467 21.6549C9.28832 21.7676 9.1926 21.8033 9.00002 21.8127C8.8259 21.7681 8.72293 21.7376 8.61761 21.589C8.53912 21.3734 8.54016 21.1615 8.53665 20.9347C8.53483 20.8624 8.53483 20.8624 8.53298 20.7887C8.52925 20.6352 8.52635 20.4818 8.52346 20.3283C8.52108 20.224 8.51863 20.1198 8.51614 20.0155C8.51015 19.7604 8.50489 19.5053 8.50002 19.2502C8.44202 19.2901 8.38401 19.3301 8.32424 19.3713C8.03682 19.5572 7.83923 19.5857 7.50002 19.5627C6.73463 19.2392 6.23425 18.3337 5.75002 17.6877C5.71545 17.6416 5.68088 17.5955 5.64526 17.548C5.61796 17.5116 5.59065 17.4752 5.56252 17.4377C4.54136 17.5884 3.19289 17.8293 2.52615 18.6903C1.94404 19.5586 1.97331 20.7746 1.86721 21.7814C1.84248 22.0124 1.81763 22.2434 1.79267 22.4744C1.77728 22.6173 1.76204 22.7602 1.74697 22.903C1.71446 23.2081 1.68101 23.5108 1.62502 23.8127C1.69246 23.8157 1.75989 23.8188 1.82937 23.8219C2.53542 23.8564 3.23527 23.92 3.93752 24.0002C3.93938 23.9298 3.93938 23.9298 3.94128 23.8579C3.94726 23.6436 3.9541 23.4293 3.96096 23.215C3.9629 23.1412 3.96483 23.0673 3.96682 22.9913C3.99511 22.1496 3.99511 22.1496 4.19924 21.8166C4.38764 21.7061 4.53752 21.7241 4.75002 21.7502C4.93582 21.8773 4.99003 21.9545 5.03816 22.1745C5.0615 22.3668 5.06407 22.5406 5.05385 22.7337C5.05035 22.8037 5.04684 22.8737 5.04323 22.9459C5.0369 23.0597 5.0369 23.0597 5.03045 23.1758C5.02629 23.2565 5.02213 23.3371 5.01785 23.4202C5.00647 23.6406 4.99458 23.861 4.98258 24.0814C4.97008 24.3124 4.958 24.5434 4.94588 24.7744C4.92545 25.1622 4.9047 25.55 4.88375 25.9378C4.85955 26.3858 4.8358 26.8338 4.81229 27.2819C4.78966 27.7134 4.76676 28.1449 4.74372 28.5764C4.73392 28.7598 4.72421 28.9432 4.71457 29.1266C4.70107 29.3828 4.68719 29.6389 4.67327 29.8951C4.66931 29.9711 4.66534 30.0471 4.66126 30.1254C4.6574 30.1953 4.65354 30.2651 4.64957 30.337C4.64632 30.3976 4.64307 30.4581 4.63972 30.5204C4.62533 30.6842 4.598 30.8398 4.56252 31.0002C4.6139 30.9995 4.66528 30.9989 4.71821 30.9982C4.95147 30.9956 5.18472 30.994 5.41799 30.9923C5.49884 30.9913 5.57969 30.9903 5.66299 30.9892C5.74094 30.9888 5.81888 30.9884 5.89919 30.988C5.97087 30.9873 6.04255 30.9866 6.1164 30.986C6.37185 31.0045 6.55108 31.0586 6.74221 31.2306C6.84601 31.444 6.80749 31.5869 6.75002 31.8127C6.68189 31.9183 6.68189 31.9183 6.56252 32.0002C6.40263 32.019 6.25787 32.0264 6.09791 32.0254C6.02714 32.0261 6.02714 32.0261 5.95493 32.0267C5.79865 32.0279 5.6424 32.0276 5.48611 32.0273C5.37717 32.0275 5.26824 32.0279 5.1593 32.0283C4.93059 32.0288 4.7019 32.0287 4.47318 32.028C4.18142 32.0273 3.88971 32.0286 3.59795 32.0304C3.37269 32.0316 3.14744 32.0315 2.92217 32.0312C2.81471 32.0312 2.70724 32.0315 2.59978 32.0323C1.75229 32.0376 1.14714 31.9481 0.51272 31.3446C-0.101838 30.644 -0.0396017 29.8134 2.44658e-05 28.9377C0.047005 28.2989 0.122399 27.6626 0.195779 27.0264C0.22373 26.7828 0.250854 26.5391 0.278096 26.2954C0.323869 25.887 0.370223 25.4787 0.416971 25.0704C0.470687 24.6011 0.52361 24.1319 0.576081 23.6625C0.632485 23.1581 0.68946 22.6537 0.746603 22.1493C0.762813 22.0059 0.778921 21.8625 0.795004 21.7191C1.16672 18.4104 1.16672 18.4104 2.17922 17.5229C2.69797 17.1093 3.28479 16.8897 3.91799 16.715C3.98385 16.6962 4.0497 16.6774 4.11755 16.658C4.39824 16.5783 4.6791 16.5008 4.96267 16.432C5.4599 16.3105 5.87592 16.1427 6.32327 15.8996C6.50002 15.8127 6.50002 15.8127 6.68752 15.8127C6.70152 15.4891 6.69707 15.1922 6.62502 14.8752C6.48891 14.7336 6.36321 14.6756 6.18508 14.5944C5.96344 14.4815 5.79286 14.3333 5.61331 14.1642C5.58141 14.1342 5.54951 14.1042 5.51664 14.0732C5.0731 13.649 4.73481 13.225 4.43752 12.6877C4.40284 12.6282 4.40284 12.6282 4.36746 12.5675C4.02863 11.9505 3.91386 11.2525 3.83718 10.5617C3.8235 10.3801 3.8235 10.3801 3.75002 10.2502C3.63414 10.1928 3.51665 10.1386 3.39846 10.0861C2.94287 9.86345 2.69798 9.60238 2.44143 9.17204C2.3302 8.77946 2.28991 8.36705 2.46804 7.99162C2.61213 7.67884 2.59286 7.35047 2.59768 7.01188C2.60172 6.87157 2.60604 6.73127 2.61062 6.59098C2.61285 6.5223 2.61507 6.45362 2.61736 6.38285C2.6947 4.41226 3.4627 2.79813 4.90487 1.46034C5.12998 1.25884 5.36618 1.09267 5.62502 0.937661C5.69206 0.896734 5.75909 0.855806 5.82815 0.813638C7.37244 -0.0885238 9.36005 -0.302097 11.0625 0.250161ZM5.50002 2.31266C5.44363 2.36334 5.38723 2.41401 5.32913 2.46623C4.33848 3.40077 3.67324 4.75001 3.62502 6.12516C3.62102 6.39609 3.62126 6.66673 3.62502 6.93766C4.0694 6.89829 4.35956 6.83071 4.66628 6.49699C4.83867 6.2462 4.89002 6.00068 4.93357 5.70173C4.99106 5.31631 5.04809 4.9885 5.32546 4.69792C5.84559 4.36023 6.52366 4.48264 7.10281 4.56266C7.67677 4.63523 8.24604 4.64419 8.82397 4.64146C8.99164 4.64079 9.15926 4.64146 9.32693 4.64225C9.96958 4.64271 10.598 4.607 11.2359 4.52924C12.3569 4.3959 12.3569 4.3959 12.8125 4.75016C13.1007 5.03831 13.1482 5.36158 13.2234 5.74626C13.3104 6.14832 13.39 6.51289 13.75 6.75016C13.9966 6.83769 14.2424 6.89388 14.5 6.93766C14.5581 5.3213 14.1312 3.88842 13.0469 2.66813C11.9888 1.5324 10.5659 1.05908 9.06252 0.937661C7.77032 0.937661 6.44915 1.43739 5.50002 2.31266ZM6.00002 5.43766C5.91208 5.68119 5.84967 5.92381 5.79299 6.17594C5.66763 6.67553 5.53134 7.02904 5.08547 7.30387C4.869 7.49295 4.795 7.63961 4.76379 7.9188C4.7464 8.22486 4.75054 8.52999 4.75979 8.83628C4.76558 9.02916 4.76747 9.22175 4.76858 9.41471C4.77891 10.3001 4.79629 11.239 5.23831 12.0314C5.26043 12.073 5.28256 12.1147 5.30535 12.1575C5.4698 12.4606 5.64388 12.743 5.87502 13.0002C5.91837 13.05 5.96171 13.0997 6.00637 13.151C6.69252 13.8908 7.66548 14.3978 8.68337 14.4504C9.97251 14.4733 11.1078 14.1497 12.0625 13.2502C12.1275 13.189 12.1275 13.189 12.1939 13.1266C13.2199 12.0689 13.36 10.6916 13.3623 9.28602C13.3633 9.08405 13.3687 8.88247 13.3742 8.68058C13.4042 8.02942 13.4042 8.02942 13.1913 7.43533C13.0503 7.3136 12.9095 7.22055 12.75 7.12516C12.4432 6.69855 12.3279 6.24265 12.2703 5.72624C12.2594 5.56412 12.2594 5.56412 12.1875 5.43766C11.81 5.43178 11.4501 5.45229 11.076 5.49919C10.4903 5.56618 9.91089 5.58185 9.32179 5.57896C9.16044 5.57829 8.99914 5.57896 8.83779 5.57975C8.23998 5.58018 7.6529 5.55213 7.05902 5.48134C6.70457 5.43999 6.35677 5.43102 6.00002 5.43766ZM20.586 6.56266C20.0258 7.03059 19.3694 7.31539 18.6875 7.56266C18.4995 10.4809 18.4995 10.4809 19.7373 13.0439C20.5449 13.8872 21.5866 14.4132 22.7593 14.4625C23.8767 14.483 24.9071 14.117 25.75 13.3752C25.793 13.3373 25.8361 13.2994 25.8804 13.2604C26.6956 12.4951 27.1412 11.4362 27.196 10.328C27.2139 9.75735 27.2139 9.75735 27.1875 9.18766C27.0722 9.07233 26.9061 9.10133 26.7513 9.08799C24.5859 8.90092 22.6189 7.9965 21.1111 6.41715C20.8861 6.20552 20.7801 6.38901 20.586 6.56266ZM3.59377 8.0861C3.42777 8.26041 3.38338 8.31392 3.35159 8.54704C3.38424 8.83003 3.48777 8.92541 3.68752 9.12516C3.72877 9.12516 3.77002 9.12516 3.81252 9.12516C3.81252 8.73329 3.81252 8.34141 3.81252 7.93766C3.72166 7.93049 3.72166 7.93049 3.59377 8.0861ZM14.3125 7.93766C14.3125 8.32954 14.3125 8.72141 14.3125 9.12516C14.6364 8.96652 14.6364 8.96652 14.8047 8.66813C14.8155 8.43649 14.7509 8.3181 14.625 8.12516C14.5219 8.06329 14.4188 8.00141 14.3125 7.93766ZM7.68752 15.2502C7.63663 15.4938 7.62824 15.6948 7.68752 15.9377C7.88292 16.174 8.10496 16.3585 8.34429 16.5486C8.50321 16.6791 8.64077 16.8293 8.78127 16.9789C8.88775 17.074 8.99533 17.1292 9.12502 17.1877C9.17336 17.1386 9.2217 17.0895 9.27151 17.039C9.62833 16.6785 9.98761 16.3281 10.375 16.0002C10.4554 15.9339 10.4554 15.9339 10.4436 15.7812C10.4429 15.7181 10.4422 15.655 10.4414 15.59C10.4409 15.5268 10.4403 15.4635 10.4397 15.3984C10.439 15.3495 10.4383 15.3005 10.4375 15.2502C10.4038 15.2592 10.3702 15.2682 10.3355 15.2775C9.50491 15.465 8.51192 15.4711 7.68752 15.2502ZM21.5 15.2502C21.4977 15.3323 21.4954 15.4144 21.4929 15.4989C21.4888 15.6074 21.4847 15.7159 21.4805 15.8244C21.4791 15.8784 21.4777 15.9324 21.4762 15.9881C21.4635 16.2902 21.446 16.5052 21.25 16.7502C21.0007 16.9425 20.7397 16.9961 20.4375 17.0627C20.9273 17.6906 21.6384 18.1331 22.4375 18.2502C23.5237 18.3154 24.3427 18.0476 25.1917 17.3669C25.3274 17.2538 25.3274 17.2538 25.375 17.0627C25.3335 17.0528 25.292 17.0428 25.2493 17.0326C24.8988 16.94 24.6678 16.8597 24.4375 16.5627C24.3821 16.3965 24.3638 16.2826 24.3552 16.1108C24.3526 16.0606 24.35 16.0105 24.3473 15.9588C24.3449 15.9067 24.3424 15.8546 24.3399 15.8009C24.3372 15.7481 24.3345 15.6953 24.3317 15.6409C24.3251 15.5107 24.3188 15.3804 24.3125 15.2502C24.2736 15.2592 24.2347 15.2682 24.1946 15.2775C23.3196 15.4532 22.3704 15.452 21.5 15.2502ZM18.4375 15.9377C18.7206 16.2339 18.7206 16.2339 19.0625 16.4377C19.3197 16.4135 19.5583 16.3411 19.8047 16.2658C19.8716 16.2468 19.9385 16.2278 20.0073 16.2082C20.1721 16.1611 20.3362 16.1126 20.5 16.0627C20.5 16.0214 20.5 15.9802 20.5 15.9377C19.8194 15.9377 19.1388 15.9377 18.4375 15.9377ZM13.3867 17.4003C12.8044 18.0918 12.5913 18.8575 12.5625 19.7502C12.6126 19.7345 12.6126 19.7345 12.6636 19.7184C12.7102 19.7057 12.7567 19.693 12.8047 19.6798C12.8497 19.6668 12.8946 19.6537 12.9409 19.6403C13.1215 19.6255 13.2417 19.6444 13.417 19.6828C14.4294 19.904 15.4222 19.7853 16.3008 19.2277C16.507 19.073 16.6597 18.8938 16.8125 18.6877C17.0536 18.3796 17.0536 18.3796 17.1875 18.3127C17.4549 18.2806 17.6778 18.274 17.918 18.4025C18.0453 18.5435 18.1375 18.6763 18.2383 18.8361C18.4736 19.2023 18.7646 19.4622 19.1875 19.5861C19.2494 19.599 19.3113 19.6119 19.375 19.6252C19.432 18.7845 19.0964 18.006 18.5723 17.3576C17.987 16.734 17.1736 16.2869 16.3145 16.2353C15.1533 16.2067 14.1992 16.5371 13.3867 17.4003ZM11.0625 16.6877C10.889 16.8488 10.716 17.0104 10.543 17.172C10.4939 17.2176 10.4448 17.2632 10.3942 17.3102C10.3232 17.3767 10.3232 17.3767 10.2508 17.4445C10.2072 17.4851 10.1637 17.5257 10.1188 17.5675C9.98031 17.7022 9.98031 17.7022 9.81252 17.9377C9.99815 18.1233 10.1838 18.3089 10.375 18.5002C10.6277 18.3147 10.8144 18.1054 11 17.8556C11.0407 17.8018 11.0407 17.8018 11.0823 17.7468C11.2675 17.5009 11.4489 17.2526 11.625 17.0002C11.446 16.8543 11.2776 16.7697 11.0625 16.6877ZM6.56252 16.9377C6.66037 17.2498 6.84694 17.4699 7.05081 17.7189C7.08339 17.7596 7.11598 17.8003 7.14956 17.8422C7.33828 18.0755 7.53371 18.2922 7.75002 18.5002C7.84415 18.4094 7.93781 18.3182 8.03127 18.2267C8.08348 18.176 8.13569 18.1252 8.18948 18.0729C8.32654 17.9527 8.32654 17.9527 8.31252 17.8127C8.2177 17.7168 8.2177 17.7168 8.09377 17.6173C7.85693 17.4167 7.63852 17.2043 7.42263 16.9814C7.10016 16.6703 6.93145 16.7409 6.56252 16.9377ZM26.4375 17.3752C26.4087 17.4145 26.3798 17.4538 26.3501 17.4943C25.8411 18.1623 25.2759 18.5419 24.5276 18.8962C24.3118 18.9944 24.3118 18.9944 24.125 19.1252C24.8582 19.6043 24.8582 19.6043 25.7031 19.7658C26.0401 19.6535 26.1995 19.4946 26.375 19.1877C26.5896 18.6199 26.6672 18.0414 26.6875 17.4377C26.605 17.417 26.5225 17.3964 26.4375 17.3752ZM20.1875 18.3127C20.1958 18.3543 20.2041 18.396 20.2127 18.4389C20.2923 18.8544 20.344 19.2658 20.375 19.6877C20.8404 19.6665 21.3337 19.4588 21.6787 19.1442C21.7023 19.1173 21.7258 19.0904 21.75 19.0627C21.7091 19.0497 21.6682 19.0367 21.626 19.0234C21.1499 18.8626 20.7401 18.6367 20.3125 18.3752C20.2713 18.3545 20.23 18.3339 20.1875 18.3127ZM11.6875 18.5002C11.75 18.6252 11.75 18.6252 11.75 18.6252L11.6875 18.5002ZM17.1758 19.7541C16.3245 20.5252 15.3514 20.7213 14.2344 20.6994C14.1505 20.6984 14.0666 20.6976 13.9827 20.6968C13.7801 20.6946 13.5776 20.6916 13.375 20.6877C13.3703 20.9432 13.367 21.1988 13.3647 21.4544C13.3638 21.5411 13.3625 21.6278 13.3609 21.7144C13.3441 22.6261 13.5079 23.345 14.125 24.0431C14.7128 24.5992 15.461 24.7818 16.2427 24.7675C16.9197 24.7363 17.528 24.3786 17.9844 23.8908C18.5505 23.2012 18.6552 22.4284 18.6722 21.5648C18.6746 21.4745 18.6785 21.3844 18.6838 21.2943C18.7009 20.9989 18.703 20.7261 18.625 20.4377C18.4642 20.2746 18.3178 20.1854 18.1113 20.0881C17.874 19.9681 17.7405 19.7994 17.5777 19.5942C17.552 19.5631 17.5264 19.5321 17.5 19.5002C17.3747 19.5002 17.2579 19.6738 17.1758 19.7541ZM12.25 20.9377C12.1148 21.1406 12.1015 21.2029 12.125 21.4377C12.1869 21.5305 12.1869 21.5305 12.25 21.6252C12.2913 21.6252 12.3325 21.6252 12.375 21.6252C12.375 21.3983 12.375 21.1714 12.375 20.9377C12.3338 20.9377 12.2925 20.9377 12.25 20.9377ZM19.625 20.9377C19.625 21.1645 19.625 21.3914 19.625 21.6252C19.7604 21.5211 19.7604 21.5211 19.875 21.3752C19.8805 21.21 19.8805 21.21 19.8125 21.0627C19.7507 21.0214 19.6888 20.9802 19.625 20.9377ZM1.50002 24.8127C1.36796 25.8016 1.24073 26.7913 1.12612 27.7825C1.11518 27.8764 1.10402 27.9702 1.09262 28.0641C1.03082 28.5749 0.987587 29.0839 0.977564 29.5986C0.975039 29.6665 0.975039 29.6665 0.972463 29.7359C0.970465 30.1142 1.07892 30.4442 1.34273 30.7232C1.63125 30.9733 1.84195 31.0079 2.21365 31.0063C2.28424 31.0061 2.35483 31.006 2.42756 31.0058C2.51812 31.0052 2.60868 31.0046 2.69924 31.0041C2.85324 31.0033 3.00724 31.0027 3.16123 31.002C3.23698 31.0016 3.31272 31.0013 3.39075 31.0009C3.44744 31.0007 3.50412 31.0004 3.56252 31.0002C3.65117 29.7512 3.72322 28.5022 3.7805 27.2515C3.79107 27.0209 3.80213 26.7903 3.81329 26.5597C3.82193 26.3798 3.83028 26.2 3.83854 26.0201C3.8425 25.9348 3.84656 25.8496 3.85073 25.7643C3.85643 25.6472 3.86167 25.5301 3.86689 25.4129C3.86998 25.3466 3.87308 25.2802 3.87626 25.2118C3.89248 25.0655 3.89248 25.0655 3.81252 25.0002C3.53265 24.9573 3.25034 24.932 2.96877 24.9025C2.8903 24.8938 2.81183 24.8852 2.73098 24.8763C2.3181 24.8323 1.9152 24.8023 1.50002 24.8127ZM28.9961 24.9064C28.9114 24.9155 28.8266 24.9245 28.7418 24.9335C28.5362 24.9555 28.3306 24.9777 28.125 25.0002C28.1609 26.113 28.2081 27.2246 28.2689 28.3363C28.2815 28.5661 28.2937 28.7958 28.3059 29.0256C28.314 29.1746 28.322 29.3237 28.3301 29.4728C28.3337 29.54 28.3373 29.6072 28.341 29.6764C28.3653 30.1185 28.3985 30.5592 28.4375 31.0002C28.7214 31.0054 29.0052 31.0089 29.2891 31.0119C29.4096 31.0142 29.4096 31.0142 29.5325 31.0166C29.6102 31.0172 29.688 31.0179 29.7681 31.0185C29.8394 31.0195 29.9108 31.0204 29.9843 31.0214C30.2529 30.9933 30.4626 30.9037 30.6631 30.7211C30.9353 30.3697 31.0235 30.1479 31.0213 29.7028C31.0211 29.6519 31.0209 29.601 31.0207 29.5486C31.0067 28.7424 30.8961 27.9404 30.8009 27.1405C30.7798 26.9621 30.7593 26.7835 30.7388 26.605C30.6964 26.2358 30.6536 25.8666 30.6098 25.4975C30.5983 25.4007 30.5983 25.4007 30.5867 25.3019C30.5641 25.1369 30.5347 24.9754 30.5 24.8127C29.9934 24.7993 29.4994 24.8513 28.9961 24.9064ZM15.25 25.6877C15.2307 25.8063 15.2114 25.9249 15.1914 26.047C15.1562 26.2633 15.1195 26.476 15.0625 26.6877C15.5813 26.9588 16.0596 27.0294 16.6289 26.8556C16.7659 26.8149 16.7659 26.8149 16.875 26.7502C16.9576 26.5704 16.9576 26.5704 16.8828 26.4298C16.8125 26.2502 16.8125 26.2502 16.75 25.6877C16.255 25.6877 15.76 25.6877 15.25 25.6877ZM11.8418 27.7209C11.2394 28.5194 11.3386 30.0355 11.25 31.0002C11.6419 31.0002 12.0338 31.0002 12.4375 31.0002C12.4941 30.7737 12.5164 30.5758 12.5313 30.3439C12.5458 30.1176 12.5609 29.9057 12.625 29.6877C13.0834 29.6113 13.0834 29.6113 13.2774 29.6759C13.375 29.7502 13.375 29.7502 13.4375 29.8752C13.4375 30.2464 13.4375 30.6177 13.4375 31.0002C15.1288 31.0002 16.82 31.0002 18.5625 31.0002C18.5625 30.6495 18.5625 30.2989 18.5625 29.9377C18.5831 29.8552 18.6038 29.7727 18.625 29.6877C19.0834 29.6113 19.0834 29.6113 19.2774 29.6759C19.401 29.7699 19.432 29.8403 19.4561 29.9926C19.461 30.0391 19.4659 30.0856 19.471 30.1335C19.4759 30.1788 19.4808 30.2242 19.4859 30.2709C19.4948 30.3573 19.4948 30.3573 19.5039 30.4455C19.5233 30.6285 19.5426 30.8116 19.5625 31.0002C19.9544 31.0002 20.3463 31.0002 20.75 31.0002C20.7184 30.6733 20.6864 30.3465 20.6535 30.0198C20.6424 29.9089 20.6316 29.798 20.621 29.687C20.5404 28.4699 20.5404 28.4699 19.875 27.5002C19.55 27.287 19.165 27.2033 18.793 27.1056C18.7496 27.0941 18.7062 27.0826 18.6615 27.0708C18.3573 26.9923 18.3573 26.9923 18.0625 27.0627C17.9534 27.1388 17.8469 27.2187 17.7422 27.3009C17.0662 27.8053 16.3965 27.9358 15.5625 27.8752C14.9804 27.7647 14.3756 27.5196 13.9615 27.0805C13.5757 26.722 12.1535 27.4092 11.8418 27.7209Z" fill="#1B98E0"/>
</g>
<defs>
<clipPath id="clip0_408_181">
<rect width="32" height="32" fill="white"/>
</clipPath>
</defs>
</svg>
