<svg width="30" height="30" viewBox="0 0 30 30" fill="none" xmlns="http://www.w3.org/2000/svg">
<g id="Frame" clip-path="url(#clip0_2509_30670)">
<g id="Layer_x0020_1">
<g id="_269669856">
<g id="Group">
<path id="Vector" fill-rule="evenodd" clip-rule="evenodd" d="M11.6696 10.1581C11.5993 10.1581 11.5466 10.1406 11.4763 10.1054C11.3181 9.99996 11.2654 9.78906 11.3884 9.61331C12.0562 8.59398 13.0756 7.83827 14.2707 7.50435C16.4323 6.88924 18.7346 7.73282 19.9649 9.61331C20.0703 9.78906 20.0176 9.99996 19.8594 10.1054C19.7012 10.2109 19.4903 10.1757 19.3849 9.99996C18.3128 8.38308 16.3269 7.64495 14.464 8.17219C13.4271 8.47096 12.5483 9.12122 11.9684 9.99996C11.8981 10.1054 11.7926 10.1581 11.6696 10.1581Z" fill="#403685"/>
</g>
<g id="Group_2">
<path id="Vector_2" fill-rule="evenodd" clip-rule="evenodd" d="M26.3269 10.1579H26.3093H3.67311C3.49736 10.1579 3.33919 10.0348 3.32162 9.85909C3.28647 9.70091 3.39191 9.52517 3.56766 9.47244L24.3409 2.95223C24.4464 2.91708 24.5343 2.91708 24.6221 2.96981C24.71 3.02253 24.7627 3.09283 24.7979 3.1807L26.6432 9.66576C26.6608 9.70091 26.6784 9.75364 26.6784 9.80636C26.6784 9.99968 26.5202 10.1579 26.3269 10.1579ZM5.95782 9.45487H25.8524L24.2179 3.72552L5.95782 9.45487Z" fill="#403685"/>
</g>
<g id="Group_3">
<path id="Vector_3" fill-rule="evenodd" clip-rule="evenodd" d="M9.2443 10.1583C9.08612 10.1583 8.94553 10.0705 8.91038 9.9123C8.85765 9.71898 8.9631 9.52566 9.13885 9.47293L12.355 8.55905C12.5483 8.50633 12.7417 8.61177 12.7944 8.8051C12.8471 8.98084 12.7417 9.19174 12.5483 9.24446L9.33217 10.1583C9.3146 10.1583 9.27945 10.1583 9.2443 10.1583ZM23.3041 10.1583C23.1459 10.1583 23.0053 10.0705 22.9526 9.9123L22.3726 7.87364C21.6696 7.92636 21.0018 7.55729 20.6678 6.9246L16.6432 8.06696C16.4499 8.11968 16.2566 8.01424 16.2039 7.83849C16.1512 7.64517 16.2566 7.45185 16.4499 7.39912L20.7909 6.16889C20.9666 6.11617 21.1599 6.22162 21.2127 6.39736C21.3708 6.95975 21.9684 7.29367 22.5308 7.1355C22.7241 7.08278 22.9174 7.18822 22.9701 7.38155L23.638 9.71898C23.6907 9.9123 23.5852 10.1056 23.3919 10.1583C23.3568 10.1583 23.3216 10.1583 23.3041 10.1583Z" fill="#403685"/>
</g>
<g id="Group_4">
<path id="Vector_4" fill-rule="evenodd" clip-rule="evenodd" d="M22.0211 5.81702C21.8629 5.81702 21.7223 5.72914 21.6872 5.57097C21.6344 5.37765 21.7399 5.18433 21.9332 5.1316L23.4798 4.69224C23.6731 4.63951 23.8664 4.74496 23.9192 4.93828C23.9719 5.11403 23.8664 5.30735 23.6731 5.36008L22.1265 5.81702C22.0914 5.81702 22.0562 5.81702 22.0211 5.81702Z" fill="#403685"/>
</g>
<g id="Group_5">
<path id="Vector_5" fill-rule="evenodd" clip-rule="evenodd" d="M27.1177 29.9999H2.88225C1.88049 29.9999 1.07205 29.1739 1.07205 28.1897V11.2653C1.07205 10.2811 1.88049 9.45508 2.88225 9.45508H27.1177C28.1019 9.45508 28.9104 10.2811 28.9104 11.2653V28.1897C28.9104 29.1739 28.1019 29.9999 27.1177 29.9999ZM2.88225 10.1581C2.26713 10.1581 1.77504 10.6677 1.77504 11.2653V28.1897C1.77504 28.7872 2.26713 29.2969 2.88225 29.2969H27.1177C27.7153 29.2969 28.2074 28.7872 28.2074 28.1897V11.2653C28.2074 10.6677 27.7153 10.1581 27.1177 10.1581H2.88225Z" fill="#403685"/>
</g>
<g id="Group_6">
<path id="Vector_6" fill-rule="evenodd" clip-rule="evenodd" d="M28.5589 27.2228H1.42355C1.23022 27.2228 1.07205 27.0646 1.07205 26.8713V13.2509C1.07205 13.0576 1.23022 12.8994 1.42355 12.8994H28.5589C28.7522 12.8994 28.9104 13.0576 28.9104 13.2509V26.8713C28.9104 27.0646 28.7522 27.2228 28.5589 27.2228ZM1.77504 26.5198H28.2074V13.6024H1.77504V26.5198Z" fill="#403685"/>
</g>
<g id="Group_7">
<path id="Vector_7" fill-rule="evenodd" clip-rule="evenodd" d="M28.5589 23.1277H21.8102C21.3884 23.1277 21.0545 22.7938 21.0545 22.372V17.7499C21.0545 17.3281 21.3884 16.9941 21.8102 16.9941H28.5589C28.7522 16.9941 28.9104 17.1347 28.9104 17.3456V22.7762C28.9104 22.9695 28.7522 23.1277 28.5589 23.1277ZM21.8102 17.6971C21.775 17.6971 21.7575 17.7147 21.7575 17.7499V22.372C21.7575 22.4071 21.775 22.4247 21.8102 22.4247H28.2074V17.6971H21.8102Z" fill="#403685"/>
</g>
<g id="Group_8">
<path id="Vector_8" fill-rule="evenodd" clip-rule="evenodd" d="M28.0668 10.5271C27.9789 10.5271 27.9086 10.5095 27.8383 10.4392C27.645 10.2635 27.3814 10.158 27.1177 10.158H26.3093C26.1511 10.158 26.0281 10.0702 25.9754 9.91199L24.2179 3.72569L5.2724 9.68351C5.18453 9.70109 5.07908 9.70109 5.00878 9.64837C4.92091 9.61322 4.85061 9.52534 4.83303 9.43747L3.98945 6.41462C3.93672 6.2213 4.04217 6.02798 4.23549 5.97525L25.1845 0.0174323C25.3603 -0.0352918 25.5536 0.0701564 25.6063 0.263478L28.4007 10.0877C28.4534 10.2283 28.3831 10.3865 28.2601 10.4744C28.2074 10.5095 28.1371 10.5271 28.0668 10.5271ZM26.5729 9.45504H27.1177C27.2408 9.45504 27.3814 9.47262 27.522 9.50777L25.0264 0.790719L4.76273 6.55522L5.413 8.89265L24.3409 2.95241C24.4464 2.91726 24.5343 2.91726 24.6221 2.96998C24.71 3.02271 24.7627 3.093 24.7979 3.18088L26.5729 9.45504Z" fill="#403685"/>
</g>
<g id="Group_9">
<path id="Vector_9" fill-rule="evenodd" clip-rule="evenodd" d="M22.8471 2.72434C22.6889 2.72434 22.5483 2.61889 22.5132 2.46072C22.4429 2.28497 22.5659 2.09165 22.7417 2.03892L24.3058 1.59956C24.4816 1.54683 24.6749 1.65228 24.7276 1.82803C24.7979 2.02135 24.6749 2.21467 24.4991 2.26739L22.935 2.70676C22.8998 2.72434 22.8823 2.72434 22.8471 2.72434Z" fill="#403685"/>
</g>
<g id="Group_10">
<path id="Vector_10" fill-rule="evenodd" clip-rule="evenodd" d="M24.9912 21.5463C24.1652 21.5463 23.4974 20.8785 23.4974 20.0524C23.4974 19.244 24.1652 18.5762 24.9912 18.5762C25.7997 18.5762 26.4675 19.244 26.4675 20.0524C26.4675 20.8785 25.7997 21.5463 24.9912 21.5463ZM24.9912 19.2792C24.5519 19.2792 24.2004 19.6307 24.2004 20.0524C24.2004 20.4918 24.5519 20.8433 24.9912 20.8433C25.413 20.8433 25.7645 20.4918 25.7645 20.0524C25.7645 19.6307 25.413 19.2792 24.9912 19.2792Z" fill="#403685"/>
</g>
</g>
</g>
</g>
<defs>
<clipPath id="clip0_2509_30670">
<rect width="30" height="30" fill="white"/>
</clipPath>
</defs>
</svg>
