<svg width="67" height="67" viewBox="0 0 67 67" fill="none" xmlns="http://www.w3.org/2000/svg">
<g id="Frame" clip-path="url(#clip0_1891_71173)">
<g id="Layer_x0020_1">
<path id="Vector" fill-rule="evenodd" clip-rule="evenodd" d="M37.7978 40.1137H10.3227C9.14522 40.1137 9.14522 38.3081 10.3227 38.3081H37.7978C38.9753 38.3081 38.9753 40.1137 37.7978 40.1137ZM35.6391 64.959H10.9507C6.39771 64.959 2.66895 61.2302 2.66895 56.6772V17.2701C2.66895 12.6778 6.39771 8.98828 10.9507 8.98828H13.1095V5.37727C13.1095 4.86702 13.502 4.47452 14.0122 4.47452H19.939C19.7428 2.08026 21.6268 0 24.0603 0C26.4545 0 28.3778 2.08026 28.1815 4.47452H34.1083C34.6186 4.47452 35.0111 4.86702 35.0111 5.37727V8.98828H37.1698C41.7228 8.98828 45.4516 12.6778 45.4516 17.2701V50.3972C48.1991 51.8887 50.0831 54.7932 50.0831 58.1687C50.0831 65.6262 41.3303 69.7083 35.6391 64.959ZM13.1095 10.7545H10.9507C7.37896 10.7545 4.4352 13.6591 4.4352 17.2701V56.6772C4.4352 60.249 7.37896 63.1535 10.9507 63.1535H33.9906C29.3198 56.4417 35.7176 47.4142 43.6461 49.6514V17.2701C43.6461 13.6591 40.7416 10.7545 37.1698 10.7545H35.0111V14.3656C35.0111 14.8366 34.6186 15.2683 34.1083 15.2683H14.0122C13.502 15.2683 13.1095 14.8366 13.1095 14.3656V10.7545ZM14.8757 13.4628H33.2056V6.28002H27.0825C26.4153 6.28002 25.9835 5.61277 26.219 5.02402C26.847 3.49326 25.748 1.76626 24.0603 1.76626C22.3725 1.76626 21.2343 3.49326 21.8623 5.02402C22.0978 5.61277 21.666 6.28002 21.038 6.28002H14.8757V13.4628ZM22.3333 59.5032H10.3227C9.14522 59.5032 9.14522 57.6977 10.3227 57.6977H22.3333C23.5108 57.6977 23.5108 59.5032 22.3333 59.5032ZM28.4563 53.0269H10.3227C9.14522 53.0269 9.14522 51.2607 10.3227 51.2607H28.4563C29.6338 51.2607 29.6338 53.0269 28.4563 53.0269ZM37.7978 46.5507H10.3227C9.14522 46.5507 9.14522 44.7844 10.3227 44.7844H37.7978C38.9753 44.7844 38.9753 46.5507 37.7978 46.5507ZM56.0099 64.959C55.6959 64.959 55.3819 64.7627 55.2249 64.488L47.8066 50.8682L47.7281 50.4364V8.32103C47.7281 3.72876 51.4569 0 56.0099 0C60.6022 0 64.3309 3.72876 64.3309 8.32103V50.4364C64.3309 50.6327 64.2917 50.7897 64.1739 50.9074L56.7949 64.488C56.6379 64.7627 56.3632 64.959 56.0099 64.959ZM50.1224 51.3392L56.0099 62.2115L61.9367 51.3392H50.1224ZM49.4944 49.5729H62.5254V13.031H49.4944V49.5729ZM62.5254 11.2255V8.32103C62.5254 4.71002 59.6209 1.76626 56.0099 1.76626C52.4381 1.76626 49.4944 4.71002 49.4944 8.32103V11.2255H62.5254ZM55.9706 40.1137C55.4604 40.1137 55.0679 39.7211 55.0679 39.2109V21.5876C55.0679 20.4101 56.8342 20.4101 56.8342 21.5876V39.2109C56.8342 39.7211 56.4417 40.1137 55.9706 40.1137ZM41.2518 51.1037C37.3661 51.1037 34.2261 54.283 34.2261 58.1687C34.2261 62.0545 37.3661 65.1945 41.2518 65.1945C45.1376 65.1945 48.3169 62.0545 48.3169 58.1687C48.3169 54.283 45.1376 51.1037 41.2518 51.1037ZM39.9173 61.5835C39.6818 61.5835 39.4856 61.505 39.2893 61.348L36.8558 58.9145C36.0316 58.0902 37.2876 56.795 38.1118 57.6585L39.9173 59.4247L44.3919 54.9895C45.2161 54.1652 46.4721 55.4212 45.6479 56.2455L40.5453 61.348C40.3883 61.505 40.1528 61.5835 39.9173 61.5835ZM37.7978 20.7241H10.3227C9.14522 20.7241 9.14522 18.9186 10.3227 18.9186H37.7978C38.9753 18.9186 38.9753 20.7241 37.7978 20.7241ZM37.7978 27.1611H10.3227C9.14522 27.1611 9.14522 25.3948 10.3227 25.3948H37.7978C38.9753 25.3948 38.9753 27.1611 37.7978 27.1611ZM37.7978 33.6374H10.3227C9.14522 33.6374 9.14522 31.8711 10.3227 31.8711H37.7978C38.9753 31.8711 38.9753 33.6374 37.7978 33.6374Z" fill="#403685"/>
</g>
</g>
<defs>
<clipPath id="clip0_1891_71173">
<rect width="67" height="67" fill="white"/>
</clipPath>
</defs>
</svg>
