<svg width="76" height="76" viewBox="0 0 76 76" fill="none" xmlns="http://www.w3.org/2000/svg">
<g id="Layer_1">
<path id="Vector" fill-rule="evenodd" clip-rule="evenodd" d="M47.9453 36.8865L52.3391 34.4522L56.7328 32.0178L52.25 29.4201L47.7523 26.8225L47.8562 31.8397L47.9453 36.8865ZM66.693 14.7842L68.6078 11.474C71.25 6.90217 62.2695 1.7217 59.6273 6.27873L57.7125 9.58889L47.7523 26.8522L56.7328 32.0326L66.693 14.7842ZM58.6477 41.6959H41.2508C38.5641 41.6959 36.3672 43.8928 36.3672 46.5795V58.2615C36.3672 60.9483 38.5641 63.1451 41.2508 63.1451H49.593L55.5156 71.3092V63.1451H58.6477C61.3344 63.1451 63.5312 60.9483 63.5312 58.2615V46.5795C63.5312 43.8928 61.3344 41.6959 58.6477 41.6959Z" fill="#C4C1D9"/>
<path id="Vector_2" d="M48.9406 35.1499L54.6258 32.0179L48.8219 28.6632L48.9406 35.1499ZM52.8297 35.3726L48.4359 37.7921C47.768 38.1632 46.9219 37.6882 46.907 36.9015L46.7289 27.7726C46.6102 27.7874 46.4914 27.7874 46.3727 27.7874H13.9094C9.56016 27.7874 6.0125 24.2398 6.0125 19.9054V13.6265C6.0125 9.27726 9.56016 5.74445 13.9094 5.74445H46.3578C50.6477 5.74445 54.1805 9.21789 54.2398 13.5226L58.7078 5.77414C60.4148 2.83507 64.0219 3.08742 66.5898 4.55695C69.1578 6.04132 71.1914 9.02492 69.4844 11.9937L67.5844 15.289L57.6391 32.5077C57.55 32.6859 57.4016 32.8343 57.2234 32.9382L52.8297 35.3726ZM49.1633 26.4663L56.3477 30.6077L65.2836 15.1405L58.0992 10.9991L49.1633 26.4663ZM59.1234 9.21789L66.3078 13.3593L67.7031 10.9546C68.757 9.14367 67.1539 7.25851 65.5805 6.35304C65.0312 6.04132 64.4523 5.80382 63.8734 5.67023C62.5375 5.35851 61.2016 5.6257 60.5187 6.79835L59.1234 9.21789ZM47.2484 25.6351L52.1766 17.0999V13.6265C52.1766 10.4351 49.5641 7.82257 46.3727 7.82257H13.9094C10.718 7.82257 8.09063 10.4351 8.09063 13.6265V19.8905C8.09063 23.0819 10.718 25.7093 13.9094 25.7093H46.3578L47.2484 25.6351ZM58.7375 54.7585C59.3164 54.7585 59.7766 55.2187 59.7766 55.7976C59.7766 56.3765 59.3164 56.8366 58.7375 56.8366H48.0945C47.5156 56.8366 47.0555 56.3765 47.0555 55.7976C47.0555 55.2187 47.5156 54.7585 48.0945 54.7585H58.7375ZM41.1625 56.8366C40.5836 56.8366 40.1234 56.3765 40.1234 55.7976C40.1234 55.2187 40.5836 54.7585 41.1625 54.7585H44.4727C45.0516 54.7585 45.5117 55.2187 45.5117 55.7976C45.5117 56.3765 45.0516 56.8366 44.4727 56.8366H41.1625ZM41.1625 50.8991C40.5836 50.8991 40.1234 50.439 40.1234 49.8601C40.1234 49.2812 40.5836 48.821 41.1625 48.821H51.8055C52.3844 48.821 52.8445 49.2812 52.8445 49.8601C52.8445 50.439 52.3844 50.8991 51.8055 50.8991H41.1625ZM58.7375 48.821C59.3164 48.821 59.7766 49.2812 59.7766 49.8601C59.7766 50.439 59.3164 50.8991 58.7375 50.8991H55.4273C54.8484 50.8991 54.3883 50.439 54.3883 49.8601C54.3883 49.2812 54.8484 48.821 55.4273 48.821H58.7375ZM58.6484 42.7351H41.2516C39.1586 42.7351 37.407 44.4421 37.407 46.5796V58.2616C37.407 60.3694 39.1437 62.1062 41.2516 62.1062H49.5938C49.9648 62.1062 50.2766 62.2991 50.4695 62.5812L54.4922 68.1179V63.1452C54.4922 62.5663 54.9523 62.1062 55.5312 62.1062H58.6633C60.7711 62.1062 62.5078 60.3694 62.5078 58.2616V46.5796C62.493 44.4569 60.7562 42.7351 58.6484 42.7351ZM41.2516 40.6569H58.6484C61.8992 40.6569 64.5711 43.314 64.5711 46.5796V58.2616C64.5711 61.5273 61.9141 64.1843 58.6484 64.1843H56.5555V71.3093C56.5555 72.3038 55.2641 72.7343 54.6852 71.9179L49.0594 64.1843H41.2516C37.9859 64.1843 35.3289 61.5273 35.3289 58.2616V57.3858C35.0023 57.4452 34.6461 57.4601 34.3047 57.4601H21.3016L15.0227 66.114C14.4289 66.9304 13.1523 66.4999 13.1523 65.5054V57.4601H12.2023C8.63984 57.4601 5.73047 54.5507 5.73047 50.9882V37.9999C5.73047 34.4374 8.63984 31.528 12.2023 31.528H34.3047C37.8672 31.528 40.7766 34.4374 40.7766 37.9999V40.6718C40.925 40.6569 41.0883 40.6569 41.2516 40.6569ZM35.3289 55.2632V46.5796C35.3289 44.264 36.6797 42.2155 38.6984 41.2359V37.9999C38.6984 35.5952 36.7242 33.6062 34.3047 33.6062H12.2023C9.78281 33.6062 7.80859 35.5804 7.80859 37.9999V50.9882C7.80859 53.3929 9.78281 55.3819 12.2023 55.3819H14.1914C14.7703 55.3819 15.2305 55.8421 15.2305 56.421V62.314L19.9063 55.8718C20.0844 55.5749 20.4109 55.3968 20.782 55.3968H34.3047L35.3289 55.2632ZM12.2766 41.5476C12.2766 42.1265 11.8164 42.5866 11.2375 42.5866C10.6586 42.5866 10.1984 42.1265 10.1984 41.5476C10.1984 39.0835 12.2023 37.0944 14.6516 37.0944C17.8875 37.0944 20.0398 40.4491 18.7188 43.3882C18.2289 44.4569 17.5164 44.9913 16.6555 45.6741C15.6016 46.5202 15.7055 46.4757 15.7055 47.2921C15.7055 47.871 15.2453 48.3312 14.6664 48.3312C14.0875 48.3312 13.6273 47.871 13.6273 47.2921V46.7577C13.6273 45.0655 14.8594 44.546 16.2398 43.3288C17.8727 41.9038 16.8781 39.1577 14.6664 39.1577C13.3305 39.1726 12.2766 40.2413 12.2766 41.5476ZM13.6125 50.5132C13.6125 49.9343 14.0727 49.4741 14.6516 49.4741C15.2305 49.4741 15.6906 49.9343 15.6906 50.5132V50.914C15.6906 51.4929 15.2305 51.953 14.6516 51.953C14.0727 51.953 13.6125 51.4929 13.6125 50.914V50.5132ZM32.8945 38.653C33.4734 38.653 33.9336 39.1132 33.9336 39.6921C33.9336 40.271 33.4734 40.7312 32.8945 40.7312H25.5914C25.0125 40.7312 24.5523 40.271 24.5523 39.6921C24.5523 39.1132 25.0125 38.653 25.5914 38.653H32.8945ZM22.2664 51.3741C21.6875 51.3741 21.2273 50.914 21.2273 50.3351C21.2273 49.7562 21.6875 49.296 22.2664 49.296H26.8383C27.4172 49.296 27.8773 49.7562 27.8773 50.3351C27.8773 50.914 27.4172 51.3741 26.8383 51.3741H22.2664ZM32.4492 43.9671C33.0281 43.9671 33.4883 44.4273 33.4883 45.0062C33.4883 45.5851 33.0281 46.0452 32.4492 46.0452H26.9719C26.393 46.0452 25.9328 45.5851 25.9328 45.0062C25.9328 44.4273 26.393 43.9671 26.9719 43.9671H32.4492ZM22.2664 46.0452C21.6875 46.0452 21.2273 45.5851 21.2273 45.0062C21.2273 44.4273 21.6875 43.9671 22.2664 43.9671H23.9883C24.5672 43.9671 25.0273 44.4273 25.0273 45.0062C25.0273 45.5851 24.5672 46.0452 23.9883 46.0452H22.2664ZM40.2273 21.8351C40.2273 22.414 39.7672 22.8741 39.1883 22.8741C38.6094 22.8741 38.1492 22.414 38.1492 21.8351V15.7343C38.1492 13.3296 40.0938 11.3851 42.543 11.3851C44.9328 11.3851 46.8922 13.3444 46.8922 15.7343V21.8351C46.8922 22.414 46.432 22.8741 45.8531 22.8741C45.2742 22.8741 44.8141 22.414 44.8141 21.8351V19.2226H40.2273V21.8351ZM40.2273 15.7343V17.1444H44.8141V15.7343C44.8141 13.7007 42.3203 12.7062 40.8953 14.1312C40.4797 14.5468 40.2273 15.1109 40.2273 15.7343ZM34.1266 21.3155C34.4383 21.7905 34.3047 22.4437 33.8148 22.7405C33.325 23.0523 32.6867 22.9038 32.375 22.4288L31.9445 21.7609C30.1484 24.0616 26.2148 22.8741 26.2148 20.0687C26.2148 18.9851 27.1648 17.7679 27.9961 16.8624C27.1945 15.9421 26.2148 14.6062 26.2148 13.4335C26.2148 10.8952 29.5547 9.55929 31.5586 11.3405C32.1672 11.8749 32.5383 12.6171 32.5383 13.4335C32.5383 14.0569 32.2711 14.7398 31.8703 15.3929C31.5586 15.9124 31.1578 16.4319 30.8016 16.8624C31.1578 17.2632 31.5438 17.7382 31.8555 18.228L32.3602 17.4413C32.6719 16.9663 33.3102 16.8179 33.8 17.1296C34.2898 17.4413 34.4234 18.0796 34.1117 18.5694L33.2359 19.9351L34.1266 21.3155ZM18.1844 20.3507C17.7391 19.9944 17.65 19.3562 18.0063 18.896C18.3625 18.4507 19.0008 18.3616 19.4609 18.7179L19.9805 19.1187C20.025 18.9257 20.0547 18.7327 20.0547 18.5249V15.7788C20.0547 13.7749 17.6055 12.7062 16.1508 14.1609C15.7352 14.5765 15.4828 15.1554 15.4828 15.7788V18.5249C15.4828 20.1132 17.1008 21.2413 18.6 20.6624L18.1844 20.3507ZM21.6875 20.4249L22.2516 20.8554C22.6969 21.2116 22.7859 21.8499 22.4297 22.3101C22.0734 22.7554 21.4352 22.8444 20.975 22.4882L20.3516 21.9984C17.4719 24.1507 13.3898 22.0429 13.3898 18.4952V15.7491C13.3898 13.3444 15.3492 11.3702 17.7539 11.3702C20.1586 11.3702 22.1328 13.3296 22.1328 15.7491V18.4952C22.118 19.1929 21.9695 19.846 21.6875 20.4249ZM30.193 12.8991C29.525 12.3202 28.293 12.6913 28.293 13.4484C28.293 13.9085 29.0203 14.8734 29.4062 15.3335C29.6437 15.0366 29.8961 14.6952 30.0891 14.3538C30.4156 13.7898 30.668 13.3148 30.193 12.8991ZM29.4062 18.4062C28.857 19.0148 28.293 19.6976 28.293 20.0835C28.293 20.8405 29.525 21.2116 30.193 20.6327C30.3562 20.4843 30.4602 20.2913 30.4602 20.0835C30.4602 19.6827 29.9406 18.9999 29.4062 18.4062Z" fill="#403685"/>
</g>
</svg>
