<svg width="125" height="125" viewBox="0 0 125 125" fill="none" xmlns="http://www.w3.org/2000/svg">
<g id="Frame">
<g id="Icons">
<path id="Vector" d="M104.167 14.583C116.667 14.583 122.917 22.0413 122.917 31.2497V106.25C122.917 110.67 121.161 114.909 118.036 118.035C114.91 121.16 110.671 122.916 106.251 122.916H18.7507C14.3304 122.916 10.0911 121.16 6.96554 118.035C3.83993 114.909 2.08398 110.67 2.08398 106.25V31.2497C2.08398 26.8294 3.83993 22.5902 6.96554 19.4646C10.0911 16.339 14.3304 14.583 18.7507 14.583H104.167Z" fill="#ECF0F1"/>
<path id="Vector_2" d="M112.445 59.7166C112.244 58.7221 111.7 57.8299 110.908 57.1961C110.116 56.5624 109.126 56.2274 108.111 56.2499H106.251C105.146 56.2499 104.086 55.8109 103.305 55.0295C102.523 54.2481 102.084 53.1883 102.084 52.0832V31.9645C102.103 27.6909 100.858 23.5072 98.5053 19.9396C96.1525 16.372 92.7972 13.5799 88.8614 11.9145C88.4661 11.7633 88.1252 11.4971 87.8827 11.1503C87.6402 10.8034 87.5073 10.3918 87.501 9.96864V8.68739C87.537 7.04161 86.946 5.44369 85.8478 4.21741C84.7496 2.99113 83.2262 2.22821 81.5864 2.08323C80.7379 2.03762 79.889 2.16553 79.0915 2.45914C78.2941 2.75275 77.5649 3.20589 76.9485 3.79086C76.3322 4.37583 75.8416 5.08035 75.5067 5.86136C75.1719 6.64237 74.9998 7.48346 75.001 8.33323V9.93323C74.9951 10.3604 74.86 10.7757 74.6134 11.1245C74.3669 11.4733 74.0204 11.7393 73.6198 11.8874C69.7293 13.4158 66.3892 16.0803 64.0345 19.5339C61.6797 22.9874 60.4194 27.07 60.4177 31.2499V52.0832C60.4177 53.1883 59.9787 54.2481 59.1973 55.0295C58.4159 55.8109 57.3561 56.2499 56.251 56.2499H54.3906C53.3763 56.2274 52.3865 56.5624 51.5942 57.1961C50.802 57.8299 50.258 58.7221 50.0573 59.7166C49.9553 60.3146 49.9853 60.9277 50.1449 61.513C50.3045 62.0983 50.5901 62.6416 50.9815 63.1051C51.373 63.5686 51.8609 63.941 52.4112 64.1963C52.9616 64.4516 53.561 64.5837 54.1677 64.5832H108.334C108.941 64.5837 109.54 64.4516 110.091 64.1963C110.641 63.941 111.129 63.5686 111.521 63.1051C111.912 62.6416 112.198 62.0983 112.357 61.513C112.517 60.9277 112.547 60.3146 112.445 59.7166Z" fill="#F0C419"/>
<path id="Vector_3" d="M68.7513 33.3332C68.1988 33.3332 67.6689 33.1137 67.2782 32.723C66.8875 32.3323 66.668 31.8024 66.668 31.2498C66.6609 28.3232 67.5403 25.463 69.1903 23.0458C70.8403 20.6286 73.1836 18.7677 75.9118 17.7082C76.1679 17.5989 76.4433 17.542 76.7218 17.541C77.0003 17.54 77.2762 17.5949 77.5331 17.7023C77.79 17.8097 78.0228 17.9676 78.2176 18.1665C78.4125 18.3654 78.5655 18.6014 78.6676 18.8605C78.7697 19.1196 78.8188 19.3965 78.8121 19.6749C78.8053 19.9533 78.7428 20.2275 78.6283 20.4814C78.5137 20.7352 78.3494 20.9635 78.1451 21.1527C77.9408 21.3419 77.7007 21.4883 77.4388 21.5832C75.4905 22.3389 73.8168 23.667 72.6379 25.3925C71.4591 27.118 70.8304 29.1601 70.8347 31.2498C70.8347 31.8024 70.6152 32.3323 70.2245 32.723C69.8338 33.1137 69.3039 33.3332 68.7513 33.3332Z" fill="#F3D55B"/>
<path id="Vector_4" d="M87.5 64.583V66.6663C87.5 68.3239 86.8415 69.9137 85.6694 71.0858C84.4973 72.2579 82.9076 72.9163 81.25 72.9163C79.5924 72.9163 78.0027 72.2579 76.8306 71.0858C75.6585 69.9137 75 68.3239 75 66.6663V64.583H87.5Z" fill="#F29C1F"/>
<path id="Vector_5" d="M22.9167 39.5833C25.2179 39.5833 27.0833 37.7179 27.0833 35.4167C27.0833 33.1155 25.2179 31.25 22.9167 31.25C20.6155 31.25 18.75 33.1155 18.75 35.4167C18.75 37.7179 20.6155 39.5833 22.9167 39.5833Z" fill="#FFC200"/>
<path id="Vector_6" d="M22.9167 72.9163C25.2179 72.9163 27.0833 71.0509 27.0833 68.7497C27.0833 66.4485 25.2179 64.583 22.9167 64.583C20.6155 64.583 18.75 66.4485 18.75 68.7497C18.75 71.0509 20.6155 72.9163 22.9167 72.9163Z" fill="#403685"/>
<path id="Vector_7" d="M22.9167 106.25C25.2179 106.25 27.0833 104.384 27.0833 102.083C27.0833 99.782 25.2179 97.9165 22.9167 97.9165C20.6155 97.9165 18.75 99.782 18.75 102.083C18.75 104.384 20.6155 106.25 22.9167 106.25Z" fill="#6555BC"/>
<g id="Group">
<path id="Vector_8" d="M52.084 33.3332H35.4173C34.8648 33.3332 34.3349 33.1137 33.9442 32.723C33.5535 32.3323 33.334 31.8024 33.334 31.2498C33.334 30.6973 33.5535 30.1674 33.9442 29.7767C34.3349 29.386 34.8648 29.1665 35.4173 29.1665H52.084C52.6365 29.1665 53.1664 29.386 53.5571 29.7767C53.9478 30.1674 54.1673 30.6973 54.1673 31.2498C54.1673 31.8024 53.9478 32.3323 53.5571 32.723C53.1664 33.1137 52.6365 33.3332 52.084 33.3332Z" fill="#547580"/>
<path id="Vector_9" d="M52.084 41.6667H35.4173C34.8648 41.6667 34.3349 41.4472 33.9442 41.0565C33.5535 40.6658 33.334 40.1359 33.334 39.5833C33.334 39.0308 33.5535 38.5009 33.9442 38.1102C34.3349 37.7195 34.8648 37.5 35.4173 37.5H52.084C52.6365 37.5 53.1664 37.7195 53.5571 38.1102C53.9478 38.5009 54.1673 39.0308 54.1673 39.5833C54.1673 40.1359 53.9478 40.6658 53.5571 41.0565C53.1664 41.4472 52.6365 41.6667 52.084 41.6667Z" fill="#547580"/>
<path id="Vector_10" d="M41.6673 66.6667H35.4173C34.8648 66.6667 34.3349 66.4472 33.9442 66.0565C33.5535 65.6658 33.334 65.1359 33.334 64.5833C33.334 64.0308 33.5535 63.5009 33.9442 63.1102C34.3349 62.7195 34.8648 62.5 35.4173 62.5H41.6673C42.2199 62.5 42.7498 62.7195 43.1405 63.1102C43.5312 63.5009 43.7507 64.0308 43.7507 64.5833C43.7507 65.1359 43.5312 65.6658 43.1405 66.0565C42.7498 66.4472 42.2199 66.6667 41.6673 66.6667Z" fill="#547580"/>
<path id="Vector_11" d="M62.5007 74.9997H35.4173C34.8648 74.9997 34.3349 74.7802 33.9442 74.3895C33.5535 73.9988 33.334 73.4689 33.334 72.9163C33.334 72.3638 33.5535 71.8339 33.9442 71.4432C34.3349 71.0525 34.8648 70.833 35.4173 70.833H62.5007C63.0532 70.833 63.5831 71.0525 63.9738 71.4432C64.3645 71.8339 64.584 72.3638 64.584 72.9163C64.584 73.4689 64.3645 73.9988 63.9738 74.3895C63.5831 74.7802 63.0532 74.9997 62.5007 74.9997Z" fill="#547580"/>
<path id="Vector_12" d="M108.334 99.9997H35.4173C34.8648 99.9997 34.3349 99.7802 33.9442 99.3895C33.5535 98.9988 33.334 98.4689 33.334 97.9163C33.334 97.3638 33.5535 96.8339 33.9442 96.4432C34.3349 96.0525 34.8648 95.833 35.4173 95.833H108.334C108.887 95.833 109.416 96.0525 109.807 96.4432C110.198 96.8339 110.417 97.3638 110.417 97.9163C110.417 98.4689 110.198 98.9988 109.807 99.3895C109.416 99.7802 108.887 99.9997 108.334 99.9997Z" fill="#547580"/>
<path id="Vector_13" d="M108.334 108.333H35.4173C34.8648 108.333 34.3349 108.114 33.9442 107.723C33.5535 107.332 33.334 106.802 33.334 106.25C33.334 105.697 33.5535 105.167 33.9442 104.777C34.3349 104.386 34.8648 104.167 35.4173 104.167H108.334C108.887 104.167 109.416 104.386 109.807 104.777C110.198 105.167 110.417 105.697 110.417 106.25C110.417 106.802 110.198 107.332 109.807 107.723C109.416 108.114 108.887 108.333 108.334 108.333Z" fill="#547580"/>
</g>
</g>
</g>
</svg>
