<svg width="34" height="32" viewBox="0 0 34 32" fill="none" xmlns="http://www.w3.org/2000/svg">
<g id="Layer_1" clip-path="url(#clip0_399_17)">
<g id="Group">
<path id="Vector" d="M22.1509 9.5249C22.1368 9.57528 22.1368 9.62565 22.1226 9.67732C22.0121 10.2469 21.9554 11.2725 22.2331 11.8163C22.2331 11.8163 22.2614 11.6264 22.3309 11.3991C22.4286 11.0568 22.719 10.6267 23.3579 10.6267C23.6356 10.6267 23.858 10.7029 24.011 10.8295C24.4417 11.1834 24.4686 11.8163 24.4686 11.8163C24.4686 11.8163 24.8299 14.4746 23.0519 14.7652C22.9131 15.2974 22.7049 15.7908 22.413 16.2713C21.9413 17.0812 21.2882 18.0434 20.4283 18.9037C19.5542 19.7769 18.3047 20.2457 16.9985 20.2457C16.3454 20.2457 15.7207 20.145 15.1243 19.9034C14.5548 19.6761 14.0136 19.3467 13.5688 18.9037C12.7074 18.0434 12.0558 17.0812 11.584 16.2713C11.2922 15.7908 11.0839 15.2961 10.9451 14.7652C9.16861 14.4746 9.52845 11.8163 9.52845 11.8163C9.52845 11.8163 9.55678 10.9806 10.1943 10.7145C10.3218 10.6525 10.4606 10.6267 10.6419 10.6267C11.2114 10.6267 11.4891 10.969 11.6138 11.2725C11.7384 11.5632 11.7668 11.8163 11.7668 11.8163C12.0572 11.2854 11.9878 10.1578 11.8773 9.53782" stroke="#1B98E0" stroke-width="0.8" stroke-miterlimit="10" stroke-linecap="round" stroke-linejoin="round"/>
<path id="Vector_2" d="M11.5586 21.5635C12.461 22.2093 14.5577 22.6653 17 22.6653C19.4423 22.6653 21.5404 22.2093 22.4414 21.5635" stroke="#1B98E0" stroke-width="0.8" stroke-miterlimit="10" stroke-linecap="round" stroke-linejoin="round"/>
<path id="Vector_3" d="M20.2073 19.1079C20.2073 19.1079 21.0262 20.7793 22.4428 21.5634C22.6369 21.69 22.8593 21.7907 23.1087 21.854L27.7879 23.094C30.1339 23.714 31.8552 25.233 32.2717 27.0685L32.9517 30.0057C33.0494 30.4487 32.5904 30.8543 31.994 30.8543H2.00599C1.40958 30.8543 0.950577 30.4487 1.04833 30.0057L1.72833 27.0685C2.14483 25.233 3.86608 23.714 6.21208 23.094L10.8913 21.854C11.1279 21.7778 11.3489 21.69 11.5572 21.5634C12.9738 20.778 13.7927 19.1079 13.7927 19.1079" stroke="#1B98E0" stroke-width="0.8" stroke-miterlimit="10" stroke-linecap="round" stroke-linejoin="round"/>
<path id="Vector_4" d="M13.515 22.3149L17 28.9128L20.485 22.3149" stroke="#1B98E0" stroke-width="0.8" stroke-miterlimit="10" stroke-linecap="round" stroke-linejoin="round"/>
<path id="Vector_5" d="M9.58653 6.51287C7.64287 5.95616 5.49095 5.33616 3.6167 4.79108C7.37937 3.77841 14.3338 1.87966 17 1.146C19.652 1.86804 26.6205 3.76679 30.3832 4.79108C28.509 5.33487 26.357 5.95616 24.4134 6.51287" stroke="#1B98E0" stroke-width="0.8" stroke-miterlimit="10" stroke-linecap="round" stroke-linejoin="round"/>
<path id="Vector_6" d="M24.4134 6.22858V9.38542C21.369 9.388 19.4905 10.0597 18.3855 10.7081C17.5326 11.208 16.4659 11.208 15.613 10.7094C14.508 10.0622 12.6295 9.39187 9.58655 9.39317V6.20792C9.58655 5.85787 9.83588 5.55304 10.207 5.46521C11.9779 5.04671 17.347 4.05212 23.7674 5.47554C24.1442 5.5595 24.4134 5.87467 24.4134 6.22858Z" stroke="#1B98E0" stroke-width="0.8" stroke-miterlimit="10" stroke-linecap="round" stroke-linejoin="round"/>
<path id="Vector_7" d="M24.1626 9.38818C24.1626 9.38818 24.4346 10.1839 24.0096 10.8297" stroke="#1B98E0" stroke-width="0.8" stroke-miterlimit="10" stroke-linecap="round" stroke-linejoin="round"/>
<path id="Vector_8" d="M9.83731 9.38818C9.83731 9.38818 9.56531 10.1839 9.99031 10.8297" stroke="#1B98E0" stroke-width="0.8" stroke-miterlimit="10" stroke-linecap="round" stroke-linejoin="round"/>
<path id="Vector_9" d="M6.81702 5.18359V9.41122" stroke="#1B98E0" stroke-width="0.8" stroke-miterlimit="10" stroke-linecap="round" stroke-linejoin="round"/>
<path id="Vector_10" d="M8.14583 16.2931L7.79591 10.2585C7.76899 9.78313 7.33833 9.41113 6.81699 9.41113C6.29566 9.41113 5.86499 9.78313 5.83808 10.2585L5.48816 16.2918H8.14583V16.2931Z" stroke="#1B98E0" stroke-width="0.8" stroke-miterlimit="10" stroke-linecap="round" stroke-linejoin="round"/>
<path id="Vector_11" d="M7.85539 11.2441H5.78564" stroke="#1B98E0" stroke-width="0.8" stroke-miterlimit="10" stroke-linecap="round" stroke-linejoin="round"/>
</g>
</g>
<defs>
<clipPath id="clip0_399_17">
<rect width="34" height="31" fill="white" transform="translate(0 0.5)"/>
</clipPath>
</defs>
</svg>
