<svg width="24" height="24" viewBox="0 0 24 24" fill="none" xmlns="http://www.w3.org/2000/svg">
<g id="Group">
<g id="Group_2">
<path id="Vector" fill-rule="evenodd" clip-rule="evenodd" d="M7.21429 21.2202C7.29499 21.2206 7.37226 21.2529 7.4292 21.3101C7.48614 21.3673 7.51812 21.4447 7.51814 21.5254V23.2255C7.51815 23.3063 7.4862 23.3838 7.42927 23.441C7.37233 23.4983 7.29504 23.5307 7.21429 23.5312H2.98812C2.90703 23.5312 2.82926 23.499 2.77187 23.4417C2.71449 23.3844 2.68219 23.3067 2.68207 23.2256V21.5254C2.6822 21.4443 2.71452 21.3667 2.77191 21.3094C2.8293 21.2522 2.90707 21.2201 2.98812 21.2202H7.21429Z" fill="#C4C1D9"/>
<path id="Vector_2" fill-rule="evenodd" clip-rule="evenodd" d="M16.4796 21.5254C16.4801 21.4444 16.5126 21.367 16.5699 21.3098C16.6272 21.2527 16.7047 21.2205 16.7857 21.2202H21.0118C21.0929 21.2201 21.1707 21.2522 21.228 21.3094C21.2854 21.3667 21.3178 21.4443 21.3179 21.5254V23.2255C21.3178 23.3066 21.2855 23.3844 21.2281 23.4417C21.1707 23.499 21.0929 23.5312 21.0118 23.5312H16.7859C16.7049 23.5308 16.6274 23.4985 16.5701 23.4413C16.5128 23.3841 16.4803 23.3065 16.4798 23.2256L16.4796 21.5254Z" fill="#C4C1D9"/>
<path id="Vector_3" fill-rule="evenodd" clip-rule="evenodd" d="M13.2568 10.3485V12.9267L13.0669 14.1886H10.9328L10.7417 12.9183C10.7389 12.8987 10.733 12.8797 10.7241 12.862L10.7141 12.8422V10.3335C10.7139 10.2977 10.7035 10.2627 10.6842 10.2326C10.6648 10.2025 10.6373 10.1785 10.6048 10.1635C9.50716 9.65414 8.81879 8.53322 8.81879 7.32877C8.81818 6.8353 8.93257 6.34847 9.15289 5.90691C9.37321 5.46536 9.69339 5.08121 10.088 4.78495L10.238 4.67222V6.52116C10.2439 6.98041 10.4304 7.41888 10.7572 7.74158C11.0841 8.06428 11.5249 8.24523 11.9842 8.24523C12.4435 8.24523 12.8843 8.06428 13.2111 7.74158C13.5379 7.41888 13.7245 6.98041 13.7303 6.52116V4.65234L13.8793 4.76119C14.2835 5.05605 14.6121 5.44243 14.8383 5.8887C15.0645 6.33497 15.1817 6.82846 15.1805 7.32877C15.1805 8.54822 14.4792 9.67298 13.3651 10.1778C13.3327 10.193 13.3052 10.2171 13.286 10.2473C13.2668 10.2776 13.2567 10.3127 13.2568 10.3485Z" fill="#C4C1D9"/>
</g>
<path id="Vector_4" fill-rule="evenodd" clip-rule="evenodd" d="M6.67014 22.2136C6.65865 22.2202 6.646 22.2244 6.63288 22.226C6.61977 22.2277 6.60647 22.2267 6.59373 22.2232C6.58099 22.2197 6.56906 22.2137 6.55863 22.2056C6.5482 22.1975 6.53947 22.1874 6.53293 22.176C6.5264 22.1645 6.52219 22.1518 6.52055 22.1387C6.5189 22.1256 6.51986 22.1123 6.52336 22.0995C6.52686 22.0868 6.53283 22.0749 6.54094 22.0644C6.54905 22.054 6.55914 22.0453 6.57062 22.0387C6.58523 22.0297 6.60211 22.025 6.61928 22.0252C6.64163 22.025 6.66344 22.0321 6.68127 22.0456C6.6991 22.0591 6.71194 22.0781 6.71777 22.0997C6.72359 22.1213 6.72208 22.1442 6.71345 22.1648C6.70483 22.1855 6.68959 22.2026 6.67014 22.2136ZM6.28754 21.5513C6.16078 21.6244 6.06173 21.7373 6.0058 21.8725C5.94987 22.0077 5.9402 22.1575 5.97831 22.2988C6.01641 22.44 6.10014 22.5647 6.21646 22.6534C6.33279 22.7422 6.47518 22.7899 6.62148 22.7893C6.73778 22.789 6.85196 22.7581 6.95256 22.6997C7.05316 22.6414 7.13666 22.5576 7.19468 22.4568C7.25269 22.356 7.28319 22.2417 7.28312 22.1254C7.28304 22.0091 7.2524 21.8949 7.19425 21.7942C7.106 21.642 6.96102 21.5309 6.79106 21.4854C6.62111 21.4399 6.44005 21.4636 6.28754 21.5513ZM3.41054 8.68725C3.40399 8.70188 3.39952 8.71736 3.39728 8.73323L2.55689 13.0768C2.55468 13.0856 2.55028 13.094 2.54803 13.1035C2.50817 13.2502 2.49781 13.4033 2.51756 13.554C2.53731 13.7048 2.58676 13.85 2.66306 13.9815L4.21994 16.6762C4.25724 16.7407 4.31864 16.7877 4.39063 16.807C4.46263 16.8262 4.53932 16.8161 4.60383 16.7788C4.66835 16.7415 4.71541 16.6801 4.73466 16.6081C4.7539 16.5361 4.74376 16.4594 4.70647 16.3949L3.14977 13.7002C3.07192 13.5632 3.05125 13.401 3.09225 13.2489C3.13324 13.0967 3.23259 12.9668 3.36873 12.8875C3.50529 12.8091 3.6673 12.788 3.81938 12.8288C3.97146 12.8695 4.10123 12.9688 4.18033 13.1049L5.5116 15.4083C5.53388 15.4479 5.56585 15.4812 5.60451 15.505C6.45812 16.0468 7.07514 17.3617 7.19233 18.1026C7.2963 18.7682 7.15014 19.4901 6.9933 20.2532C6.96011 20.4164 6.92697 20.5834 6.89598 20.7517H3.31543V19.5685C3.31732 19.3182 3.25162 19.0721 3.12526 18.856L0.681532 14.5969C0.619018 14.4938 0.579901 14.3782 0.566942 14.2583C0.553982 14.1385 0.567496 14.0172 0.60653 13.9031L2.34904 8.36967C2.34904 8.36498 2.35124 8.35973 2.35124 8.35462C2.37004 8.28152 2.40353 8.21301 2.44966 8.15327C2.49579 8.09353 2.5536 8.0438 2.61958 8.00713C2.68555 7.97045 2.7583 7.9476 2.83339 7.93995C2.90849 7.9323 2.98435 7.94003 3.05636 7.96265C3.12838 7.98527 3.19503 8.02232 3.25225 8.07154C3.30948 8.12075 3.35609 8.18111 3.38924 8.24892C3.42238 8.31673 3.44138 8.39059 3.44506 8.46598C3.44873 8.54137 3.43702 8.61672 3.41064 8.68744L3.41054 8.68725ZM7.42441 23.2256V21.5255C7.42442 21.4696 7.40232 21.416 7.36296 21.3764C7.3236 21.3368 7.27016 21.3144 7.21432 21.314H2.98814C2.96032 21.314 2.93276 21.3194 2.90703 21.33C2.8813 21.3406 2.85791 21.3561 2.8382 21.3758C2.81849 21.3954 2.80283 21.4187 2.79213 21.4444C2.78143 21.4701 2.7759 21.4976 2.77584 21.5255V23.2256C2.77594 23.2819 2.79836 23.3358 2.83816 23.3755C2.87797 23.4152 2.93191 23.4375 2.98814 23.4375H7.21432C7.27021 23.437 7.32365 23.4145 7.363 23.3748C7.40235 23.3351 7.42443 23.2815 7.42441 23.2256ZM3.72897 7.75134C3.59483 7.59945 3.42193 7.48687 3.22875 7.42564C3.03558 7.36441 2.82939 7.35683 2.63224 7.40371C2.4351 7.4506 2.25439 7.55018 2.10946 7.69181C1.96453 7.83344 1.86082 8.0118 1.80941 8.20781L0.0689599 13.7344C0.00752529 13.9227 -0.0132031 14.1219 0.00814735 14.3188C0.0294979 14.5157 0.0924401 14.7058 0.192805 14.8766L2.63653 19.1356C2.71391 19.2666 2.75369 19.4163 2.75152 19.5684V20.7881C2.59511 20.8381 2.4586 20.9364 2.36163 21.0689C2.26466 21.2014 2.21223 21.3613 2.21188 21.5255V23.2256C2.21221 23.4312 2.29415 23.6283 2.43971 23.7735C2.58528 23.9187 2.78254 24.0002 2.98814 24H7.21432C7.41959 23.9997 7.61636 23.918 7.76146 23.7728C7.90657 23.6276 7.98816 23.4308 7.98833 23.2255V21.5255C7.98763 21.3634 7.93632 21.2057 7.84155 21.0742C7.74679 20.9428 7.61332 20.8442 7.45981 20.7923C7.48854 20.649 7.51727 20.506 7.54606 20.3658C7.70304 19.5867 7.86889 18.781 7.74729 18.0145C7.61679 17.1923 6.97989 15.7529 5.9648 15.0691L4.66887 12.8238C4.53303 12.5897 4.31964 12.4105 4.06562 12.3171C3.8116 12.2238 3.53293 12.2221 3.27784 12.3125L3.94572 8.86172C4.01221 8.67417 4.02717 8.47222 3.98905 8.27692C3.95092 8.08162 3.86111 7.90012 3.72897 7.75134ZM17.4668 22.1766C17.4534 22.1995 17.4315 22.2162 17.4059 22.2232C17.3802 22.2301 17.3529 22.2267 17.3297 22.2137C17.3124 22.2038 17.2983 22.189 17.2894 22.1711C17.2805 22.1533 17.277 22.1332 17.2795 22.1133C17.2821 22.0935 17.2904 22.0749 17.3035 22.0598C17.3166 22.0448 17.3339 22.0339 17.3532 22.0287C17.3725 22.0235 17.3929 22.0241 17.4118 22.0305C17.4307 22.0369 17.4473 22.0488 17.4595 22.0646C17.4717 22.0804 17.4789 22.0995 17.4802 22.1195C17.4815 22.1394 17.4768 22.1593 17.4668 22.1766ZM17.7101 21.5514C17.6346 21.508 17.5513 21.4798 17.465 21.4686C17.3787 21.4574 17.291 21.4633 17.2069 21.4859C17.0371 21.5317 16.8925 21.643 16.8048 21.7954C16.7171 21.9478 16.6936 22.1288 16.7393 22.2986C16.7851 22.4684 16.8964 22.613 17.0488 22.7007C17.1489 22.759 17.2626 22.7898 17.3784 22.7897C17.4949 22.7896 17.6093 22.7588 17.7102 22.7006C17.8111 22.6423 17.8949 22.5586 17.9534 22.4578C17.9969 22.3823 18.0252 22.299 18.0366 22.2126C18.048 22.1262 18.0422 22.0383 18.0196 21.9542C17.997 21.87 17.958 21.7911 17.9049 21.7219C17.8518 21.6528 17.7856 21.5949 17.7101 21.5513V21.5514ZM20.6315 12.8875C20.7676 12.9669 20.8669 13.0968 20.9079 13.2489C20.9489 13.4011 20.9282 13.5632 20.8504 13.7003L19.2938 16.3951C19.2753 16.427 19.2633 16.4623 19.2585 16.4989C19.2536 16.5355 19.256 16.5726 19.2656 16.6083C19.2751 16.6439 19.2916 16.6774 19.314 16.7066C19.3365 16.7359 19.3645 16.7605 19.3964 16.779C19.4283 16.7974 19.4636 16.8094 19.5002 16.8143C19.5368 16.8191 19.574 16.8167 19.6096 16.8072C19.6452 16.7976 19.6787 16.7812 19.708 16.7587C19.7372 16.7363 19.7618 16.7083 19.7803 16.6763L21.3372 13.9817C21.4135 13.8502 21.4629 13.7049 21.4827 13.5542C21.5024 13.4035 21.492 13.2504 21.4522 13.1037C21.4483 13.0951 21.4454 13.0861 21.4433 13.077L20.603 8.73342C20.6007 8.71755 20.5962 8.70207 20.5897 8.68744C20.5631 8.61683 20.5512 8.54154 20.5547 8.46618C20.5582 8.39082 20.5771 8.31696 20.6101 8.24913C20.6431 8.18129 20.6896 8.1209 20.7467 8.07164C20.8039 8.02238 20.8705 7.98529 20.9424 7.96263C21.0144 7.93997 21.0902 7.93223 21.1653 7.93987C21.2403 7.9475 21.313 7.97037 21.379 8.00705C21.4449 8.04374 21.5026 8.09349 21.5487 8.15325C21.5947 8.21301 21.6281 8.28153 21.6468 8.35462C21.649 8.35973 21.649 8.3648 21.6512 8.36967L23.3937 13.9031C23.4327 14.0172 23.4462 14.1385 23.4333 14.2583C23.4203 14.3782 23.3812 14.4938 23.3187 14.5969L20.875 18.8559C20.7486 19.072 20.6829 19.3181 20.6848 19.5684V20.7516H17.1044C17.0734 20.5833 17.0402 20.4163 17.0071 20.2531C16.85 19.4897 16.7041 18.7683 16.808 18.1025C16.9252 17.3616 17.5423 16.0467 18.3959 15.5049C18.4345 15.4811 18.4665 15.4478 18.4888 15.4082L19.8179 13.1048C19.8976 12.9687 20.0278 12.8696 20.1801 12.8289C20.3325 12.7882 20.4947 12.8092 20.6317 12.8874L20.6315 12.8875ZM21.2242 23.2256V21.5255C21.224 21.4693 21.2016 21.4154 21.1618 21.3758C21.122 21.3361 21.068 21.3139 21.0119 21.314H16.7859C16.7298 21.3143 16.6761 21.3366 16.6364 21.3762C16.5967 21.4158 16.5741 21.4694 16.5736 21.5255V23.2256C16.5741 23.2817 16.5966 23.3354 16.6363 23.3751C16.6761 23.4147 16.7298 23.4371 16.7859 23.4375H21.0121C21.0683 23.4375 21.1223 23.4152 21.1621 23.3755C21.2019 23.3357 21.2243 23.2819 21.2244 23.2256H21.2242ZM19.3313 12.8235L18.0353 15.0689C17.0202 15.7526 16.3833 17.1923 16.2528 18.0143C16.131 18.7808 16.295 19.5864 16.4541 20.3655C16.4828 20.5058 16.5116 20.6488 16.5403 20.7921C16.3866 20.8436 16.2529 20.942 16.158 21.0736C16.0632 21.2051 16.0121 21.3631 16.0118 21.5252V23.2254C16.0119 23.4307 16.0935 23.6276 16.2386 23.7728C16.3838 23.918 16.5806 23.9997 16.7859 24H21.0121C21.2174 23.9997 21.4141 23.918 21.5592 23.7728C21.7043 23.6276 21.7859 23.4308 21.7861 23.2255V21.5255C21.7862 21.3615 21.7342 21.2016 21.6375 21.0691C21.5409 20.9366 21.4047 20.8382 21.2485 20.7881V19.5685C21.2463 19.4164 21.2861 19.2667 21.3635 19.1357L23.8072 14.8767C23.9076 14.7059 23.9705 14.5158 23.9919 14.3188C24.0132 14.1219 23.9925 13.9227 23.931 13.7344L22.1907 8.20781C22.1524 8.06214 22.0852 7.9257 21.9929 7.80667C21.9006 7.68764 21.7852 7.58849 21.6537 7.51516C21.5221 7.44183 21.3771 7.39584 21.2273 7.37994C21.0776 7.36405 20.9261 7.37858 20.7821 7.42266C20.6381 7.46674 20.5045 7.53947 20.3893 7.63647C20.2741 7.73347 20.1796 7.85275 20.1117 7.98715C20.0437 8.12156 20.0036 8.2683 19.9937 8.41859C19.9839 8.56887 20.0045 8.7196 20.0544 8.86172L20.7223 12.3123C20.4672 12.2219 20.1885 12.2235 19.9345 12.3169C19.6805 12.4103 19.4671 12.5895 19.3313 12.8235ZM6.65481 5.955C6.64105 6.00839 6.61192 6.05657 6.57103 6.09356C6.53014 6.13055 6.47929 6.15472 6.42479 6.16308L5.23283 6.34177V8.31614L6.42479 8.49427C6.4792 8.50287 6.52992 8.52714 6.57077 8.5641C6.61162 8.60106 6.64082 8.64911 6.65481 8.70239C6.78401 9.20604 6.98432 9.6887 7.24971 10.1358C7.27771 10.1835 7.29116 10.2384 7.28841 10.2936C7.28566 10.3489 7.26683 10.4021 7.23424 10.4468L6.5177 11.4152L7.91314 12.8115L8.88178 12.0948C8.92656 12.062 8.97995 12.0431 9.03537 12.0403C9.09078 12.0376 9.14579 12.0511 9.1936 12.0793C9.52572 12.2765 9.87784 12.4379 10.244 12.5607V10.5079C9.67004 10.1991 9.19061 9.74034 8.85684 9.1805C8.52307 8.62065 8.34749 7.98073 8.3488 7.32895C8.34805 6.66462 8.52896 6.01272 8.87199 5.44379C9.21501 4.87485 9.70707 4.41055 10.2949 4.10109C10.3377 4.07826 10.3857 4.06695 10.4342 4.06827C10.4827 4.06959 10.53 4.08351 10.5715 4.10864C10.6131 4.13371 10.6475 4.16904 10.6715 4.21125C10.6956 4.25345 10.7083 4.30112 10.7086 4.34967V6.52134C10.7107 6.85872 10.8461 7.18158 11.0854 7.41942C11.3247 7.65727 11.6484 7.79076 11.9858 7.79076C12.3232 7.79076 12.6468 7.65727 12.8861 7.41942C13.1254 7.18158 13.2609 6.85872 13.2629 6.52134V4.33355C13.2629 4.28542 13.2753 4.2381 13.2988 4.19613C13.3224 4.15415 13.3563 4.11894 13.3974 4.09387C13.4384 4.06879 13.4853 4.0547 13.5334 4.05295C13.5815 4.05119 13.6292 4.06183 13.672 4.08384C14.2687 4.38992 14.7691 4.855 15.118 5.42768C15.4669 6.00036 15.6507 6.65836 15.6491 7.32895C15.651 7.98661 15.4727 8.63222 15.1335 9.19564C14.7942 9.75907 14.3071 10.2187 13.7249 10.5247V12.5706C14.1021 12.4463 14.4647 12.2815 14.8064 12.0792C14.8542 12.051 14.9092 12.0375 14.9646 12.0402C15.02 12.043 15.0734 12.0619 15.1182 12.0947L16.0868 12.8114L17.4823 11.4151L16.7658 10.4467C16.7332 10.402 16.7143 10.3488 16.7116 10.2935C16.7088 10.2383 16.7223 10.1834 16.7503 10.1357C17.0149 9.68823 17.2152 9.20567 17.3452 8.7023C17.3588 8.64886 17.3879 8.60062 17.4288 8.56361C17.4697 8.52659 17.5206 8.50244 17.5752 8.49417L18.7672 8.31605V6.34167L17.5752 6.16298C17.5205 6.15496 17.4695 6.13091 17.4286 6.09386C17.3876 6.05682 17.3586 6.00846 17.3452 5.95491C17.2159 5.45131 17.0156 4.96868 16.7503 4.52152C16.7223 4.47394 16.7088 4.4192 16.7116 4.36407C16.7143 4.30893 16.7332 4.25581 16.7658 4.21125L17.4823 3.24239L16.0869 1.8465L15.1182 2.5628C15.0735 2.59565 15.0201 2.61466 14.9647 2.61745C14.9092 2.62024 14.8542 2.6067 14.8064 2.5785C14.3593 2.31356 13.8768 2.11349 13.3734 1.98431C13.32 1.97018 13.2719 1.94079 13.235 1.89974C13.1981 1.8587 13.1739 1.80778 13.1655 1.75322L12.9863 0.5625H11.0137L10.8345 1.75313C10.8261 1.80769 10.802 1.85862 10.765 1.89967C10.7281 1.94071 10.68 1.9701 10.6266 1.98422C10.1231 2.113 9.64053 2.31308 9.1936 2.57841C9.14579 2.6066 9.09076 2.62014 9.03533 2.61735C8.9799 2.61456 8.92651 2.59556 8.88178 2.5627L7.91314 1.8465L6.5177 3.24239L7.23424 4.21125C7.26682 4.25581 7.28564 4.30894 7.28839 4.36407C7.29114 4.4192 7.27769 4.47393 7.24971 4.52152C6.98431 4.96865 6.784 5.45134 6.65481 5.955ZM11.0137 14.0949L10.8345 12.9043C10.8303 12.8749 10.8213 12.8464 10.808 12.8199V10.3337C10.8079 10.28 10.7924 10.2275 10.7634 10.1823C10.7345 10.1371 10.6931 10.1011 10.6444 10.0787C9.59167 9.58973 8.91276 8.51011 8.91276 7.32895C8.91216 6.85003 9.02317 6.37755 9.23698 5.949C9.4508 5.52045 9.76155 5.14762 10.1446 4.86009V6.52134C10.1495 7.00608 10.3455 7.46931 10.69 7.81035C11.0345 8.1514 11.4997 8.34271 11.9844 8.34271C12.4692 8.34271 12.9344 8.1514 13.2789 7.81035C13.6234 7.46931 13.8194 7.00608 13.8243 6.52134V4.83708C14.2166 5.12324 14.5355 5.49823 14.755 5.93135C14.9745 6.36447 15.0883 6.8434 15.087 7.32895C15.087 8.52337 14.3971 9.60811 13.3267 10.0926C13.2778 10.1152 13.2364 10.1513 13.2074 10.1967C13.1784 10.2421 13.163 10.2949 13.163 10.3487V12.9198L12.9861 14.0949H11.0137ZM4.90995 5.82141C4.84342 5.83142 4.78269 5.86499 4.73881 5.91601C4.69494 5.96702 4.67084 6.03209 4.67089 6.09937V8.55853C4.67091 8.6258 4.69504 8.69082 4.7389 8.74182C4.78276 8.79282 4.84345 8.82641 4.90995 8.8365L6.15943 9.02339C6.28389 9.45327 6.45597 9.8679 6.67248 10.2596L5.92059 11.2753C5.88091 11.3296 5.8618 11.3962 5.86666 11.4633C5.87152 11.5304 5.90003 11.5935 5.94713 11.6415L7.68757 13.3806C7.735 13.4282 7.79796 13.4571 7.86495 13.4621C7.93195 13.4671 7.99851 13.4478 8.05245 13.4078L9.06975 12.6562C9.46153 12.8725 9.87615 13.0444 10.306 13.1689L10.4918 14.4177C10.5021 14.4842 10.5358 14.5449 10.5869 14.5889C10.638 14.6328 10.703 14.657 10.7704 14.6572H13.2296C13.297 14.657 13.362 14.6328 13.4131 14.5888C13.4642 14.5449 13.4979 14.4842 13.5082 14.4177L13.694 13.1689C14.1238 13.0442 14.5384 12.8723 14.9302 12.6562L15.9474 13.4075C16.0013 13.4477 16.0679 13.467 16.135 13.462C16.202 13.457 16.265 13.428 16.3124 13.3803L18.0506 11.6412C18.0985 11.5938 18.1278 11.5307 18.133 11.4634C18.1383 11.3962 18.1193 11.3293 18.0794 11.275L17.3275 10.2592C17.5441 9.86777 17.7163 9.45325 17.8406 9.02344L19.0901 8.83655C19.1566 8.82646 19.2173 8.79287 19.2611 8.74187C19.305 8.69087 19.3291 8.62584 19.3292 8.55858V6.09937C19.3292 6.03209 19.3051 5.96702 19.2612 5.91601C19.2174 5.86499 19.1566 5.83142 19.0901 5.82141L17.8406 5.63391C17.7162 5.20422 17.5441 4.7898 17.3276 4.39838L18.0794 3.38222C18.1194 3.32787 18.1384 3.26099 18.1331 3.19376C18.1279 3.12654 18.0986 3.06345 18.0507 3.01598L16.3125 1.2773C16.265 1.22971 16.2021 1.20077 16.1351 1.19577C16.0681 1.19077 16.0015 1.21004 15.9475 1.25006L14.9303 2.00109C14.5385 1.78501 14.1238 1.61316 13.694 1.4887L13.5082 0.239437C13.4979 0.17288 13.4642 0.112189 13.4131 0.0682923C13.362 0.0243958 13.2969 0.000178184 13.2296 0L10.7704 0C10.703 0.000170388 10.638 0.0243913 10.5869 0.0682989C10.5358 0.112207 10.5021 0.172914 10.4918 0.239484L10.306 1.48875C9.87618 1.6132 9.46156 1.78504 9.06975 2.00109L8.05255 1.25006C7.99859 1.21003 7.93203 1.19076 7.86504 1.19576C7.79804 1.20076 7.73508 1.2297 7.68767 1.2773L5.94713 3.01594C5.90003 3.06394 5.87152 3.12711 5.86666 3.19419C5.8618 3.26126 5.88091 3.32788 5.92059 3.38217L6.67248 4.39833C6.45593 4.78975 6.28384 5.20417 6.15943 5.63386L4.90995 5.82141Z" fill="#403685"/>
</g>
</svg>
