<svg width="10" height="10" viewBox="0 0 10 10" fill="none" xmlns="http://www.w3.org/2000/svg">
<g id="a" clip-path="url(#clip0_1511_3749)">
<path id="Vector" d="M1.49057 2.65625H7.6215C8.18583 2.65625 8.64332 3.08786 8.64332 3.62027V7.09073C8.64332 7.62314 8.18583 8.05475 7.6215 8.05475H5.22335C5.02427 8.5253 5.34028 9.10866 5.84563 9.21225C5.04333 9.39618 4.06312 8.89979 3.95591 8.05475H1.49057C0.926236 8.05475 0.46875 7.62314 0.46875 7.09073V3.62027C0.46875 3.08786 0.926236 2.65625 1.49057 2.65625Z" fill="#E6F3FF"/>
<path id="Vector_2" d="M5.04716 6.43312C5.95859 5.81349 5.36039 4.45311 4.28787 4.70445C3.84797 4.82835 3.5402 5.2974 3.60154 5.75029C3.64855 6.05601 4.10204 5.9927 4.06602 5.68741C4.02553 5.12902 4.7326 4.92972 4.98978 5.42742C5.07996 5.63279 4.99177 5.9163 4.80073 6.03425C4.54499 6.19249 4.34464 6.43388 4.23661 6.71434C4.1754 6.86361 4.29479 7.03589 4.45527 7.03294C4.54926 7.03294 4.63807 6.97587 4.67392 6.88279C4.74549 6.6974 4.87794 6.53764 5.04716 6.43312Z" fill="#4AA5FF"/>
<path id="Vector_3" d="M4.4418 7.32812C4.13185 7.33318 4.13351 7.79171 4.44181 7.79688C4.74985 7.79157 4.74981 7.33338 4.4418 7.32812Z" fill="#4AA5FF"/>
<path id="Vector_4" d="M5.50537 9.40552C4.75717 9.40555 3.99963 8.95232 3.82706 8.21106H1.49063C0.841064 8.21106 0.3125 7.70843 0.3125 7.09076V3.6203C0.3125 3.00262 0.841064 2.5 1.49063 2.5H7.62146C8.27103 2.5 8.79959 3.00262 8.79959 3.6203V7.09076C8.79959 7.70843 8.27103 8.21106 7.62146 8.21106H5.33798C5.2407 8.57885 5.5212 8.98852 5.87708 9.05914C5.94909 9.07394 6.00113 9.13696 6.00189 9.21066C5.98697 9.43457 5.66669 9.38603 5.50537 9.40552ZM1.49063 2.8125C1.01333 2.8125 0.624998 3.1749 0.624998 3.6203V7.09076C0.624998 7.53616 1.01333 7.89856 1.49063 7.89856H3.95584C4.03351 7.89856 4.09927 7.95547 4.11041 8.03238C4.18984 8.62045 4.73065 9.01123 5.30594 9.08157C5.02828 8.8034 4.92579 8.36985 5.07783 7.99789C5.10132 7.93808 5.159 7.89856 5.22339 7.89856H7.62146C8.09875 7.89856 8.48709 7.53616 8.48709 7.09076V3.6203C8.48709 3.1749 8.09875 2.8125 7.62146 2.8125H1.49063Z" fill="#21257C"/>
<path id="Vector_5" d="M4.53125 0.78125H2.65625C2.22478 0.78125 1.875 1.13103 1.875 1.5625V3.4375C1.875 3.86897 2.22478 4.21875 2.65625 4.21875H4.53125C4.96272 4.21875 5.3125 3.86897 5.3125 3.4375V1.5625C5.3125 1.13103 4.96272 0.78125 4.53125 0.78125Z" fill="#4AA5FF"/>
<path id="Vector_6" d="M4.53125 4.375H2.65625C2.13928 4.375 1.71875 3.95447 1.71875 3.4375V1.5625C1.71875 1.04553 2.13928 0.625 2.65625 0.625H4.53125C5.04822 0.625 5.46875 1.04553 5.46875 1.5625V3.4375C5.46875 3.95447 5.04822 4.375 4.53125 4.375ZM2.65625 0.9375C2.31155 0.9375 2.03125 1.2178 2.03125 1.5625V3.4375C2.03125 3.7822 2.31155 4.0625 2.65625 4.0625H4.53125C4.87595 4.0625 5.15625 3.7822 5.15625 3.4375V1.5625C5.15625 1.2178 4.87595 0.9375 4.53125 0.9375H2.65625Z" fill="#21257C"/>
<path id="Vector_7" d="M8.75 0.78125H6.71875C6.28728 0.78125 5.9375 1.13103 5.9375 1.5625V3.4375C5.9375 3.86897 6.28728 4.21875 6.71875 4.21875H8.75C9.18147 4.21875 9.53125 3.86897 9.53125 3.4375V1.5625C9.53125 1.13103 9.18147 0.78125 8.75 0.78125Z" fill="#4AA5FF"/>
<path id="Vector_8" d="M8.75 4.375H6.71875C6.20178 4.375 5.78125 3.95447 5.78125 3.4375V1.5625C5.78125 1.04553 6.20178 0.625 6.71875 0.625H8.75C9.26697 0.625 9.6875 1.04553 9.6875 1.5625V3.4375C9.6875 3.95447 9.26697 4.375 8.75 4.375ZM6.71875 0.9375C6.37405 0.9375 6.09375 1.2178 6.09375 1.5625V3.4375C6.09375 3.7822 6.37405 4.0625 6.71875 4.0625H8.75C9.0947 4.0625 9.375 3.7822 9.375 3.4375V1.5625C9.375 1.2178 9.0947 0.9375 8.75 0.9375H6.71875Z" fill="#21257C"/>
<g id="Group">
<path id="Vector_9" d="M4.36732 2.83163L4.03587 2.50018L4.36732 2.16872C4.48935 2.04669 4.48935 1.84881 4.36732 1.72678C4.24529 1.60475 4.04741 1.60475 3.92538 1.72678L3.59393 2.05823L3.26247 1.72678C3.14044 1.60475 2.94256 1.60475 2.82053 1.72678C2.6985 1.84881 2.6985 2.04669 2.82053 2.16872L3.15198 2.50018L2.82053 2.83163C2.6985 2.95366 2.6985 3.15154 2.82053 3.27357C2.94256 3.3956 3.14044 3.3956 3.26247 3.27357L3.59393 2.94212L3.92538 3.27357C4.22077 3.55911 4.65283 3.12691 4.36732 2.83163Z" fill="#E6F3FF"/>
<path id="Vector_10" d="M8.81583 2.08979L7.83232 3.30392C7.72414 3.43747 7.52634 3.45822 7.39279 3.35004L6.7188 2.81265C6.40493 2.54828 6.78813 2.07462 7.11222 2.327C7.11221 2.32699 7.54337 2.66769 7.54337 2.66769L8.33018 1.69638C8.59463 1.38236 9.06815 1.76588 8.81583 2.08979Z" fill="#E6F3FF"/>
</g>
</g>
<defs>
<clipPath id="clip0_1511_3749">
<rect width="10" height="10" fill="white"/>
</clipPath>
</defs>
</svg>
