<svg width="32" height="31" viewBox="0 0 32 31" fill="none" xmlns="http://www.w3.org/2000/svg">
<g id="Layer_1" clip-path="url(#clip0_1783_47993)">
<g id="Group">
<path id="Vector" d="M28.988 26.5841H13.677V25.8582H28.988C29.7579 25.8582 30.3842 25.2311 30.3842 24.4603V4.95811C30.3842 4.18819 29.7579 3.56183 28.988 3.56183H27.7008V2.83588H28.988C30.1582 2.83588 31.1102 3.78792 31.1102 4.95811V24.4603C31.1102 25.6313 30.1582 26.5841 28.988 26.5841ZM8.0896 14.087H7.36365V4.95811C7.36365 3.78792 8.31563 2.83588 9.48582 2.83588H10.773V3.56183H9.48582C8.71596 3.56183 8.0896 4.18819 8.0896 4.95811V14.087ZM25.4782 3.56183H20.6091V2.83588H25.4782V3.56183ZM18.3865 3.56183H12.9957V2.83588H18.3865V3.56183Z" fill="#403685"/>
<path id="Vector_2" d="M7.72662 7.00134H30.7472V7.7273H7.72662V7.00134Z" fill="#403685"/>
<path id="Vector_3" d="M11.8844 5.79096C11.1517 5.79096 10.41 5.28739 10.41 4.32481V2.07295C10.41 1.1105 11.1517 0.606873 11.8844 0.606873C12.617 0.606873 13.3586 1.11044 13.3586 2.07295V4.32475C13.3586 5.28727 12.617 5.79096 11.8844 5.79096ZM11.8844 1.33289C11.5391 1.33289 11.1361 1.5267 11.1361 2.07301V4.32481C11.1361 4.87107 11.5392 5.065 11.8844 5.065C12.2295 5.065 12.6326 4.87113 12.6326 4.32481V2.07295C12.6326 1.5267 12.2295 1.33289 11.8844 1.33289Z" fill="#403685"/>
<path id="Vector_4" d="M19.4978 5.79096C18.7652 5.79096 18.0236 5.28739 18.0236 4.32481V2.07295C18.0236 1.1105 18.7652 0.606873 19.4978 0.606873C20.2304 0.606873 20.9721 1.11044 20.9721 2.07295V4.32475C20.9721 5.28727 20.2305 5.79096 19.4978 5.79096ZM19.4978 1.33289C19.1526 1.33289 18.7495 1.5267 18.7495 2.07301V4.32481C18.7495 4.87107 19.1526 5.065 19.4978 5.065C19.843 5.065 20.2461 4.87113 20.2461 4.32481V2.07295C20.2461 1.5267 19.843 1.33289 19.4978 1.33289Z" fill="#403685"/>
<path id="Vector_5" d="M26.5896 5.79096C25.8569 5.79096 25.1152 5.28739 25.1152 4.32481V2.07295C25.1152 1.1105 25.8569 0.606873 26.5896 0.606873C27.3222 0.606873 28.0639 1.11044 28.0639 2.07295V4.32475C28.0639 5.28727 27.3222 5.79096 26.5896 5.79096ZM26.5896 1.33289C26.2444 1.33289 25.8413 1.5267 25.8413 2.07301V4.32481C25.8413 4.87107 26.2444 5.065 26.5896 5.065C26.9347 5.065 27.3378 4.87113 27.3378 4.32481V2.07295C27.3378 1.5267 26.9347 1.33289 26.5896 1.33289Z" fill="#403685"/>
<path id="Vector_6" d="M12.9802 13.2537H9.73297C9.5325 13.2537 9.37 13.0912 9.37 12.8907V9.64356C9.37 9.44303 9.5325 9.28058 9.73297 9.28058H12.9802C13.1806 9.28058 13.3431 9.44309 13.3431 9.64356V12.8907C13.3431 13.0913 13.1806 13.2537 12.9802 13.2537ZM10.096 12.5278H12.6172V10.0065H10.096V12.5278Z" fill="#403685"/>
<path id="Vector_7" d="M18.2338 13.2537H14.9866C14.7861 13.2537 14.6236 13.0912 14.6236 12.8907V9.64356C14.6236 9.44303 14.7861 9.28058 14.9866 9.28058H18.2338C18.4342 9.28058 18.5967 9.44309 18.5967 9.64356V12.8907C18.5967 13.0913 18.4342 13.2537 18.2338 13.2537ZM15.3496 12.5278H17.8708V10.0065H15.3496V12.5278Z" fill="#403685"/>
<path id="Vector_8" d="M23.4873 13.2537H20.2401C20.0396 13.2537 19.8771 13.0912 19.8771 12.8907V9.64356C19.8771 9.44303 20.0396 9.28058 20.2401 9.28058H23.4873C23.6878 9.28058 23.8503 9.44309 23.8503 9.64356V12.8907C23.8503 13.0913 23.6878 13.2537 23.4873 13.2537ZM20.6031 12.5278H23.1243V10.0065H20.6031V12.5278Z" fill="#403685"/>
<path id="Vector_9" d="M28.7408 13.2537H25.4937C25.2932 13.2537 25.1307 13.0912 25.1307 12.8907V9.64356C25.1307 9.44303 25.2932 9.28058 25.4937 9.28058H28.7408C28.9413 9.28058 29.1038 9.44309 29.1038 9.64356V12.8907C29.1038 13.0913 28.9413 13.2537 28.7408 13.2537ZM25.8566 12.5278H28.3779V10.0065H25.8566V12.5278Z" fill="#403685"/>
<path id="Vector_10" d="M12.9802 18.7785H11.1231V18.0526H12.6172V15.5331H10.2564V14.8071H12.9802C13.1806 14.8071 13.3431 14.9696 13.3431 15.1701V18.4156C13.3431 18.6161 13.1806 18.7785 12.9802 18.7785Z" fill="#403685"/>
<path id="Vector_11" d="M18.2338 18.7785H14.9866C14.7861 18.7785 14.6236 18.616 14.6236 18.4155V15.17C14.6236 14.9695 14.7861 14.8071 14.9866 14.8071H18.2338C18.4342 14.8071 18.5967 14.9696 18.5967 15.17V18.4155C18.5967 18.6161 18.4342 18.7785 18.2338 18.7785ZM15.3496 18.0526H17.8708V15.5331H15.3496V18.0526Z" fill="#403685"/>
<path id="Vector_12" d="M23.4873 18.7785H20.2401C20.0396 18.7785 19.8771 18.616 19.8771 18.4155V15.17C19.8771 14.9695 20.0396 14.8071 20.2401 14.8071H23.4873C23.6878 14.8071 23.8503 14.9696 23.8503 15.17V18.4155C23.8503 18.6161 23.6878 18.7785 23.4873 18.7785ZM20.6031 18.0526H23.1243V15.5331H20.6031V18.0526Z" fill="#403685"/>
<path id="Vector_13" d="M28.7408 18.7785H25.4937C25.2932 18.7785 25.1307 18.616 25.1307 18.4155V15.17C25.1307 14.9695 25.2932 14.8071 25.4937 14.8071H28.7408C28.9413 14.8071 29.1038 14.9696 29.1038 15.17V18.4155C29.1038 18.6161 28.9413 18.7785 28.7408 18.7785ZM25.8566 18.0526H28.3779V15.5331H25.8566V18.0526Z" fill="#403685"/>
<path id="Vector_14" d="M18.2338 24.305H14.9866C14.7861 24.305 14.6236 24.1425 14.6236 23.942V20.6948C14.6236 20.4942 14.7861 20.3318 14.9866 20.3318H18.2338C18.4342 20.3318 18.5967 20.4943 18.5967 20.6948V23.942C18.5967 24.1425 18.4342 24.305 18.2338 24.305ZM15.3496 23.579H17.8708V21.0577H15.3496V23.579Z" fill="#403685"/>
<path id="Vector_15" d="M23.4873 24.305H20.2401C20.0396 24.305 19.8771 24.1425 19.8771 23.942V20.6948C19.8771 20.4942 20.0396 20.3318 20.2401 20.3318H23.4873C23.6878 20.3318 23.8503 20.4943 23.8503 20.6948V23.942C23.8503 24.1425 23.6878 24.305 23.4873 24.305ZM20.6031 23.579H23.1243V21.0577H20.6031V23.579Z" fill="#403685"/>
<path id="Vector_16" d="M28.7408 24.305H25.4937C25.2932 24.305 25.1307 24.1425 25.1307 23.942V20.6948C25.1307 20.4942 25.2932 20.3318 25.4937 20.3318H28.7408C28.9413 20.3318 29.1038 20.4943 29.1038 20.6948V23.942C29.1038 24.1425 28.9413 24.305 28.7408 24.305ZM25.8566 23.579H28.3779V21.0577H25.8566V23.579Z" fill="#403685"/>
</g>
<path id="Vector_17" d="M13.4607 27.1076H11.0081V26.3817H13.3139V23.0581C13.3139 21.6352 12.1563 20.4776 10.7335 20.4776H10.138V19.7516H10.7335C12.5567 19.7516 14.0399 21.2349 14.0399 23.0581V26.5301C14.0399 26.8486 13.78 27.1076 13.4606 27.1076H13.4607ZM4.44503 27.1076H1.99076C1.67229 27.1076 1.41321 26.8486 1.41321 26.5301V23.0581C1.41321 21.2349 2.8957 19.7516 4.71792 19.7516H5.31346V20.4776H4.71792C3.29603 20.4776 2.13917 21.6352 2.13917 23.0581V26.3817H4.44503V27.1076Z" fill="#403685"/>
<path id="Vector_18" d="M7.72662 21.4439C5.59779 21.4439 3.86584 19.712 3.86584 17.5831C3.86584 15.4542 5.59779 13.7241 7.72662 13.7241C9.85544 13.7241 11.5857 15.4552 11.5857 17.5831C11.5857 19.7109 9.85454 21.4439 7.72662 21.4439ZM7.72662 14.45C5.99806 14.45 4.5918 15.8555 4.5918 17.5831C4.5918 19.3107 5.99806 20.7179 7.72662 20.7179C9.45517 20.7179 10.8597 19.3116 10.8597 17.5831C10.8597 15.8546 9.4542 14.45 7.72662 14.45Z" fill="#403685"/>
<path id="Vector_19" d="M7.72497 30.3936C6.81725 30.3937 5.90856 30.0579 5.20313 29.3821C4.50048 28.708 4.10251 27.801 4.08235 26.8278C4.06218 25.8548 4.42226 24.932 5.0962 24.2295C5.76985 23.5264 6.6769 23.1279 7.65013 23.1075C8.62269 23.0867 9.54591 23.4471 10.2486 24.1211C10.9511 24.795 11.3494 25.702 11.37 26.675C11.3907 27.6482 11.0309 28.571 10.3571 29.2735C9.64236 30.0185 8.68427 30.3935 7.72503 30.3936H7.72497ZM7.72805 23.8326C7.70717 23.8326 7.68634 23.8329 7.66539 23.8334C6.88615 23.8497 6.15983 24.1688 5.6203 24.732C5.0804 25.2947 4.79208 26.0337 4.80824 26.8129C4.82441 27.5921 5.14307 28.3184 5.70561 28.858C6.86738 29.9711 8.71909 29.9321 9.83321 28.7709C10.3727 28.2085 10.6608 27.4696 10.6442 26.6904C10.6277 25.9112 10.3087 25.1848 9.74602 24.6451C9.19856 24.1198 8.48404 23.8327 7.72812 23.8327L7.72805 23.8326Z" fill="#403685"/>
<path id="Vector_20" d="M7.19795 28.1786C7.10035 28.1786 7.00674 28.1393 6.93838 28.0694L6.04078 27.1512C5.90067 27.0078 5.90328 26.7779 6.04659 26.6378C6.1899 26.4977 6.41974 26.5003 6.55991 26.6436L7.18814 27.2863L8.87201 25.4314C9.00679 25.2829 9.23632 25.2719 9.38478 25.4066C9.53324 25.5413 9.54432 25.7709 9.40954 25.9193L7.46672 28.0595C7.39951 28.1337 7.30469 28.1767 7.20467 28.1785C7.20243 28.1785 7.20019 28.1785 7.19795 28.1785V28.1786Z" fill="#403685"/>
</g>
<defs>
<clipPath id="clip0_1783_47993">
<rect width="31" height="31" fill="white" transform="translate(0.761719 0.000244141)"/>
</clipPath>
</defs>
</svg>
