<svg width="149" height="149" viewBox="0 0 149 149" fill="none" xmlns="http://www.w3.org/2000/svg">
<g id="stash:image-plus-light">
<path id="Vector" d="M117.958 83.8125C118.782 83.8125 119.571 84.1395 120.153 84.7217C120.735 85.3038 121.063 86.0934 121.063 86.9167V102.438H136.583C137.407 102.438 138.196 102.765 138.778 103.347C139.36 103.929 139.688 104.718 139.688 105.542C139.688 106.365 139.36 107.155 138.778 107.737C138.196 108.319 137.407 108.646 136.583 108.646H121.063V124.167C121.063 124.99 120.735 125.779 120.153 126.362C119.571 126.944 118.782 127.271 117.958 127.271C117.135 127.271 116.346 126.944 115.763 126.362C115.181 125.779 114.854 124.99 114.854 124.167V108.646H99.3334C98.5101 108.646 97.7205 108.319 97.1384 107.737C96.5562 107.155 96.2292 106.365 96.2292 105.542C96.2292 104.718 96.5562 103.929 97.1384 103.347C97.7205 102.765 98.5101 102.438 99.3334 102.438H114.854V86.9167C114.854 86.0934 115.181 85.3038 115.763 84.7217C116.346 84.1395 117.135 83.8125 117.958 83.8125Z" fill="#6555BC"/>
<path id="Vector_2" d="M58.2155 21.7292H78.3678C85.1969 21.7292 90.5237 21.7292 94.7888 22.0769C99.1222 22.4307 102.642 23.1633 105.809 24.7713C111.067 27.45 115.342 31.7249 118.02 36.9831C119.635 40.1493 120.361 43.6694 120.715 48.0029C121.062 52.268 121.062 57.5885 121.062 64.4239V64.5667C121.062 65.39 120.735 66.1795 120.153 66.7617C119.571 67.3438 118.782 67.6708 117.958 67.6708C117.135 67.6708 116.345 67.3438 115.763 66.7617C115.181 66.1795 114.854 65.39 114.854 64.5667C114.854 57.5637 114.854 52.4915 114.525 48.5119C114.202 44.5572 113.581 41.9497 112.489 39.8016C110.405 35.7116 107.08 32.3864 102.99 30.3029C100.842 29.2102 98.2344 28.5894 94.2859 28.2666C90.3002 27.9375 85.228 27.9375 78.225 27.9375H58.3583C51.3553 27.9375 46.2831 27.9375 42.3036 28.2666C38.3489 28.5894 35.7414 29.2102 33.5933 30.3029C29.5032 32.3864 26.178 35.7116 24.0945 39.8016C23.0019 41.9497 22.381 44.5572 22.0582 48.5119C21.7291 52.4915 21.7291 57.5637 21.7291 64.5667V88.1273C23.1819 86.42 24.4608 84.9611 25.628 83.7815C27.4719 81.9314 29.2909 80.4911 31.4762 79.6902C34.918 78.4317 38.6941 78.4317 42.1359 79.6902C44.3213 80.4973 46.1465 81.9252 47.9842 83.7877C49.7846 85.5943 51.8209 88.0404 54.3601 91.0887L54.4533 91.2004C54.6375 91.4226 54.8665 91.6033 55.1254 91.7308C55.3842 91.8582 55.6671 91.9296 55.9555 91.9401C56.2439 91.9507 56.5312 91.9002 56.7987 91.792C57.0662 91.6838 57.3078 91.5203 57.5078 91.3122L76.2507 71.9049C78.1932 69.8253 80.2145 67.8206 82.3101 65.8953C84.067 64.3556 85.7743 63.1698 87.7796 62.5055C90.9614 61.4465 94.4007 61.4465 97.5826 62.5055C100.134 63.3498 102.245 65.0571 104.592 67.317C104.885 67.5999 105.12 67.9378 105.283 68.3115C105.446 68.6852 105.534 69.0873 105.541 69.4949C105.549 69.9025 105.476 70.3076 105.327 70.687C105.178 71.0664 104.955 71.4128 104.672 71.7063C104.39 71.9998 104.052 72.2347 103.678 72.3976C103.304 72.5605 102.902 72.6482 102.495 72.6557C102.087 72.6632 101.682 72.5903 101.302 72.4413C100.923 72.2922 100.577 72.0699 100.283 71.787C98.0482 69.6389 96.7817 68.7759 95.6269 68.391C93.7167 67.7548 91.6517 67.7548 89.7414 68.391C88.8536 68.689 87.8727 69.2788 86.4076 70.5639C84.9176 71.8677 83.1544 73.6929 80.6214 76.3129L61.9778 95.6208C61.1724 96.4566 60.1999 97.1133 59.1236 97.5479C58.0474 97.9825 56.8916 98.1853 55.7317 98.1432C54.5717 98.101 53.4337 97.8147 52.3919 97.3031C51.3501 96.7914 50.4278 96.0659 49.6853 95.1738C47.0281 91.9889 45.1594 89.7539 43.5763 88.1583C42.0118 86.5814 40.9501 85.8675 40.0065 85.526C37.9418 84.7713 35.6766 84.7713 33.6119 85.526C32.662 85.8675 31.6004 86.5814 30.0359 88.1583C28.4528 89.7539 26.5841 91.9889 23.9269 95.1738L23.542 95.6394C22.5549 96.819 22.381 97.0611 22.2569 97.3156C22.1217 97.6021 22.0237 97.9046 21.9651 98.2159C21.9295 98.4689 21.9253 98.7254 21.9526 98.9795L22.0023 99.7369L22.0271 100.109C22.3376 104.269 22.9708 106.982 24.1007 109.198C26.3333 113.572 29.9812 117.06 34.45 119.094C35.0088 119.335 35.6089 119.548 36.2504 119.734C37.8894 120.212 39.8326 120.535 42.3036 120.733C46.2831 121.063 51.3553 121.063 58.3583 121.063H86.9166C87.3327 121.063 87.7444 121.148 88.1273 121.311C88.7851 121.591 89.326 122.09 89.6585 122.723C89.9911 123.356 90.0951 124.084 89.9527 124.785C89.8104 125.485 89.4306 126.115 88.8774 126.568C88.3242 127.021 87.6316 127.269 86.9166 127.271H58.2155C51.3864 127.271 46.0658 127.271 41.7945 126.923C40.3712 126.817 38.954 126.641 37.548 126.395C35.6353 126.079 33.7663 125.539 31.9791 124.788C26.1863 122.177 21.4562 117.671 18.5691 112.011C16.9549 108.845 16.2224 105.331 15.8685 100.997L15.7443 99.1781C15.5208 95.2359 15.5208 90.4678 15.5208 84.5761V64.4239C15.5208 57.5947 15.5208 52.268 15.8685 48.0029C16.2224 43.6694 16.9549 40.1493 18.5629 36.9831C21.2416 31.7249 25.5165 27.45 30.7747 24.7713C33.9409 23.1571 37.4611 22.4307 41.7945 22.0769C46.0658 21.7292 51.3801 21.7292 58.2155 21.7292Z" fill="url(#paint0_linear_948_8876)"/>
<path id="Vector_3" d="M55.875 40.3542C51.7586 40.3542 47.8109 41.9894 44.9001 44.9001C41.9894 47.8109 40.3542 51.7586 40.3542 55.875C40.3542 59.9914 41.9894 63.9392 44.9001 66.8499C47.8109 69.7606 51.7586 71.3959 55.875 71.3959C59.9914 71.3959 63.9392 69.7606 66.8499 66.8499C69.7606 63.9392 71.3959 59.9914 71.3959 55.875C71.3959 51.7586 69.7606 47.8109 66.8499 44.9001C63.9392 41.9894 59.9914 40.3542 55.875 40.3542ZM46.5625 55.875C46.5625 53.4052 47.5437 51.0365 49.2901 49.2901C51.0365 47.5437 53.4052 46.5625 55.875 46.5625C58.3448 46.5625 60.7135 47.5437 62.46 49.2901C64.2064 51.0365 65.1875 53.4052 65.1875 55.875C65.1875 58.3448 64.2064 60.7135 62.46 62.46C60.7135 64.2064 58.3448 65.1875 55.875 65.1875C53.4052 65.1875 51.0365 64.2064 49.2901 62.46C47.5437 60.7135 46.5625 58.3448 46.5625 55.875Z" fill="#6555BC"/>
</g>
<defs>
<linearGradient id="paint0_linear_948_8876" x1="68.2916" y1="21.7292" x2="68.2916" y2="127.271" gradientUnits="userSpaceOnUse">
<stop stop-color="#6555BC"/>
<stop offset="1" stop-color="#998BFA"/>
</linearGradient>
</defs>
</svg>
